SplineFontDB: 3.2
FontName: IBMCourier-BoldItalic
FullName: IBM Courier Bold Italic
FamilyName: IBM Courier
Weight: Bold
Copyright: Copyright (c) IBM Corporation 1990,1991.
Version: 001.003
ItalicAngle: -12
UnderlinePosition: -100
UnderlineWidth: 50
Ascent: 800
Descent: 200
InvalidEm: 0
LayerCount: 2
Layer: 0 0 "Back" 1
Layer: 1 0 "Fore" 0
UniqueID: 263789
OS2Version: 0
OS2_WeightWidthSlopeOnly: 0
OS2_UseTypoMetrics: 0
CreationTime: 1634085839
ModificationTime: 1634085839
OS2TypoAscent: 0
OS2TypoAOffset: 1
OS2TypoDescent: 0
OS2TypoDOffset: 1
OS2TypoLinegap: 0
OS2WinAscent: 0
OS2WinAOffset: 1
OS2WinDescent: 0
OS2WinDOffset: 1
HheadAscent: 0
HheadAOffset: 1
HheadDescent: 0
HheadDOffset: 1
OS2Vendor: 'PfEd'
Lookup: 4 0 1 "'liga' Standard Ligatures in Latin lookup 0" { "'liga' Standard Ligatures in Latin lookup 0 subtable"  } ['liga' ('latn' <'dflt' > ) ]
DEI: 91125
LangName: 1033 "" "" "Bold Italic"
Encoding: AdobeStandard
UnicodeInterp: none
NameList: AGL For New Fonts
DisplaySize: -48
AntiAlias: 1
FitToEm: 0
BeginPrivate: 6
BlueValues 33 [ -25 0 583 608 453 478 625 650 ]
OtherBlues 27 [ 234 242 330 330 123 148 ]
StdHW 6 [ 85 ]
StdVW 6 [ 87 ]
ForceBold 4 true
Erode 146 {
10.5 dup 3 -1 roll 0.1 mul exch 0.5 sub mul cvi sub dup mul
87 0 dtransform dup mul exch dup mul add
le{pop pop 1.0 1.0}{pop pop 0.0 1.5}ifelse}
EndPrivate
BeginChars: 586 479

StartChar: exclam
Encoding: 33 33 1
Width: 600
Flags: W
HStem: -16 21G<276 324> -16 157<293 324> 187 404<360 377 294 483> 571 20G<360 483 483 483>
VStem: 221 175<49.5 76.5> 294 189
LayerCount: 2
Fore
SplineSet
483 591 m 1xbc
 377 187 l 1
 294 187 l 1
 360 591 l 1
 483 591 l 1xbc
320 141 m 0x48
 366 141 396 109 396 73 c 0
 396 26 351 -16 297 -16 c 0
 255 -16 221 13 221 53 c 0
 221 100 266 141 320 141 c 0x48
EndSplineSet
EndChar

StartChar: quotedbl
Encoding: 34 34 2
Width: 600
Flags: W
HStem: 272 311<257 312 203 390 257 404 459 514> 563 20G<257 390 390 390 459 591 591 591>
VStem: 203 187 203 388<272 583> 404 187
LayerCount: 2
Fore
SplineSet
257 583 m 1xf0
 390 583 l 1
 312 272 l 1
 203 272 l 1
 257 583 l 1xf0
459 583 m 1x88
 591 583 l 1
 514 272 l 1
 404 272 l 1
 459 583 l 1x88
EndSplineSet
EndChar

StartChar: numbersign
Encoding: 35 35 3
Width: 600
Flags: MW
HStem: 134 93<101 169 79 197 280 408 101 257 522 602> 367 93<150 233 128 257 150 319 343 471 585 651>
VStem: 79 593<134 460>
LayerCount: 2
Fore
SplineSet
310 658 m 1
 397 658 l 1
 343 460 l 1
 495 460 l 1
 549 658 l 1
 635 658 l 1
 585 460 l 1
 672 460 l 1
 651 367 l 1
 558 367 l 1
 522 227 l 1
 623 227 l 1
 602 134 l 1
 495 134 l 1
 439 -73 l 1
 353 -73 l 1
 408 134 l 1
 257 134 l 1
 200 -73 l 1
 114 -73 l 1
 169 134 l 1
 79 134 l 1
 101 227 l 1
 197 227 l 1
 233 367 l 1
 128 367 l 1
 150 460 l 1
 257 460 l 1
 310 658 l 1
471 367 m 1
 319 367 l 1
 280 227 l 1
 433 227 l 1
 471 367 l 1
EndSplineSet
EndChar

StartChar: dollar
Encoding: 36 36 4
Width: 600
Flags: W
HStem: 0 21G<161 161> 16 84<266 283 283 337> 238 21G<384 385> 572 20G
VStem: 137 72<131 187> 182 91<375.5 420 375.5 434> 448 91<179 198>
LayerCount: 2
Fore
SplineSet
400 672 m 1xb6
 471 672 l 1
 452 568 l 1
 475 560 491 553 512 528 c 1
 538 592 l 1
 612 577 l 1
 581 506 573 480 558 413 c 1
 486 400 l 1
 488 461 487 474 434 483 c 1
 400 322 l 1
 467 302 539 277 539 192 c 0
 539 77 418 20 337 16 c 1
 304 -130 l 1
 233 -130 l 1
 266 16 l 1
 222 24 205 33 182 55 c 1x76
 161 0 l 1xb6
 91 23 l 1xba
 121 90 128 119 137 187 c 1
 211 203 l 1
 210 195 209 161 209 156 c 0
 209 106 245 102 283 100 c 1x7a
 314 258 l 1
 271 270 182 296 182 390 c 0
 182 478 267 570 381 572 c 1
 400 672 l 1xb6
329 340 m 1
 364 486 l 1
 315 475 273 444 273 396 c 0
 273 355 314 344 329 340 c 1
384 238 m 2
 354 100 l 1
 444 108 448 175 448 183 c 0
 448 213 430 223 399 233 c 0
 394 235 386 238 384 238 c 2
EndSplineSet
EndChar

StartChar: percent
Encoding: 37 37 5
Width: 600
Flags: W
HStem: -14 68<414.5 463 414.5 476.5> 206 68<441.5 488.5> 346 68<242.5 286 242.5 301> 566 68<264.5 311>
VStem: 120 76<451 493 451 504> 298 76<95 133 95 143> 354 76<486 525.5> 531 76<127 166.5>
LayerCount: 2
Fore
SplineSet
482 274 m 0xff
 569 274 607 212 607 156 c 0
 607 76 529 -14 424 -14 c 0
 333 -14 298 51 298 103 c 0
 298 183 375 274 482 274 c 0xff
471 206 m 0xfd
 412 206 374 154 374 112 c 0
 374 78 395 54 434 54 c 0
 492 54 531 106 531 148 c 0
 531 185 506 206 471 206 c 0xfd
304 634 m 0xfb
 387 634 430 575 430 516 c 0
 430 439 356 346 246 346 c 0
 156 346 120 409 120 463 c 0
 120 545 200 634 304 634 c 0xfb
293 566 m 0xfb
 236 566 196 514 196 472 c 0
 196 430 228 414 257 414 c 0
 315 414 354 465 354 507 c 0
 354 544 329 566 293 566 c 0xfb
598 423 m 1xfb
 613 371 l 1
 149 203 l 1
 135 254 l 1
 598 423 l 1xfb
EndSplineSet
EndChar

StartChar: ampersand
Encoding: 38 38 6
Width: 600
Flags: W
HStem: -7 86<232 277.5 232 277.5> 0 82<465 494 408 512> 123 21G<349 349> 226 84<521 546 521 521> 476 86<370 409.5 358.5 417.5>
VStem: 110 91<121.5 134> 230 88<411.5 432 411.5 461>
LayerCount: 2
Fore
SplineSet
472 310 m 1x7c
 565 310 l 1
 546 226 l 1
 521 226 l 1
 499 177 481 149 450 115 c 1
 465 82 l 1
 512 82 l 1
 494 0 l 1
 408 0 l 1x7c
 385 46 l 1
 356 26 312 -7 243 -7 c 0
 171 -7 110 40 110 125 c 0xbc
 110 143 110 252 255 322 c 1
 254 324 250 334 247 340 c 0
 237 367 230 385 230 414 c 0
 230 508 320 562 397 562 c 0
 422 562 433 559 463 550 c 0
 466 549 477 545 486 545 c 0
 492 545 510 549 516 551 c 0
 518 552 531 558 534 559 c 0
 538 561 544 563 546 564 c 1
 494 411 l 1
 466 446 442 476 393 476 c 0
 347 476 318 444 318 420 c 0
 318 403 324 380 345 335 c 2
 408 199 l 1x7e
 444 244 457 272 472 310 c 1x7c
349 123 m 1
 290 248 l 1
 248 227 201 186 201 131 c 0
 201 112 209 79 255 79 c 0xbc
 300 79 328 104 349 123 c 1
EndSplineSet
EndChar

StartChar: quoteright
Encoding: 39 8217 7
Width: 600
Flags: W
HStem: 309 274<221 511 221 511> 563 20G<365 511 511 511>
VStem: 221 290<309 583>
LayerCount: 2
Fore
SplineSet
365 583 m 1xe0
 511 583 l 1
 331 309 l 1
 221 309 l 1
 365 583 l 1xe0
EndSplineSet
EndChar

StartChar: parenleft
Encoding: 40 40 8
Width: 600
Flags: MW
HStem: -93 759<375 630 375 630>
VStem: 314 96<140 221 139 288>
LayerCount: 2
Fore
SplineSet
530 666 m 1
 630 666 l 1
 598 624 l 2
 597 622 590 613 589 611 c 0
 426 392 410 265 410 177 c 0
 410 101 423 34 448 -46 c 0
 449 -48 452 -57 452 -58 c 0
 453 -60 458 -77 459 -80 c 0
 460 -82 462 -91 463 -93 c 1
 375 -93 l 1
 332 4 314 92 314 188 c 0
 314 388 445 567 530 666 c 1
EndSplineSet
EndChar

StartChar: parenright
Encoding: 41 41 9
Width: 600
Flags: MW
HStem: -93 759<82 336 82 336>
VStem: 302 96<357.5 423.5 357.5 444.5>
LayerCount: 2
Fore
SplineSet
181 -93 m 1
 82 -93 l 1
 91 -80 93 -77 103 -64 c 0
 209 74 302 218 302 397 c 0
 302 492 283 552 252 654 c 0
 252 655 249 664 248 666 c 1
 336 666 l 1
 338 661 339 660 341 656 c 0
 343 651 343 650 345 646 c 0
 387 562 398 461 398 386 c 0
 398 329 395 218 276 33 c 0
 232 -35 199 -72 184 -89 c 2
 181 -93 l 1
EndSplineSet
EndChar

StartChar: asterisk
Encoding: 42 42 10
Width: 600
Flags: W
HStem: 193 394<266 478 417 417> 433 20G<347 347 443 443> 567 20G<370 478 478 478>
VStem: 175 415<397 397>
LayerCount: 2
Fore
SplineSet
370 587 m 1xf0
 478 587 l 1
 443 453 l 1
 579 501 l 1
 590 397 l 1
 452 361 l 1
 514 256 l 1
 417 193 l 1
 365 305 l 1
 266 193 l 1
 192 256 l 1
 298 361 l 1
 175 397 l 1
 229 501 l 1
 347 453 l 1
 370 587 l 1xf0
EndSplineSet
EndChar

StartChar: plus
Encoding: 43 43 11
Width: 600
Flags: MW
HStem: 268 88<117 319 117 319 407 609>
VStem: 319 88<71 268 71 268 356 553>
LayerCount: 2
Fore
SplineSet
319 553 m 1
 407 553 l 1
 407 356 l 1
 609 356 l 1
 609 268 l 1
 407 268 l 1
 407 71 l 1
 319 71 l 1
 319 268 l 1
 117 268 l 1
 117 356 l 1
 319 356 l 1
 319 553 l 1
EndSplineSet
EndChar

StartChar: comma
Encoding: 44 44 12
Width: 600
Flags: MW
HStem: -106 274<129 420 129 420>
VStem: 129 291<-106 168>
LayerCount: 2
Fore
SplineSet
274 168 m 1
 420 168 l 1
 239 -106 l 1
 129 -106 l 1
 274 168 l 1
EndSplineSet
EndChar

StartChar: hyphen
Encoding: 45 45 13
Width: 600
Flags: MW
HStem: 253 92<254 475 254 475>
VStem: 254 221<253 345 253 345>
LayerCount: 2
Fore
SplineSet
254 345 m 1
 475 345 l 1
 475 253 l 1
 254 253 l 1
 254 345 l 1
EndSplineSet
EndChar

StartChar: period
Encoding: 46 46 14
Width: 600
Flags: W
HStem: -16 21G<276.5 324.5> -16 170<302 324.5>
VStem: 217 191<56 82.5>
LayerCount: 2
Fore
SplineSet
329 154 m 0xe0
 367 154 408 129 408 84 c 0
 408 28 352 -16 297 -16 c 0
 256 -16 217 9 217 54 c 0
 217 111 275 154 329 154 c 0xe0
EndSplineSet
EndChar

StartChar: slash
Encoding: 47 47 15
Width: 600
Flags: MW
HStem: -128 856<118 594>
VStem: 44 625
LayerCount: 2
Fore
SplineSet
594 728 m 1
 669 693 l 1
 118 -128 l 1
 44 -91 l 1
 594 728 l 1
EndSplineSet
EndChar

StartChar: zero
Encoding: 48 48 16
Width: 600
Flags: MW
HStem: -14 84<271.5 371 271.5 411> 555 84<352.5 451.5>
VStem: 142 91<153.5 231 153.5 233> 488 91<400.5 466.5>
LayerCount: 2
Fore
SplineSet
425 639 m 0
 571 639 579 498 579 453 c 0
 579 330 524 -14 298 -14 c 0
 151 -14 142 124 142 172 c 0
 142 294 197 639 425 639 c 0
418 555 m 0
 287 555 233 291 233 171 c 0
 233 136 241 70 302 70 c 0
 440 70 488 349 488 452 c 0
 488 481 485 555 418 555 c 0
EndSplineSet
EndChar

StartChar: one
Encoding: 49 49 17
Width: 600
Flags: MW
HStem: 0 82<109 277 366 514 91 277> 619 20G<424 483 483 483>
VStem: 91 440<0 82>
LayerCount: 2
Fore
SplineSet
197 547 m 1
 424 639 l 1
 483 639 l 1
 366 82 l 1
 531 82 l 1
 514 0 l 1
 91 0 l 1
 109 82 l 1
 277 82 l 1
 372 528 l 1
 216 465 l 1
 197 547 l 1
EndSplineSet
EndChar

StartChar: two
Encoding: 50 50 18
Width: 600
Flags: MW
HStem: 0 82<81 81 223 414 64 81> 552 87<370.5 422>
VStem: 489 90<465.5 496>
LayerCount: 2
Fore
SplineSet
435 180 m 1
 519 180 l 1
 481 0 l 1
 64 0 l 1
 81 82 l 1
 104 98 127 115 147 130 c 0
 330 267 405 326 440 363 c 0
 483 409 489 456 489 475 c 0
 489 517 450 552 394 552 c 0
 347 552 303 527 285 500 c 0
 275 484 273 470 270 453 c 1
 179 453 l 1
 199 544 l 1
 257 600 328 639 411 639 c 0
 498 639 579 575 579 476 c 0
 579 355 495 277 223 84 c 1
 223 82 l 1
 414 82 l 1
 435 180 l 1
EndSplineSet
EndChar

StartChar: three
Encoding: 51 51 19
Width: 600
Flags: W
HStem: -14 86<242 320 242 338.5> 289 83 551 88<361 402.5>
VStem: 428 91<180 225.5 160.5 249> 457 91<488 514>
LayerCount: 2
Fore
SplineSet
68 46 m 1xf0
 117 122 l 1
 153 102 212 72 272 72 c 0
 368 72 428 146 428 214 c 0
 428 284 361 291 333 290 c 2xf0
 273 288 l 1
 291 372 l 1
 336 373 365 373 394 390 c 0
 431 412 457 451 457 493 c 0
 457 535 420 551 385 551 c 0
 337 551 305 535 222 489 c 1
 191 566 l 1
 263 607 321 639 392 639 c 0
 485 639 548 574 548 503 c 0xe8
 548 473 542 394 461 338 c 1
 519 292 519 233 519 218 c 0
 519 103 412 -14 265 -14 c 0
 201 -14 157 6 111 27 c 0
 105 30 74 43 68 46 c 1xf0
EndSplineSet
EndChar

StartChar: four
Encoding: 52 52 20
Width: 600
Flags: MW
HStem: 0 82<205 333 420 489 184 333> 165 76<204 353 455 526 204 438> 619 20G<438 537 537 537>
VStem: 94 448<165 241>
LayerCount: 2
Fore
SplineSet
537 639 m 1
 455 241 l 1
 542 241 l 1
 526 165 l 1
 438 165 l 1
 420 82 l 1
 510 82 l 1
 489 0 l 1
 184 0 l 1
 205 82 l 1
 333 82 l 1
 353 165 l 1
 94 165 l 1
 110 244 l 1
 438 639 l 1
 537 639 l 1
204 241 m 1
 368 241 l 1
 429 517 l 1
 427 519 l 1
 204 241 l 1
EndSplineSet
EndChar

StartChar: five
Encoding: 53 53 21
Width: 600
Flags: MW
HStem: -14 88<249.5 341.5 249.5 365.5> 326 84<347 389.5> 539 86<305 584 305 305>
VStem: 451 93<203 259.5>
LayerCount: 2
Fore
SplineSet
239 625 m 1
 602 625 l 1
 584 539 l 1
 305 539 l 1
 274 394 l 1
 296 401 327 410 367 410 c 0
 469 410 544 350 544 243 c 0
 544 133 452 -14 279 -14 c 0
 185 -14 118 19 74 41 c 1
 121 118 l 1
 166 96 219 74 280 74 c 0
 403 74 451 170 451 236 c 0
 451 283 424 326 355 326 c 0
 293 326 246 296 216 276 c 1
 171 304 l 1
 239 625 l 1
EndSplineSet
EndChar

StartChar: six
Encoding: 54 54 22
Width: 600
Flags: MW
HStem: -14 86<301 346 301 361> 310 86<347 402.5> 553 86<480 539 373.5 548.5>
VStem: 130 90<129 192 129 241> 441 91<190 235>
LayerCount: 2
Fore
SplineSet
632 637 m 1
 608 552 l 1
 576 553 557 553 540 553 c 0
 420 553 334 520 262 365 c 1
 264 363 l 1
 284 376 320 396 374 396 c 0
 458 396 532 340 532 230 c 0
 532 104 422 -14 300 -14 c 0
 203 -14 130 59 130 178 c 0
 130 304 211 639 536 639 c 0
 542 639 617 637 632 637 c 1
223 215 m 0
 222 206 220 200 220 184 c 0
 220 74 296 72 306 72 c 0
 386 72 441 154 441 226 c 0
 441 244 435 310 370 310 c 0
 324 310 258 280 223 215 c 0
EndSplineSet
EndChar

StartChar: seven
Encoding: 55 55 23
Width: 600
Flags: MW
HStem: 0 21G<233 336 233 233> 539 86<309 543 309 309>
VStem: 203 456<453 625>
LayerCount: 2
Fore
SplineSet
240 625 m 1
 659 625 l 1
 644 552 l 1
 336 0 l 1
 233 0 l 1
 543 539 l 1
 309 539 l 1
 291 453 l 1
 203 453 l 1
 240 625 l 1
EndSplineSet
EndChar

StartChar: eight
Encoding: 56 56 24
Width: 600
Flags: W
HStem: -14 84<280 340 280 368.5> 275 82<336 366.5> 555 84<381.5 442.5>
VStem: 122 91<121 177.5 121 181> 194 91<424.5 464.5 416.5 486.5> 449 91<162.5 209 152 234.5> 500 91<482 506>
LayerCount: 2
Fore
SplineSet
238 323 m 1xec
 194 365 194 418 194 431 c 0
 194 542 304 639 425 639 c 0
 533 639 591 563 591 490 c 0xea
 591 474 591 389 487 316 c 1
 540 269 540 214 540 204 c 0
 540 100 440 -14 297 -14 c 0
 179 -14 122 63 122 143 c 0xf4
 122 219 177 288 234 321 c 1
 234 321 237 322 238 323 c 1xec
419 555 m 0xea
 344 555 285 497 285 432 c 0
 285 401 307 357 365 357 c 0
 431 357 500 417 500 483 c 0
 500 529 466 555 419 555 c 0xea
359 275 m 0xf4
 272 275 213 208 213 147 c 0
 213 95 257 70 303 70 c 0
 377 70 449 128 449 197 c 0
 449 272 374 275 359 275 c 0xf4
EndSplineSet
EndChar

StartChar: nine
Encoding: 57 57 25
Width: 600
Flags: MW
HStem: -14 86<173 232 163.5 338.5> 229 86<309.5 365 309.5 365> 553 86<366 411>
VStem: 180 91<390 435 390 458> 492 90<433 496>
LayerCount: 2
Fore
SplineSet
80 -12 m 1
 104 73 l 1
 136 72 155 72 172 72 c 0
 292 72 378 105 450 260 c 1
 448 262 l 1
 428 249 392 229 338 229 c 0
 254 229 180 285 180 395 c 0
 180 521 290 639 412 639 c 0
 509 639 582 566 582 447 c 0
 582 321 501 -14 176 -14 c 0
 170 -14 95 -12 80 -12 c 1
489 410 m 0
 490 419 492 425 492 441 c 0
 492 551 416 553 406 553 c 0
 326 553 271 471 271 399 c 0
 271 381 277 315 342 315 c 0
 388 315 454 345 489 410 c 0
EndSplineSet
EndChar

StartChar: colon
Encoding: 58 58 26
Width: 600
Flags: W
HStem: -16 21G<277 324> -16 170<302.5 324> 246 170<357 378.5>
VStem: 217 191<55.5 83> 273 191<317.5 345>
LayerCount: 2
Fore
SplineSet
384 416 m 0xb8
 430 416 464 386 464 347 c 0
 464 288 404 246 353 246 c 0
 313 246 273 271 273 316 c 0
 273 374 330 416 384 416 c 0xb8
329 154 m 0x50
 364 154 408 132 408 84 c 0
 408 27 351 -16 297 -16 c 0
 257 -16 217 9 217 54 c 0
 217 112 276 154 329 154 c 0x50
EndSplineSet
EndChar

StartChar: semicolon
Encoding: 59 59 27
Width: 600
Flags: MW
HStem: 249 170<357.5 381>
VStem: 274 191<320.5 347>
LayerCount: 2
Fore
SplineSet
278 169 m 1
 424 169 l 1
 243 -105 l 1
 134 -105 l 1
 278 169 l 1
386 419 m 0
 430 419 465 390 465 349 c 0
 465 292 408 249 354 249 c 0
 310 249 274 277 274 319 c 0
 274 375 329 419 386 419 c 0
EndSplineSet
EndChar

StartChar: less
Encoding: 60 60 28
Width: 600
Flags: MW
HStem: 75 481<581 581>
VStem: 69 548<319 477>
LayerCount: 2
Fore
SplineSet
581 556 m 1
 617 477 l 1
 269 318 l 1
 616 155 l 1
 581 75 l 1
 69 319 l 1
 581 556 l 1
EndSplineSet
EndChar

StartChar: equal
Encoding: 61 61 29
Width: 600
Flags: MW
HStem: 181 88<117 612 117 612> 356 88<117 612 117 612>
VStem: 117 495<181 269 181 269 356 444 181 444>
LayerCount: 2
Fore
SplineSet
117 444 m 1
 612 444 l 1
 612 356 l 1
 117 356 l 1
 117 444 l 1
117 269 m 1
 612 269 l 1
 612 181 l 1
 117 181 l 1
 117 269 l 1
EndSplineSet
EndChar

StartChar: greater
Encoding: 62 62 30
Width: 600
Flags: MW
HStem: 457 20G<97 97>
VStem: 97 547<155 319 319 477>
LayerCount: 2
Fore
SplineSet
133 556 m 1
 644 319 l 1
 133 75 l 1
 97 155 l 1
 445 318 l 1
 97 477 l 1
 133 556 l 1
EndSplineSet
EndChar

StartChar: question
Encoding: 63 63 31
Width: 600
Flags: W
HStem: -16 21G<240.5 289.5> -16 158<259 289.5> 179 125.5 506 86<373 400.5>
VStem: 187 175<49 77> 483 91<394.5 472.5>
LayerCount: 2
Fore
SplineSet
189 420 m 1xbc
 218 554 l 1
 302 581 336 592 397 592 c 0
 533 592 574 508 574 444 c 0
 574 293 414 249 357 233 c 1
 346 179 l 1
 258 179 l 1
 284 302 l 1
 304 307 l 2
 308 308 314 309 315 310 c 0
 378 324 483 349 483 440 c 0
 483 505 408 506 393 506 c 0
 353 506 331 500 292 486 c 1
 277 420 l 1
 189 420 l 1xbc
285 142 m 0x48
 331 142 362 111 362 73 c 0
 362 25 315 -16 264 -16 c 0
 217 -16 187 16 187 53 c 0
 187 101 233 142 285 142 c 0x48
EndSplineSet
EndChar

StartChar: at
Encoding: 64 64 32
Width: 600
Flags: W
HStem: -12 68<250 308> 129 70<256.5 316.5> 132 68<458 494.5 458 508.5> 380 70<369 395.5> 526 66<329 438.5>
VStem: 70 73<164 282> 205 73<221.5 248.5 221.5 254.5> 583 70<339.5 449.5 334 451>
LayerCount: 2
Fore
SplineSet
540 126 m 1xbf
 559 66 l 1
 427 -4 334 -12 282 -12 c 0
 98 -12 70 134 70 194 c 0
 70 370 186 592 433 592 c 0
 584 592 653 501 653 398 c 0
 653 270 568 132 449 132 c 0xbf
 418 132 390 148 376 175 c 1
 330 135 293 129 272 129 c 0xdf
 241 129 205 154 205 206 c 0
 205 303 309 450 411 450 c 0
 438 450 449 436 458 424 c 1
 468 445 l 1
 540 445 l 1
 458 276 l 2
 452 264 439 236 439 225 c 0
 439 212 449 200 467 200 c 0
 522 200 583 293 583 386 c 0
 583 516 460 526 417 526 c 0
 241 526 143 357 143 214 c 0
 143 105 201 56 299 56 c 0
 393 56 463 89 540 126 c 1xbf
293 199 m 0xdf
 340 199 408 305 408 354 c 0
 408 368 401 380 390 380 c 0
 348 380 278 274 278 223 c 0
 278 220 278 199 293 199 c 0xdf
EndSplineSet
EndChar

StartChar: A
Encoding: 65 65 33
Width: 600
Flags: MW
HStem: 0 82<12 68 163 233 -6 68 375 464 556 596> 179 84<274 432 274 447 223 432> 501 82<218 327 200 458>
VStem: -6 620<0 82>
LayerCount: 2
Fore
SplineSet
218 583 m 1
 458 583 l 1
 556 82 l 1
 614 82 l 1
 596 0 l 1
 357 0 l 1
 375 82 l 1
 464 82 l 1
 447 179 l 1
 223 179 l 1
 163 82 l 1
 251 82 l 1
 233 0 l 1
 -6 0 l 1
 12 82 l 1
 68 82 l 1
 327 501 l 1
 200 501 l 1
 218 583 l 1
432 263 m 1
 394 453 l 1
 274 263 l 1
 432 263 l 1
EndSplineSet
EndChar

StartChar: B
Encoding: 66 66 34
Width: 600
Flags: W
HStem: 0 82<45 126 214 308 27 126> 261 84<269 358 252 370> 501 82<151 214 133 430 302 302 302 419>
VStem: 498 91<175 207 164.5 211> 517 91<443 473.5>
LayerCount: 2
Fore
SplineSet
151 583 m 1xe8
 430 583 l 2
 461 583 608 583 608 450 c 0xe8
 608 361 549 320 528 306 c 1
 586 271 589 217 589 197 c 0
 589 132 551 80 517 52 c 0xf0
 455 1 373 0 308 0 c 2
 27 0 l 1
 45 82 l 1
 126 82 l 1
 214 501 l 1
 133 501 l 1
 151 583 l 1xe8
419 501 m 2
 302 501 l 1
 269 345 l 1
 370 345 l 2
 517 345 517 440 517 446 c 0
 517 501 444 501 419 501 c 2
358 261 m 2
 252 261 l 1
 214 82 l 1
 312 82 l 2
 362 82 423 83 459 112 c 0
 482 131 498 160 498 190 c 0xf0
 498 232 469 261 358 261 c 2
EndSplineSet
EndChar

StartChar: C
Encoding: 67 67 35
Width: 600
Flags: W
HStem: -16 86<276.5 392 276.5 406> 513 86<373.5 457.5> 568 20G<608 608>
VStem: 103 91<193 299 193 325.5> 555 74<353 459.5>
LayerCount: 2
Fore
SplineSet
608 588 m 1xf8
 684 569 l 1xb8
 668 534 638 471 629 353 c 1
 550 358 l 1
 552 379 555 399 555 419 c 0
 555 500 476 513 439 513 c 0
 308 513 194 380 194 218 c 0
 194 168 207 70 346 70 c 0
 438 70 486 104 550 148 c 1
 597 75 l 1
 543 36 470 -16 342 -16 c 0
 172 -16 103 90 103 221 c 0
 103 430 265 599 445 599 c 0
 478 599 547 593 587 528 c 1xd8
 608 588 l 1xf8
EndSplineSet
EndChar

StartChar: D
Encoding: 68 68 36
Width: 600
Flags: MW
HStem: 0 82<35 112 201 281 17 112> 501 82<141 200 123 397 289 289 289 391>
VStem: 536 93<363.5 402.5>
LayerCount: 2
Fore
SplineSet
141 583 m 1
 397 583 l 2
 483 583 520 573 554 549 c 0
 592 522 629 463 629 378 c 0
 629 349 621 207 522 94 c 0
 440 1 328 0 281 0 c 2
 17 0 l 1
 35 82 l 1
 112 82 l 1
 200 501 l 1
 123 501 l 1
 141 583 l 1
391 501 m 2
 289 501 l 1
 201 82 l 1
 289 82 l 2
 326 82 401 82 456 149 c 0
 520 227 536 325 536 369 c 0
 536 436 510 468 497 479 c 0
 480 494 457 501 391 501 c 2
EndSplineSet
EndChar

StartChar: E
Encoding: 69 69 37
Width: 600
Flags: W
HStem: 0 82<58 140 229 477 40 140> 195 22 264 86<285 383 267 401> 367 53<416 622 416 538> 501 82<164 229 146 663 317 557 317 317>
VStem: 40 623<0 583>
LayerCount: 2
Fore
SplineSet
164 583 m 1
 663 583 l 1
 622 367 l 1
 538 367 l 1xfc
 557 501 l 1
 317 501 l 1
 285 350 l 1
 401 350 l 1xec
 416 420 l 1
 501 420 l 1xfc
 453 195 l 1
 369 195 l 1
 383 264 l 1
 267 264 l 1
 229 82 l 1
 477 82 l 1
 510 217 l 1
 595 217 l 1
 548 0 l 1
 40 0 l 1
 58 82 l 1
 140 82 l 1
 229 501 l 1
 146 501 l 1
 164 583 l 1
EndSplineSet
EndChar

StartChar: F
Encoding: 70 70 38
Width: 600
Flags: W
HStem: 0 82<73 152 239 347 55 152> 264 86<295 393 277 411> 367 54<426 631 426 549> 501 82<179 239 161 670 327 565 327 327>
VStem: 55 615<0 583>
LayerCount: 2
Fore
SplineSet
179 583 m 1
 670 583 l 1
 631 367 l 1
 549 367 l 1xf8
 565 501 l 1
 327 501 l 1
 295 350 l 1
 411 350 l 1xd8
 426 421 l 1
 511 421 l 1xf8
 463 196 l 1
 378 196 l 1
 393 264 l 1
 277 264 l 1
 239 82 l 1
 365 82 l 1
 347 0 l 1
 55 0 l 1
 73 82 l 1
 152 82 l 1
 239 501 l 1
 161 501 l 1
 179 583 l 1
EndSplineSet
EndChar

StartChar: G
Encoding: 71 71 39
Width: 600
Flags: W
HStem: -16 86<282.5 362.5> 194 84<363 489 345 642 578 624 578 578> 515 84<353.5 440.5> 567 20G<589 589>
VStem: 85 93<168 294 168 311> 537 81<362 451>
LayerCount: 2
Fore
SplineSet
363 278 m 1xec
 642 278 l 1
 624 194 l 1
 578 194 l 1
 544 35 l 1
 530 30 l 2
 476 10 407 -16 318 -16 c 0
 169 -16 85 77 85 216 c 0
 85 406 234 599 426 599 c 0
 517 599 555 544 569 524 c 1xec
 589 587 l 1
 670 570 l 1xdc
 647 517 623 444 618 362 c 1
 535 348 l 1
 537 382 537 392 537 403 c 0
 537 499 460 515 421 515 c 0
 286 515 178 370 178 218 c 0
 178 118 233 70 332 70 c 0
 397 70 448 90 469 98 c 1
 489 194 l 1
 345 194 l 1
 363 278 l 1xec
EndSplineSet
EndChar

StartChar: H
Encoding: 72 72 40
Width: 600
Flags: MW
HStem: 0 82<40 113 201 256 22 113 352 425 513 568> 259 84<256 462 239 479> 501 82<146 201 128 380 289 362 289 289 146 440 458 513 601 601 601 674>
VStem: 22 670<0 583>
LayerCount: 2
Fore
SplineSet
146 583 m 1
 380 583 l 1
 362 501 l 1
 289 501 l 1
 256 343 l 1
 479 343 l 1
 513 501 l 1
 440 501 l 1
 458 583 l 1
 692 583 l 1
 674 501 l 1
 601 501 l 1
 513 82 l 1
 586 82 l 1
 568 0 l 1
 334 0 l 1
 352 82 l 1
 425 82 l 1
 462 259 l 1
 239 259 l 1
 201 82 l 1
 274 82 l 1
 256 0 l 1
 22 0 l 1
 40 82 l 1
 113 82 l 1
 201 501 l 1
 128 501 l 1
 146 583 l 1
EndSplineSet
EndChar

StartChar: I
Encoding: 73 73 41
Width: 600
Flags: MW
HStem: 0 82<98 267 356 507 80 267> 501 82<204 356 186 631 444 613 444 444>
VStem: 80 551
LayerCount: 2
Fore
SplineSet
204 583 m 1
 631 583 l 1
 613 501 l 1
 444 501 l 1
 356 82 l 1
 525 82 l 1
 507 0 l 1
 80 0 l 1
 98 82 l 1
 267 82 l 1
 356 501 l 1
 186 501 l 1
 204 583 l 1
EndSplineSet
EndChar

StartChar: J
Encoding: 74 74 42
Width: 600
Flags: MW
HStem: -16 86<255.5 317.5> 501 82<306 478 288 708 567 690 567 567>
VStem: 61 647<52 583>
LayerCount: 2
Fore
SplineSet
306 583 m 1
 708 583 l 1
 690 501 l 1
 567 501 l 1
 506 213 l 2
 491 140 478 103 456 72 c 0
 417 17 353 -16 282 -16 c 0
 208 -16 142 11 61 52 c 1
 102 292 l 1
 190 292 l 1
 170 175 l 2
 167 163 165 145 165 131 c 0
 165 90 233 70 278 70 c 0
 384 70 401 135 419 221 c 2
 478 501 l 1
 288 501 l 1
 306 583 l 1
EndSplineSet
EndChar

StartChar: K
Encoding: 75 75 43
Width: 600
Flags: MW
HStem: 0 82<61 143 231 295 43 143 509 593> 501 82<167 231 149 413 319 393 319 319 167 442 459 486 620 620 620 671>
VStem: 43 646<0 583>
LayerCount: 2
Fore
SplineSet
167 583 m 1
 413 583 l 1
 393 501 l 1
 319 501 l 1
 288 348 l 1
 486 499 l 1
 486 501 l 1
 442 501 l 1
 459 583 l 1
 689 583 l 1
 671 501 l 1
 620 501 l 1
 393 323 l 1
 439 251 458 208 502 99 c 2
 509 82 l 1
 611 82 l 1
 593 0 l 1
 445 0 l 1
 404 114 382 163 319 270 c 1
 262 227 l 1
 231 82 l 1
 313 82 l 1
 295 0 l 1
 43 0 l 1
 61 82 l 1
 143 82 l 1
 231 501 l 1
 149 501 l 1
 167 583 l 1
EndSplineSet
EndChar

StartChar: L
Encoding: 76 76 44
Width: 600
Flags: MW
HStem: 0 82<59 155 243 478 41 155> 501 82<165 243 147 469 332 451 332 332>
VStem: 41 578<0 278>
LayerCount: 2
Fore
SplineSet
165 583 m 1
 469 583 l 1
 451 501 l 1
 332 501 l 1
 243 82 l 1
 478 82 l 1
 530 278 l 1
 619 278 l 1
 547 0 l 1
 41 0 l 1
 59 82 l 1
 155 82 l 1
 243 501 l 1
 147 501 l 1
 165 583 l 1
EndSplineSet
EndChar

StartChar: M
Encoding: 77 77 45
Width: 600
Flags: MW
HStem: 0 82<5 58 145 230 -13 58 370 473 562 603> 151 139<353 365 353 370 291 365> 501 82<118 161 100 312 636 697 636 636>
VStem: -13 728<0 583>
LayerCount: 2
Fore
SplineSet
118 583 m 1
 312 583 l 1
 353 290 l 1
 365 290 l 1
 523 583 l 1
 715 583 l 1
 697 501 l 1
 636 501 l 1
 562 82 l 1
 621 82 l 1
 603 0 l 1
 353 0 l 1
 370 82 l 1
 473 82 l 1
 532 420 l 1
 514 420 l 1
 370 151 l 1
 291 151 l 1
 248 431 l 1
 230 431 l 1
 145 82 l 1
 248 82 l 1
 230 0 l 1
 -13 0 l 1
 5 82 l 1
 58 82 l 1
 161 501 l 1
 100 501 l 1
 118 583 l 1
EndSplineSet
EndChar

StartChar: N
Encoding: 78 78 46
Width: 600
Flags: W
HStem: -12 158<455 473 455 527 421 473> 0 82<30 95 183 261 12 95> 501 82<130 183 112 313 473 548 636 636 636 696>
VStem: 12 702<0 583>
LayerCount: 2
Fore
SplineSet
130 583 m 1x70
 313 583 l 1
 455 146 l 1
 473 146 l 1
 548 501 l 1
 455 501 l 1
 473 583 l 1
 714 583 l 1
 696 501 l 1
 636 501 l 1
 527 -12 l 1
 421 -12 l 1xb0
 275 432 l 1
 257 432 l 1
 183 82 l 1
 279 82 l 1
 261 0 l 1
 12 0 l 1
 30 82 l 1
 95 82 l 1
 183 501 l 1
 112 501 l 1
 130 583 l 1x70
EndSplineSet
EndChar

StartChar: O
Encoding: 79 79 47
Width: 600
Flags: MW
HStem: -16 84<243.5 368.5 243.5 395> 515 84<341.5 466.5>
VStem: 80 93<205.5 291 205.5 306.5> 540 93<291 383.5>
LayerCount: 2
Fore
SplineSet
80 224 m 0
 80 389 213 599 415 599 c 0
 596 599 633 446 633 365 c 0
 633 184 493 -16 297 -16 c 0
 102 -16 80 162 80 224 c 0
173 227 m 0
 173 184 185 68 302 68 c 0
 435 68 540 220 540 362 c 0
 540 405 523 515 410 515 c 0
 273 515 173 355 173 227 c 0
EndSplineSet
EndChar

StartChar: P
Encoding: 80 80 48
Width: 600
Flags: MW
HStem: 0 82<93 171 259 382 75 171> 213 84<303 326 285 333> 501 82<198 259 180 433 346 346 346 427>
VStem: 557 91<406.5 447 395 462.5>
LayerCount: 2
Fore
SplineSet
198 583 m 1
 433 583 l 2
 485 583 553 581 597 543 c 0
 631 514 648 469 648 425 c 0
 648 365 613 305 572 269 c 0
 509 213 432 213 326 213 c 2
 285 213 l 1
 259 82 l 1
 400 82 l 1
 382 0 l 1
 75 0 l 1
 93 82 l 1
 171 82 l 1
 259 501 l 1
 180 501 l 1
 198 583 l 1
427 501 m 2
 346 501 l 1
 303 297 l 1
 333 297 l 2
 426 297 480 300 513 330 c 0
 538 353 557 389 557 424 c 0
 557 501 484 501 427 501 c 2
EndSplineSet
EndChar

StartChar: Q
Encoding: 81 81 49
Width: 600
Flags: W
HStem: -123 86<414.5 432.5 414.5 440.5> -82 150<253 277.5> -6 21G<334 334> -6 74<334 334> 515 84<341.5 460.5 323 466.5>
VStem: 80 93<205.5 291 205.5 312.5> 540 93<291 383.5>
LayerCount: 2
Fore
SplineSet
502 -7 m 2xae
 544 -74 l 1
 508 -97 467 -123 414 -123 c 0x9e
 379 -123 358 -113 328 -99 c 0
 302 -87 287 -82 268 -82 c 0
 238 -82 216 -89 194 -99 c 0
 184 -103 141 -126 132 -130 c 1
 104 -54 l 1
 140 -37 159 -22 191 8 c 1x4e
 138 29 80 110 80 210 c 0
 80 415 229 599 417 599 c 0
 504 599 633 546 633 366 c 0
 633 214 532 11 334 -6 c 1
 334 -8 l 1
 348 -12 351 -14 382 -28 c 0
 391 -31 406 -37 423 -37 c 0
 442 -37 455 -33 488 -14 c 0
 493 -12 500 -8 502 -7 c 2xae
173 227 m 0
 173 184 185 68 302 68 c 0
 435 68 540 220 540 362 c 0
 540 405 523 515 410 515 c 0
 273 515 173 355 173 227 c 0
EndSplineSet
EndChar

StartChar: R
Encoding: 82 82 50
Width: 600
Flags: MW
HStem: 0 82<46 125 213 281 28 125 503 582> 249 84<265 332 248 333> 501 82<152 213 134 414 301 301 301 408>
VStem: 508 89<427 473.5>
LayerCount: 2
Fore
SplineSet
152 583 m 1
 414 583 l 2
 479 583 597 583 597 448 c 0
 597 382 558 324 510 291 c 0
 483 273 460 265 429 256 c 1
 465 180 482 143 503 82 c 1
 600 82 l 1
 582 0 l 1
 429 0 l 1
 406 86 371 169 332 249 c 1
 248 249 l 1
 213 82 l 1
 301 82 l 1
 281 0 l 1
 28 0 l 1
 46 82 l 1
 125 82 l 1
 213 501 l 1
 134 501 l 1
 152 583 l 1
408 501 m 2
 301 501 l 1
 265 333 l 1
 333 333 l 2
 372 333 424 332 460 359 c 0
 484 377 508 408 508 446 c 0
 508 501 469 501 408 501 c 2
EndSplineSet
EndChar

StartChar: S
Encoding: 83 83 51
Width: 600
Flags: W
HStem: -18 21G<131 131> -14 89<291 362.5 291 403.5> -5 21G<49 49> 516 86<361 426.5> 582 20G<328 427.5> 586 20G<569 569>
VStem: 101 77<179.5 204> 168 91<388.5 440.5 379.5 457.5> 465 91<158.5 213.5>
LayerCount: 2
Fore
SplineSet
569 606 m 1x5580
 645 583 l 1x4980
 602 495 597 466 580 371 c 1
 504 383 l 1
 507 397 510 412 510 432 c 0
 510 504 448 516 405 516 c 0
 317 516 259 468 259 413 c 0x5180
 259 346 325 342 366 339 c 0
 404 337 444 334 484 312 c 0
 520 291 556 255 556 188 c 0
 556 112 497 -14 310 -14 c 0
 219 -14 186 13 151 48 c 1x5280
 131 -18 l 1x9280
 49 -5 l 1x3280
 83 84 90 112 101 204 c 1
 178 204 l 1
 178 155 177 150 183 135 c 0x5280
 203 85 271 75 311 75 c 0
 414 75 465 132 465 185 c 0
 465 242 413 246 347 251 c 0
 291 256 255 269 229 288 c 0
 192 316 168 365 168 412 c 0
 168 503 255 602 401 602 c 0
 454 602 506 586 540 542 c 1x5180
 569 606 l 1x5580
EndSplineSet
EndChar

StartChar: T
Encoding: 84 84 52
Width: 600
Flags: MW
HStem: 0 82<157 273 361 461 139 273> 501 82<236 361 236 236 448 574 448 448>
VStem: 103 570<341 583>
LayerCount: 2
Fore
SplineSet
172 583 m 1
 673 583 l 1
 639 341 l 1
 552 341 l 1
 574 501 l 1
 448 501 l 1
 361 82 l 1
 479 82 l 1
 461 0 l 1
 139 0 l 1
 157 82 l 1
 273 82 l 1
 361 501 l 1
 236 501 l 1
 191 341 l 1
 103 341 l 1
 172 583 l 1
EndSplineSet
EndChar

StartChar: U
Encoding: 85 85 53
Width: 600
Flags: MW
HStem: -16 88<301.5 329> 501 82<138 191 120 395 279 377 279 279 138 438 456 536 622 622 622 691>
VStem: 123 88<108.5 150>
LayerCount: 2
Fore
SplineSet
138 583 m 1
 395 583 l 1
 377 501 l 1
 279 501 l 1
 224 242 l 2
 220 223 211 177 211 145 c 0
 211 72 295 72 308 72 c 0
 447 72 464 156 482 242 c 2
 536 501 l 1
 438 501 l 1
 456 583 l 1
 708 583 l 1
 691 501 l 1
 622 501 l 1
 565 229 l 2
 541 119 518 76 477 43 c 0
 423 -1 356 -16 302 -16 c 0
 209 -16 123 33 123 140 c 0
 123 160 125 188 138 252 c 2
 191 501 l 1
 120 501 l 1
 138 583 l 1
EndSplineSet
EndChar

StartChar: V
Encoding: 86 86 54
Width: 600
Flags: MW
HStem: 0 21G<255 344 255 255> 501 82<116 172 98 363 260 344 260 260 477 547 641 641 641 705>
VStem: 98 625<501 583>
LayerCount: 2
Fore
SplineSet
116 583 m 1
 363 583 l 1
 344 501 l 1
 260 501 l 1
 323 125 l 1
 547 501 l 1
 459 501 l 1
 477 583 l 1
 723 583 l 1
 705 501 l 1
 641 501 l 1
 344 0 l 1
 255 0 l 1
 172 501 l 1
 98 501 l 1
 116 583 l 1
EndSplineSet
EndChar

StartChar: W
Encoding: 87 87 55
Width: 600
Flags: W
HStem: 0 21G<104 185 104 104 406 485 406 406> 451 20G<368 429 429 429> 501 82<112 143 94 342 228 324 228 228 498 575 662 662 662 709>
VStem: 94 633<501 583>
LayerCount: 2
Fore
SplineSet
112 583 m 1
 342 583 l 1
 324 501 l 1
 228 501 l 1xb0
 205 201 l 1
 207 199 l 1
 368 471 l 1
 429 471 l 1xf0
 467 195 l 1
 469 195 l 1
 575 501 l 1
 480 501 l 1
 498 583 l 1
 727 583 l 1
 709 501 l 1
 662 501 l 1
 485 0 l 1
 406 0 l 1
 363 311 l 1
 361 311 l 1
 185 0 l 1
 104 0 l 1
 143 501 l 1
 94 501 l 1
 112 583 l 1
EndSplineSet
EndChar

StartChar: X
Encoding: 88 88 56
Width: 600
Flags: MW
HStem: 0 82<34 90 201 263 16 90 355 427 528 573> 236 21G<348 348> 501 82<159 206 141 387 307 368 307 307 159 443 461 493 604 604 604 660>
VStem: 16 662<0 583>
LayerCount: 2
Fore
SplineSet
159 583 m 1
 387 583 l 1
 368 501 l 1
 307 501 l 1
 373 371 l 1
 493 501 l 1
 443 501 l 1
 461 583 l 1
 678 583 l 1
 660 501 l 1
 604 501 l 1
 411 302 l 1
 528 82 l 1
 591 82 l 1
 573 0 l 1
 337 0 l 1
 355 82 l 1
 427 82 l 1
 348 236 l 1
 201 82 l 1
 281 82 l 1
 263 0 l 1
 16 0 l 1
 34 82 l 1
 90 82 l 1
 307 309 l 1
 206 501 l 1
 141 501 l 1
 159 583 l 1
EndSplineSet
EndChar

StartChar: Y
Encoding: 89 89 57
Width: 600
Flags: MW
HStem: 0 82<154 270 357 452 138 270> 501 82<138 194 121 369 290 351 290 290 471 509 613 613 613 680>
VStem: 121 577<501 583>
LayerCount: 2
Fore
SplineSet
138 583 m 1
 369 583 l 1
 351 501 l 1
 290 501 l 1
 361 317 l 1
 509 501 l 1
 452 501 l 1
 471 583 l 1
 698 583 l 1
 680 501 l 1
 613 501 l 1
 386 220 l 1
 357 82 l 1
 471 82 l 1
 452 0 l 1
 138 0 l 1
 154 82 l 1
 270 82 l 1
 300 229 l 1
 194 501 l 1
 121 501 l 1
 138 583 l 1
EndSplineSet
EndChar

StartChar: Z
Encoding: 90 90 58
Width: 600
Flags: MW
HStem: 0 82<204 456 204 523> 501 82<264 482 264 264>
VStem: 66 559
LayerCount: 2
Fore
SplineSet
196 583 m 1
 625 583 l 1
 610 513 l 1
 204 82 l 1
 456 82 l 1
 489 241 l 1
 574 241 l 1
 523 0 l 1
 66 0 l 1
 81 74 l 1
 482 501 l 1
 264 501 l 1
 234 358 l 1
 148 358 l 1
 196 583 l 1
EndSplineSet
EndChar

StartChar: bracketleft
Encoding: 91 91 59
Width: 600
Flags: MW
HStem: -91 87<371 474> 585 87<496 617 496 496>
VStem: 264 372
LayerCount: 2
Fore
SplineSet
426 672 m 1
 636 672 l 1
 617 585 l 1
 496 585 l 1
 371 -4 l 1
 492 -4 l 1
 474 -91 l 1
 264 -91 l 1
 426 672 l 1
EndSplineSet
EndChar

StartChar: backslash
Encoding: 92 92 60
Width: 600
Flags: MW
HStem: -134 869<298 419>
VStem: 216 285
LayerCount: 2
Fore
SplineSet
298 735 m 1
 501 -100 l 1
 419 -134 l 1
 216 702 l 1
 298 735 l 1
EndSplineSet
EndChar

StartChar: bracketright
Encoding: 93 93 61
Width: 600
Flags: MW
HStem: -91 87<94 215 94 285 75 215> 585 87<237 340 219 447>
VStem: 75 372
LayerCount: 2
Fore
SplineSet
285 -91 m 1
 75 -91 l 1
 94 -4 l 1
 215 -4 l 1
 340 585 l 1
 219 585 l 1
 237 672 l 1
 447 672 l 1
 285 -91 l 1
EndSplineSet
EndChar

StartChar: asciicircum
Encoding: 94 94 62
Width: 600
Flags: W
HStem: 481 102<362 362> 563 20G<295 429 429 429>
VStem: 128 474<153 153>
LayerCount: 2
Fore
SplineSet
602 153 m 1x60
 495 153 l 1
 362 481 l 1xa0
 235 153 l 1
 128 153 l 1
 295 583 l 1
 429 583 l 1
 602 153 l 1x60
EndSplineSet
EndChar

StartChar: underscore
Encoding: 95 95 63
Width: 600
Flags: MW
HStem: -125 50<-48 648 -48 648>
VStem: -48 696<-125 -75 -125 -75>
LayerCount: 2
Fore
SplineSet
-48 -75 m 1
 648 -75 l 1
 648 -125 l 1
 -48 -125 l 1
 -48 -75 l 1
EndSplineSet
EndChar

StartChar: quoteleft
Encoding: 96 8216 64
Width: 600
Flags: W
HStem: 309 274<219 509 219 509> 563 20G<399 509 509 509>
VStem: 219 290<309 583>
LayerCount: 2
Fore
SplineSet
365 309 m 1xe0
 219 309 l 1
 399 583 l 1
 509 583 l 1
 365 309 l 1xe0
EndSplineSet
EndChar

StartChar: a
Encoding: 97 97 65
Width: 600
Flags: W
HStem: -14 86<209.5 254 209.5 254> 0 82<489 557> 223 84<259.5 350.5> 388 86<347 386>
VStem: 70 91<106.5 136.5 106.5 159> 451 91<344 363.5>
LayerCount: 2
Fore
SplineSet
535 301 m 2x7c
 489 82 l 1
 575 82 l 1
 557 0 l 1
 382 0 l 1x7c
 390 36 l 1
 350 16 290 -14 218 -14 c 0xbc
 128 -14 70 47 70 119 c 0
 70 199 148 307 332 307 c 0
 376 307 408 303 447 298 c 1
 447 313 447 314 449 327 c 0
 450 335 451 342 451 345 c 0
 451 382 399 388 373 388 c 0
 321 388 262 371 213 352 c 0
 196 345 194 345 184 341 c 1
 166 424 l 1
 173 426 174 427 181 429 c 0
 184 431 187 432 188 432 c 0
 235 449 303 474 384 474 c 0
 471 474 542 433 542 354 c 0
 542 334 536 307 535 301 c 2x7c
413 146 m 1xbc
 428 215 l 1
 398 219 370 223 331 223 c 0
 188 223 161 150 161 123 c 0
 161 90 196 72 223 72 c 0
 285 72 377 119 413 146 c 1xbc
EndSplineSet
EndChar

StartChar: b
Encoding: 98 98 66
Width: 600
Flags: W
HStem: -9 86<293.5 374.5 293.5 393> 0 82<19 97 19 165 1 97> 372 86<376.5 428> 554 94
VStem: 508 93<216 299.5>
LayerCount: 2
Fore
SplineSet
124 638 m 1x78
 303 648 l 1
 252 408 l 1
 297 438 349 458 404 458 c 0
 506 458 601 389 601 266 c 0
 601 126 466 -9 320 -9 c 0
 240 -9 192 31 176 48 c 1xb8
 165 0 l 1
 1 0 l 1
 19 82 l 1
 97 82 l 1
 197 556 l 1
 111 552 l 1
 124 638 l 1x78
403 372 m 0
 294 372 209 275 209 188 c 0
 209 118 261 77 326 77 c 0
 423 77 508 170 508 262 c 0
 508 337 453 372 403 372 c 0
EndSplineSet
EndChar

StartChar: c
Encoding: 99 99 67
Width: 600
Flags: W
HStem: -14 86<298 343 298 353.5> 383 86<331.5 407.5> 439 20G<618 618> 453 20G<548 548>
VStem: 97 92<133 232.5 133 256.5> 501 78<272 348>
LayerCount: 2
Fore
SplineSet
548 473 m 1xd8
 618 459 l 1xac
 590 393 582 350 579 272 c 1
 499 261 l 1
 501 298 501 304 501 314 c 0
 501 382 418 383 397 383 c 0
 266 383 189 279 189 186 c 0
 189 80 287 72 309 72 c 0
 377 72 443 106 520 154 c 1
 557 79 l 1
 494 40 407 -14 300 -14 c 0
 205 -14 97 43 97 182 c 0
 97 331 231 469 394 469 c 0
 479 469 514 433 528 418 c 1xcc
 548 473 l 1xd8
EndSplineSet
EndChar

StartChar: d
Encoding: 100 100 68
Width: 600
Flags: W
HStem: -10 86<256.5 309.5> 0 82<523 586> 371 86<309.5 385> 628 20G<642 642>
VStem: 82 93<146 234.5 146 254>
LayerCount: 2
Fore
SplineSet
398 626 m 1x78
 642 648 l 1
 523 82 l 1
 604 82 l 1
 586 0 l 1
 417 0 l 1x78
 425 38 l 1
 395 17 343 -10 276 -10 c 0xb8
 150 -10 82 85 82 180 c 0
 82 328 220 457 362 457 c 0
 418 457 462 439 503 402 c 1
 534 551 l 1
 370 539 l 1
 398 626 l 1x78
467 257 m 0
 467 341 410 371 360 371 c 0
 259 371 175 283 175 186 c 0
 175 106 235 76 278 76 c 0xb8
 389 76 467 178 467 257 c 0
EndSplineSet
EndChar

StartChar: e
Encoding: 101 101 69
Width: 600
Flags: MW
HStem: -14 88<256 356 256 362.5> 196 82<216 511 216 582 190 511> 383 86<337 450.5>
VStem: 99 91<196 196 196 251> 511 91<278 278>
LayerCount: 2
Fore
SplineSet
545 139 m 1
 570 58 l 1
 517 32 411 -14 314 -14 c 0
 180 -14 99 61 99 178 c 0
 99 324 225 469 398 469 c 0
 538 469 602 381 602 290 c 0
 602 264 597 243 588 215 c 2
 582 196 l 1
 190 196 l 1
 191 157 193 74 319 74 c 0
 393 74 463 103 545 139 c 1
216 278 m 1
 511 278 l 1
 510 301 509 383 392 383 c 0
 282 383 232 304 216 278 c 1
EndSplineSet
EndChar

StartChar: f
Encoding: 102 102 70
Width: 600
Flags: W
HStem: 0 82<96 198 286 444 78 198> 359 84<172 255 154 273 362 523 172 344> 559 84<423.5 482.5> 623 20G<404.5 483.5>
VStem: 78 570
LayerCount: 2
Fore
SplineSet
172 443 m 1xe8
 273 443 l 1
 282 484 l 2
 299 562 328 643 481 643 c 0xe8
 486 643 563 643 648 625 c 1xd8
 604 540 l 1
 562 548 503 559 462 559 c 0
 385 559 380 525 368 471 c 2
 362 443 l 1
 541 443 l 1
 523 359 l 1
 344 359 l 1
 286 82 l 1
 462 82 l 1
 444 0 l 1
 78 0 l 1
 96 82 l 1
 198 82 l 1
 255 359 l 1
 154 359 l 1
 172 443 l 1xe8
EndSplineSet
EndChar

StartChar: g
Encoding: 103 103 71
Width: 600
Flags: W
HStem: -149 86<221 261 221 342> 11 86<241 300> 371 82<558 637 558 558> 373 86<300 375>
VStem: 76 93<169 243.5 169 261>
LayerCount: 2
Fore
SplineSet
488 453 m 1xe8
 655 453 l 1
 637 371 l 1
 558 371 l 1xe8
 488 43 l 2
 475 -18 446 -149 238 -149 c 0
 194 -149 159 -145 132 -141 c 1
 151 -54 l 1
 177 -59 201 -63 241 -63 c 0
 281 -63 373 -62 395 23 c 2
 403 54 l 1
 384 42 337 11 263 11 c 0
 151 11 76 91 76 193 c 0
 76 329 204 459 352 459 c 0
 419 459 458 426 478 409 c 1xd8
 488 453 l 1xe8
269 97 m 0
 369 97 445 185 445 274 c 0
 445 329 403 373 347 373 c 0xd8
 253 373 169 287 169 200 c 0
 169 138 213 97 269 97 c 0
EndSplineSet
EndChar

StartChar: h
Encoding: 104 104 72
Width: 600
Flags: W
HStem: 0 82<37 119 207 269 21 119 344 428 517 579> 380 88<392 434.5> 552 96 614 20G<140 140> 628 20G<328 328>
VStem: 479 86<327.5 350>
LayerCount: 2
Fore
SplineSet
140 634 m 1xdc
 328 648 l 1
 279 420 l 1
 301 433 360 468 424 468 c 0
 498 468 565 415 565 335 c 0
 565 312 559 285 558 280 c 2
 517 82 l 1
 598 82 l 1
 579 0 l 1
 328 0 l 1
 344 82 l 1
 428 82 l 1
 471 287 l 2
 473 293 479 319 479 336 c 0
 479 364 447 380 422 380 c 0
 357 380 280 325 255 307 c 1
 207 82 l 1
 287 82 l 1
 269 0 l 1
 21 0 l 1
 37 82 l 1
 119 82 l 1
 220 555 l 1
 130 549 l 1xe4
 140 634 l 1xdc
EndSplineSet
EndChar

StartChar: i
Encoding: 105 105 73
Width: 600
Flags: W
HStem: 0 82<103 273 361 510 85 273> 371 82<209 334 191 440> 540 132<352 486 380 459>
VStem: 85 443<0 82> 352 134<540 672>
LayerCount: 2
Fore
SplineSet
209 453 m 1xf0
 440 453 l 1
 361 82 l 1
 528 82 l 1
 510 0 l 1
 85 0 l 1
 103 82 l 1
 273 82 l 1
 334 371 l 1
 191 371 l 1
 209 453 l 1xf0
352 540 m 1x28
 380 672 l 1
 486 672 l 1
 459 540 l 1
 352 540 l 1x28
EndSplineSet
EndChar

StartChar: j
Encoding: 106 106 74
Width: 600
Flags: W
HStem: -146 86<167.5 248 167.5 274> 371 82<166 392 148 501> 540 132<392 527 420 499>
VStem: 22 505 392 135<540 672>
LayerCount: 2
Fore
SplineSet
166 453 m 1xf0
 501 453 l 1
 417 57 l 2
 406 6 373 -146 175 -146 c 0
 115 -146 63 -134 22 -124 c 1
 61 -41 l 1
 96 -49 143 -60 192 -60 c 0
 304 -60 320 11 331 65 c 2
 392 371 l 1
 148 371 l 1
 166 453 l 1xf0
392 540 m 1x28
 420 672 l 1
 527 672 l 1
 499 540 l 1
 392 540 l 1x28
EndSplineSet
EndChar

StartChar: k
Encoding: 107 107 75
Width: 600
Flags: W
HStem: 0 82<21 101 21 171 3 101 314 355 459 536> 371 82<348 362 329 597 503 503 503 579> 551 97 613 20G<121 121> 628 20G<309 309>
VStem: 3 594<0 453>
LayerCount: 2
Fore
SplineSet
121 633 m 1xdc
 309 648 l 1
 233 295 l 1
 362 369 l 1
 362 371 l 1
 329 371 l 1
 348 453 l 1
 597 453 l 1
 579 371 l 1
 503 371 l 1
 329 260 l 1
 394 179 422 143 459 82 c 1
 554 82 l 1
 536 0 l 1
 296 0 l 1
 314 82 l 1
 355 82 l 1
 314 139 296 163 254 212 c 1
 210 183 l 1
 171 0 l 1
 3 0 l 1
 21 82 l 1
 101 82 l 1
 201 555 l 1
 111 547 l 1xe4
 121 633 l 1xdc
EndSplineSet
EndChar

StartChar: l
Encoding: 108 108 76
Width: 600
Flags: MW
HStem: 0 82<100 269 355 506 82 269> 535.5 95.5
VStem: 82 442<0 82>
LayerCount: 2
Fore
SplineSet
217 615 m 1
 471 631 l 1
 355 82 l 1
 524 82 l 1
 506 0 l 1
 82 0 l 1
 100 82 l 1
 269 82 l 1
 366 541 l 1
 208 530 l 1
 217 615 l 1
EndSplineSet
EndChar

StartChar: m
Encoding: 109 109 77
Width: 600
Flags: W
HStem: 0 82<13 72 156 207 -5 72 361 403 565 594> 371 82<91 131 72 232> 379 86<300 309 486.5 512.5>
VStem: 531 88<350 355>
LayerCount: 2
Fore
SplineSet
91 453 m 1xd0
 232 453 l 1xd0
 226 425 l 1
 255 447 281 465 319 465 c 0
 372 465 389 433 398 417 c 1
 418 432 460 465 513 465 c 0
 576 465 619 420 619 365 c 0
 619 335 609 291 607 281 c 2
 565 82 l 1
 612 82 l 1
 594 0 l 1
 460 0 l 1
 521 284 l 2
 521 288 531 331 531 350 c 0
 531 360 525 379 500 379 c 0
 462 379 424 338 412 326 c 1
 361 82 l 1
 421 82 l 1
 403 0 l 1
 257 0 l 1
 318 288 l 2
 321 304 327 329 327 344 c 0
 327 354 321 379 297 379 c 0
 260 379 224 342 207 326 c 1xb0
 156 82 l 1
 226 82 l 1
 207 0 l 1
 -5 0 l 1
 13 82 l 1
 72 82 l 1
 131 371 l 1
 72 371 l 1
 91 453 l 1xd0
EndSplineSet
EndChar

StartChar: n
Encoding: 110 110 78
Width: 600
Flags: W
HStem: 0 82<34 113 203 266 16 113 340 425 513 576> 371 82<113 175 95 283> 380 88<400.5 431.5>
VStem: 475 86<327.5 348.5>
LayerCount: 2
Fore
SplineSet
113 453 m 1xd0
 283 453 l 1xd0
 274 420 l 1
 332 453 379 468 422 468 c 0
 490 468 561 420 561 335 c 0
 561 313 556 285 554 280 c 2
 513 82 l 1
 594 82 l 1
 576 0 l 1
 324 0 l 1
 340 82 l 1
 425 82 l 1
 468 287 l 2
 469 292 475 320 475 335 c 0
 475 362 447 380 416 380 c 0
 385 380 341 372 251 309 c 1xb0
 203 82 l 1
 283 82 l 1
 266 0 l 1
 16 0 l 1
 34 82 l 1
 113 82 l 1
 175 371 l 1
 95 371 l 1
 113 453 l 1xd0
EndSplineSet
EndChar

StartChar: o
Encoding: 111 111 79
Width: 600
Flags: MW
HStem: -14 86<256 368.5 256 393.5> 388 86<316 430.5>
VStem: 79 93<157 233 157 251> 514 93<226 301>
LayerCount: 2
Fore
SplineSet
391 474 m 0
 517 474 607 402 607 277 c 0
 607 142 491 -14 296 -14 c 0
 175 -14 79 52 79 183 c 0
 79 319 194 474 391 474 c 0
384 388 m 0
 248 388 172 278 172 188 c 0
 172 126 209 72 303 72 c 0
 434 72 514 181 514 271 c 0
 514 331 477 388 384 388 c 0
EndSplineSet
EndChar

StartChar: p
Encoding: 112 112 80
Width: 600
Flags: W
HStem: -152 82<-11 68 156 283 -29 68> -7 86<300 376.5 300 411> 371 82<100 161 82 267> 381 86<377 444>
VStem: 516 91<223.5 303>
LayerCount: 2
Fore
SplineSet
100 453 m 1xe8
 267 453 l 1xe8
 260 419 l 1
 295 441 342 467 412 467 c 0xd8
 550 467 607 364 607 276 c 0
 607 152 494 -7 328 -7 c 0
 241 -7 202 31 181 51 c 1
 156 -70 l 1
 300 -70 l 1
 283 -152 l 1
 -29 -152 l 1
 -11 -70 l 1
 68 -70 l 1
 161 371 l 1
 82 371 l 1
 100 453 l 1xe8
409 381 m 0xd8
 299 381 211 289 211 191 c 0
 211 120 273 79 327 79 c 0
 426 79 516 175 516 272 c 0
 516 334 479 381 409 381 c 0xd8
EndSplineSet
EndChar

StartChar: q
Encoding: 113 113 81
Width: 600
Flags: W
HStem: -148 82<261 405 492 554 243 405> -8 86<242 314> 371 82<584 664 584 584> 379 86<304 371 288.5 386>
VStem: 78 91<161.5 234.5 161.5 256.5>
LayerCount: 2
Fore
SplineSet
515 453 m 1xe8
 682 453 l 1
 664 371 l 1
 584 371 l 1xe8
 492 -66 l 1
 572 -66 l 1
 554 -148 l 1
 243 -148 l 1
 261 -66 l 1
 405 -66 l 1
 427 42 l 1
 407 28 354 -8 274 -8 c 0
 148 -8 78 86 78 185 c 0
 78 328 214 465 363 465 c 0
 379 465 450 465 505 408 c 1xd8
 515 453 l 1xe8
275 78 m 0
 376 78 473 161 473 267 c 0
 473 340 417 379 355 379 c 0xd8
 253 379 169 276 169 193 c 0
 169 130 209 78 275 78 c 0
EndSplineSet
EndChar

StartChar: r
Encoding: 114 114 82
Width: 600
Flags: W
HStem: 0 82<75 196 283 449 57 196> 331 21G<645 645> 371 82<162 257 144 362> 378 86<490 522.5>
VStem: 57 588<0 331>
LayerCount: 2
Fore
SplineSet
162 453 m 1xe8
 362 453 l 1xe8
 350 399 l 1
 352 397 l 1
 412 454 471 464 509 464 c 0
 624 464 641 354 645 331 c 1
 553 319 l 1
 549 343 543 378 502 378 c 0xd8
 429 378 351 289 319 252 c 1
 283 82 l 1
 467 82 l 1
 449 0 l 1
 57 0 l 1
 75 82 l 1
 196 82 l 1
 257 371 l 1
 144 371 l 1
 162 453 l 1xe8
EndSplineSet
EndChar

StartChar: s
Encoding: 115 115 83
Width: 600
Flags: W
HStem: -15 21G<159 159> -11 86<311 350 311 380> -4 21G<81 81> 383 86<330 372 309.5 382> 446 20G<590 590> 456 20G<520 520>
VStem: 117 80<169 169> 154 91<302 331.5 302 353.5> 459 91<128 160.5> 477 76<298 332>
LayerCount: 2
Fore
SplineSet
520 476 m 1x5580
 590 466 l 1x4940
 560 378 555 338 553 298 c 1
 475 298 l 1
 477 306 477 311 477 321 c 0
 477 343 474 356 454 367 c 0
 436 377 396 383 368 383 c 0
 292 383 245 347 245 316 c 0x5140
 245 288 272 278 355 273 c 0
 437 268 550 263 550 157 c 0
 550 60 440 -11 320 -11 c 0
 268 -11 216 2 175 36 c 1x5280
 159 -15 l 1x9280
 81 -4 l 1x3280
 106 63 113 104 117 169 c 1
 197 174 l 1
 197 141 197 137 200 126 c 0x5280
 214 75 307 75 315 75 c 0
 385 75 459 102 459 154 c 0
 459 167 459 180 386 184 c 0
 382 184 358 185 353 186 c 0
 285 189 154 197 154 309 c 0
 154 398 251 469 368 469 c 0
 376 469 458 469 502 425 c 1x5180
 520 476 l 1x5580
EndSplineSet
EndChar

StartChar: t
Encoding: 116 116 84
Width: 600
Flags: MW
HStem: -14 86<323 353.5 323 355.5> 357 84<180 229 162 246 334 531 180 316> 563 20G<276 363 363 363>
VStem: 179 88<94 110.5>
LayerCount: 2
Fore
SplineSet
276 583 m 1
 363 583 l 1
 334 441 l 1
 548 441 l 1
 531 357 l 1
 316 357 l 1
 279 189 l 2
 274 164 267 132 267 115 c 0
 267 73 318 72 328 72 c 0
 379 72 419 84 557 138 c 1
 557 47 l 1
 458 5 385 -14 326 -14 c 0
 228 -14 179 47 179 101 c 0
 179 120 182 137 195 198 c 2
 229 357 l 1
 162 357 l 1
 180 441 l 1
 246 441 l 1
 276 583 l 1
EndSplineSet
EndChar

StartChar: u
Encoding: 117 117 85
Width: 600
Flags: W
HStem: -14 86<247 294 247 302.5> 0 82<502 562> 371 82<113 174 96 281 410 474>
VStem: 127 88<118.5 135 118.5 138>
LayerCount: 2
Fore
SplineSet
113 453 m 1x70
 281 453 l 1
 221 175 l 2
 220 169 215 144 215 126 c 0
 215 111 225 72 269 72 c 0
 319 72 376 100 427 149 c 1xb0
 474 371 l 1
 392 371 l 1
 410 453 l 1
 580 453 l 1
 502 82 l 1
 580 82 l 1
 562 0 l 1
 396 0 l 1x70
 404 30 l 1
 382 16 338 -14 267 -14 c 0xb0
 150 -14 127 85 127 127 c 0
 127 149 133 178 134 183 c 2
 174 371 l 1
 96 371 l 1
 113 453 l 1x70
EndSplineSet
EndChar

StartChar: v
Encoding: 118 118 86
Width: 600
Flags: MW
HStem: 0 21G<261 334 261 261> 371 82<102 166 84 348 261 330 261 261 102 427 445 489 587 587 587 663>
VStem: 84 597<371 453>
LayerCount: 2
Fore
SplineSet
102 453 m 1
 348 453 l 1
 330 371 l 1
 261 371 l 1
 322 123 l 1
 489 371 l 1
 427 371 l 1
 445 453 l 1
 681 453 l 1
 663 371 l 1
 587 371 l 1
 334 0 l 1
 261 0 l 1
 166 371 l 1
 84 371 l 1
 102 453 l 1
EndSplineSet
EndChar

StartChar: w
Encoding: 119 119 87
Width: 600
Flags: MW
HStem: 0 21G<144 220 144 144 374 454 374 374> 371 82<84 113 66 296 203 278 203 203 84 408 495 549 640 640 640 681>
VStem: 66 633<371 453>
LayerCount: 2
Fore
SplineSet
84 453 m 1
 296 453 l 1
 278 371 l 1
 203 371 l 1
 219 161 l 1
 221 161 l 1
 346 371 l 1
 408 371 l 1
 440 157 l 1
 442 157 l 1
 549 371 l 1
 477 371 l 1
 495 453 l 1
 699 453 l 1
 681 371 l 1
 640 371 l 1
 454 0 l 1
 374 0 l 1
 343 211 l 1
 341 211 l 1
 220 0 l 1
 144 0 l 1
 113 371 l 1
 66 371 l 1
 84 453 l 1
EndSplineSet
EndChar

StartChar: x
Encoding: 120 120 88
Width: 600
Flags: W
HStem: 0 82<28 95 222 247 10 95 361 406 521 580> 233 21G<402 402> 240 21G<283 283> 371 82<121 180 103 348 294 330 294 294 121 410 428 446 571 571 571 634>
VStem: 10 642<0 453>
LayerCount: 2
Fore
SplineSet
121 453 m 1xb8
 348 453 l 1
 330 371 l 1
 294 371 l 1
 352 296 l 1
 446 369 l 1
 446 371 l 1
 410 371 l 1
 428 453 l 1
 652 453 l 1
 634 371 l 1
 571 371 l 1
 402 233 l 1xd8
 521 82 l 1
 598 82 l 1
 580 0 l 1
 343 0 l 1
 361 82 l 1
 406 82 l 1
 334 178 l 1
 222 82 l 1
 265 82 l 1
 247 0 l 1
 10 0 l 1
 28 82 l 1
 95 82 l 1
 283 240 l 1
 180 371 l 1
 103 371 l 1
 121 453 l 1xb8
EndSplineSet
EndChar

StartChar: y
Encoding: 121 121 89
Width: 600
Flags: MW
HStem: -157 86<233.5 320.5 233.5 351> 15 86<274.5 304 274.5 316> 371 82<112 169 95 351 258 258 258 333 112 403 421 481 569 649 569 569>
VStem: 132 88<148.5 179.5 148.5 185>
LayerCount: 2
Fore
SplineSet
421 453 m 1
 667 453 l 1
 649 371 l 1
 569 371 l 1
 502 55 l 2
 485 -24 457 -157 245 -157 c 0
 197 -157 157 -150 127 -145 c 1
 147 -54 l 1
 174 -61 210 -71 257 -71 c 0
 384 -71 399 -5 415 60 c 1
 392 45 349 15 283 15 c 0
 196 15 132 74 132 176 c 0
 132 194 136 214 137 222 c 2
 169 371 l 1
 95 371 l 1
 112 453 l 1
 351 453 l 1
 333 371 l 1
 258 371 l 1
 224 210 l 2
 221 194 220 182 220 177 c 0
 220 120 256 101 293 101 c 0
 315 101 356 105 442 188 c 1
 481 371 l 1
 403 371 l 1
 421 453 l 1
EndSplineSet
EndChar

StartChar: z
Encoding: 122 122 90
Width: 600
Flags: MW
HStem: 0 82<240 435 240 504> 371 82<260 444 260 260>
VStem: 84 517<0 453>
LayerCount: 2
Fore
SplineSet
191 453 m 1
 601 453 l 1
 586 382 l 1
 240 82 l 1
 435 82 l 1
 454 174 l 1
 541 174 l 1
 504 0 l 1
 84 0 l 1
 100 75 l 1
 444 371 l 1
 260 371 l 1
 240 284 l 1
 155 284 l 1
 191 453 l 1
EndSplineSet
EndChar

StartChar: braceleft
Encoding: 123 123 91
Width: 600
Flags: W
HStem: -92 87<406 451>
VStem: 279 89<17.5 38 17.5 41> 339 91<210.5 227.5 210.5 227.5> 379 90<408.5 473.5>
LayerCount: 2
Fore
SplineSet
613 669 m 1x90
 595 582 l 1
 484 580 469 567 469 451 c 0
 469 366 468 336 404 285 c 0x90
 402 283 421 257 424 254 c 0
 430 246 430 230 430 225 c 0xa0
 430 196 424 179 412 150 c 0
 399 120 368 49 368 27 c 0
 368 8 376 -5 436 -5 c 0
 453 -6 455 -6 468 -6 c 1
 451 -92 l 1
 395 -93 279 -96 279 22 c 0xd0
 279 60 290 87 316 145 c 0
 318 151 339 199 339 216 c 0
 339 239 308 242 264 247 c 1xa0
 282 331 l 1
 371 341 379 362 379 437 c 0
 379 510 379 537 400 577 c 0
 424 623 476 669 567 669 c 2
 613 669 l 1x90
EndSplineSet
EndChar

StartChar: bar
Encoding: 124 124 92
Width: 600
Flags: MW
HStem: -184 857<315 414 315 414>
VStem: 315 99<-184 673 -184 673>
LayerCount: 2
Fore
SplineSet
414 673 m 1
 414 -184 l 1
 315 -184 l 1
 315 673 l 1
 414 673 l 1
EndSplineSet
EndChar

StartChar: braceright
Encoding: 125 125 93
Width: 600
Flags: W
HStem: -92 87<117 146 99 175.5> 582 87<261 298.5>
VStem: 243 89 282 90<350 366> 343 89<539.5 563.5>
LayerCount: 2
Fore
SplineSet
447 330 m 1xf0
 429 246 l 2xd0
 426 246 412 244 410 244 c 0
 332 235 332 195 332 140 c 0
 332 68 332 40 311 0 c 0
 289 -43 241 -92 146 -92 c 2
 99 -92 l 1
 117 -5 l 1
 234 -5 242 18 243 126 c 0
 244 204 243 244 307 292 c 0xe0
 309 294 291 319 288 323 c 0
 282 331 282 347 282 351 c 0
 282 381 287 398 299 426 c 2xd0
 314 461 l 2
 334 507 343 530 343 549 c 0
 343 578 310 582 287 582 c 0
 286 582 257 583 243 583 c 1
 261 669 l 1
 319 670 432 672 432 555 c 0xe8
 432 518 422 493 396 432 c 0
 393 428 372 379 372 362 c 0
 372 338 402 335 447 330 c 1xf0
EndSplineSet
EndChar

StartChar: asciitilde
Encoding: 126 126 94
Width: 600
Flags: W
HStem: 216 196 238 102<456.5 478.5 456.5 497.5>
VStem: 152 444<285 345>
LayerCount: 2
Fore
SplineSet
537 412 m 1xe0
 596 345 l 1
 592 339 l 2
 567 297 531 238 464 238 c 0
 437 238 422 246 369 268 c 0
 342 279 302 295 288 295 c 0
 259 295 242 272 218 229 c 2
 212 216 l 1
 152 285 l 1
 156 291 l 2
 181 335 217 397 288 397 c 0
 301 397 323 397 394 366 c 0
 434 348 449 340 464 340 c 0
 493 340 510 368 537 412 c 1xe0
EndSplineSet
EndChar

StartChar: exclamdown
Encoding: 161 161 95
Width: 600
Flags: W
HStem: -133 404<336 353 231 419> 317 157<388 419.5> 454 20G<388 437>
VStem: 231 188 316 175<382 409>
LayerCount: 2
Fore
SplineSet
353 -133 m 1xb8
 231 -133 l 1
 336 271 l 1
 419 271 l 1
 353 -133 l 1xb8
393 317 m 0x48
 347 317 316 347 316 386 c 0
 316 432 361 474 415 474 c 0
 459 474 491 445 491 405 c 0
 491 359 446 317 393 317 c 0x48
EndSplineSet
EndChar

StartChar: cent
Encoding: 162 162 96
Width: 600
Flags: MW
HStem: 440 20G<507 507> 611 20G<401 471 471 471>
VStem: 155 85<224.5 283 224.5 313.5> 490 75<318 337>
LayerCount: 2
Fore
SplineSet
401 631 m 1
 471 631 l 1
 443 497 l 1
 467 491 482 484 507 460 c 1
 526 517 l 1
 605 497 l 1
 575 423 567 401 565 337 c 1
 490 318 l 1
 496 387 481 403 425 414 c 1
 373 175 l 1
 448 191 494 222 521 240 c 1
 550 163 l 1
 517 141 444 93 355 82 c 1
 326 -54 l 1
 255 -54 l 1
 286 90 l 1
 231 96 155 149 155 253 c 0
 155 374 256 481 373 497 c 1
 401 631 l 1
304 173 m 1
 355 408 l 1
 273 386 240 308 240 258 c 0
 240 191 284 179 304 173 c 1
EndSplineSet
EndChar

StartChar: sterling
Encoding: 163 163 97
Width: 600
Flags: W
HStem: -20 21G<155 155> -6 86<408.5 434 408.5 453> 26 84 297 84<155 234 155 244 136 234 332 521 332 332> 550 86<378.5 454.5 373 469> 606 20G<606 606>
VStem: 232 88<417.5 444.5 417.5 490.5> 244 88<297 297> 512 80<453 532>
LayerCount: 2
Fore
SplineSet
155 381 m 1x5a80
 234 381 l 1
 234 387 232 410 232 425 c 0
 232 556 315 636 431 636 c 0
 478 636 499 625 521 613 c 1
 526 626 528 629 530 635 c 1x5a80
 606 626 l 1x5680
 595 566 592 553 592 511 c 0
 592 489 593 475 593 453 c 1
 512 453 l 1
 509 510 507 550 431 550 c 0
 326 550 320 464 320 425 c 0
 320 410 321 394 322 381 c 1x5a80
 540 381 l 1
 521 297 l 1
 332 297 l 1
 334 237 314 175 272 110 c 1x3980
 299 112 321 111 369 92 c 0
 393 82 402 80 415 80 c 0
 453 80 470 105 490 135 c 1
 555 76 l 1
 529 42 493 -6 413 -6 c 0x5980
 384 -6 354 4 346 7 c 0
 307 24 299 26 278 26 c 0
 242 26 220 15 155 -20 c 1
 113 55 l 1
 208 130 246 216 244 297 c 1xb980
 136 297 l 1
 155 381 l 1x5a80
EndSplineSet
EndChar

StartChar: fraction
Encoding: 164 8260 98
Width: 600
Flags: MW
HStem: -5 21G<52 52> 628 20G<565 565>
VStem: 10 601<34 611>
LayerCount: 2
Fore
SplineSet
565 648 m 1
 611 611 l 1
 52 -5 l 1
 10 34 l 1
 565 648 l 1
EndSplineSet
EndChar

StartChar: yen
Encoding: 165 165 99
Width: 600
Flags: MW
HStem: 0 82<160 273 360 460 143 273> 138 64<160 288 143 301 385 510> 250 64<183 311 166 321 416 533> 530 82<150 202 132 379 301 301 301 360 150 460 478 528 622 622 622 689>
VStem: 132 575<530 612>
LayerCount: 2
Fore
SplineSet
374 138 m 1
 360 82 l 1
 478 82 l 1
 460 0 l 1
 143 0 l 1
 160 82 l 1
 273 82 l 1
 288 138 l 1
 143 138 l 1
 160 202 l 1
 301 202 l 1
 311 250 l 1
 166 250 l 1
 183 314 l 1
 321 314 l 1
 202 530 l 1
 132 530 l 1
 150 612 l 1
 379 612 l 1
 360 530 l 1
 301 530 l 1
 385 366 l 1
 528 530 l 1
 460 530 l 1
 478 612 l 1
 707 612 l 1
 689 530 l 1
 622 530 l 1
 416 314 l 1
 550 314 l 1
 533 250 l 1
 398 250 l 1
 385 202 l 1
 528 202 l 1
 510 138 l 1
 374 138 l 1
EndSplineSet
EndChar

StartChar: florin
Encoding: 166 402 100
Width: 600
Flags: MW
HStem: -95 86<76 124.5 76 136.5> 396 84<253 321 218 354 445 513 253 412> 594 86<527.5 570.5>
VStem: -12 676
LayerCount: 2
Fore
SplineSet
253 480 m 1
 354 480 l 1
 372 526 l 2
 396 588 432 680 587 680 c 0
 618 680 645 675 664 672 c 1
 611 583 l 1
 598 588 582 594 559 594 c 0
 496 594 480 561 454 501 c 2
 445 480 l 1
 549 480 l 1
 513 396 l 1
 412 396 l 1
 281 59 l 2
 253 -14 213 -95 60 -95 c 0
 18 -95 7 -92 -12 -88 c 1
 41 0 l 1
 54 -5 65 -9 87 -9 c 0
 162 -9 176 26 198 82 c 2
 321 396 l 1
 218 396 l 1
 253 480 l 1
EndSplineSet
EndChar

StartChar: section
Encoding: 167 167 101
Width: 600
Flags: W
HStem: -88 88<204 275> 495 88<407 607 426 499>
VStem: 171 91<286.5 309 286.5 311> 260 91<441 465> 360 91<31 54> 455 91<196.5 205>
LayerCount: 2
Fore
SplineSet
607 583 m 1xe4
 571 413 l 1
 481 413 l 1
 499 495 l 1
 417 495 l 2
 397 495 351 495 351 449 c 0
 351 433 365 419 368 416 c 2
 481 313 l 2
 518 280 546 251 546 204 c 0xd4
 546 118 468 90 447 82 c 1
 448 75 451 60 451 49 c 0
 451 6 414 -88 275 -88 c 2
 97 -88 l 1
 135 91 l 1
 224 91 l 1
 204 0 l 1
 287 0 l 2
 325 0 360 15 360 47 c 0
 360 61 347 75 339 82 c 2
 231 183 l 2
 199 212 171 240 171 290 c 0xe8
 171 332 199 379 265 408 c 1
 262 419 260 429 260 445 c 0xd4
 260 485 290 583 426 583 c 2
 607 583 l 1xe4
416 250 m 2
 320 339 l 1
 304 335 262 325 262 293 c 0
 262 280 269 269 290 250 c 2xe4
 394 154 l 1
 452 164 455 194 455 199 c 0
 455 211 444 224 416 250 c 2
EndSplineSet
EndChar

StartChar: currency
Encoding: 168 164 102
Width: 600
Flags: MW
HStem: 102 85<340 389.5> 400 85<338.5 373 338.5 399>
VStem: 173 85<269 301.5> 472 85
LayerCount: 2
Fore
SplineSet
527 193 m 1
 610 112 l 1
 548 52 l 1
 467 132 l 1
 441 117 414 102 365 102 c 0
 315 102 289 117 262 132 c 1
 181 52 l 1
 119 112 l 1
 202 193 l 1
 189 217 l 2
 186 223 173 251 173 287 c 0
 173 316 176 345 189 371 c 2
 202 394 l 1
 119 475 l 1
 181 535 l 1
 262 456 l 1
 284 467 l 2
 289 470 319 485 358 485 c 0
 388 485 419 481 446 467 c 2
 467 456 l 1
 548 535 l 1
 610 475 l 1
 528 395 l 1
 551 362 559 322 557 287 c 0
 555 247 546 217 527 193 c 1
472 294 m 0
 472 347 433 400 365 400 c 0
 293 400 258 343 258 294 c 0
 258 238 299 187 365 187 c 0
 430 187 472 238 472 294 c 0
EndSplineSet
EndChar

StartChar: quotesingle
Encoding: 169 39 103
Width: 600
Flags: W
HStem: 272 311<357 421 312 509> 563 20G<357 509 509 509>
VStem: 312 197
LayerCount: 2
Fore
SplineSet
357 583 m 1xe0
 509 583 l 1
 421 272 l 1
 312 272 l 1
 357 583 l 1xe0
EndSplineSet
EndChar

StartChar: quotedblleft
Encoding: 170 8220 104
Width: 600
Flags: W
HStem: 309 274<148 438 148 438 353 438 328 499 353 353> 563 20G<328 438 438 438 533 643 643 643>
VStem: 148 290<309 583> 148 495<309 583> 353 290<309 583>
LayerCount: 2
Fore
SplineSet
499 309 m 1xd8
 353 309 l 1
 533 583 l 1
 643 583 l 1
 499 309 l 1xd8
294 309 m 1xa0
 148 309 l 1
 328 583 l 1
 438 583 l 1
 294 309 l 1xa0
EndSplineSet
EndChar

StartChar: guillemotleft
Encoding: 171 171 105
Width: 600
Flags: W
HStem: 18 445<306 401> 38 402<505 585> 240 21G<96 96 219 219 290 290 414 414> 443 20G<401 401>
VStem: 96 350<240 397> 96 529<240 371> 290 335<240 371>
LayerCount: 2
Fore
SplineSet
585 440 m 1x76
 625 371 l 1
 414 240 l 1
 568 107 l 1
 505 38 l 1
 290 240 l 1
 585 440 l 1x76
401 463 m 1x88
 446 397 l 1
 219 240 l 1
 375 82 l 1
 306 18 l 1
 96 240 l 1
 401 463 l 1x88
EndSplineSet
EndChar

StartChar: guilsinglleft
Encoding: 172 8249 106
Width: 600
Flags: W
HStem: 38 402<412 493> 240 21G<188 188 321 321>
VStem: 188 344<240 371>
LayerCount: 2
Fore
SplineSet
493 440 m 1xe0
 532 371 l 1
 321 240 l 1
 475 107 l 1
 412 38 l 1
 188 240 l 1
 493 440 l 1xe0
EndSplineSet
EndChar

StartChar: guilsinglright
Encoding: 173 8250 107
Width: 600
Flags: W
HStem: 38 402<201 285> 240 21G<375 375 508 508>
VStem: 165 343<111 240>
LayerCount: 2
Fore
SplineSet
285 440 m 1xe0
 508 240 l 1
 201 38 l 1
 165 111 l 1
 375 240 l 1
 220 371 l 1
 285 440 l 1xe0
EndSplineSet
EndChar

StartChar: fi
Encoding: 174 64257 108
Width: 600
Flags: W
HStem: 0 82<32 148 236 392 480 583 14 148> 359 84<108 206 90 224 108 294 312 450> 540 103<322 414 322 577 322 471> 540 132<414 605 498 577 471 605> 559 84<353 365.5> 606 20G<461 461>
VStem: 14 591
LayerCount: 2
Fore
SplineSet
556 443 m 1xca
 480 82 l 1
 601 82 l 1
 583 0 l 1
 14 0 l 1
 32 82 l 1
 148 82 l 1
 206 359 l 1
 90 359 l 1
 108 443 l 1
 224 443 l 1
 233 481 l 2
 251 556 271 643 373 643 c 0xca
 410 643 436 634 461 626 c 1xc6
 414 540 l 1
 384 558 368 559 363 559 c 0
 343 559 335 545 319 474 c 2
 312 443 l 1
 556 443 l 1xca
392 82 m 1
 450 359 l 1
 294 359 l 1
 236 82 l 1
 392 82 l 1
471 540 m 1xe2
 498 672 l 1
 605 672 l 1xd2
 577 540 l 1
 471 540 l 1xe2
EndSplineSet
Ligature2: "'liga' Standard Ligatures in Latin lookup 0 subtable" f i
EndChar

StartChar: fl
Encoding: 175 64258 109
Width: 600
Flags: W
HStem: 0 82<32 147 234 400 485 582 14 147> 359 84<108 205 90 223 108 292 310 400> 559 84<374 428> 606 20G<600 600>
VStem: 14 586<0 82>
LayerCount: 2
Fore
SplineSet
600 626 m 2xf8
 485 82 l 1
 600 82 l 1
 582 0 l 1
 14 0 l 1
 32 82 l 1
 147 82 l 1
 205 359 l 1
 90 359 l 1
 108 443 l 1
 223 443 l 1
 231 481 l 2
 247 555 274 643 434 643 c 0xe8
 482 643 531 636 576 630 c 0
 579 629 597 627 600 626 c 2xf8
234 82 m 1
 400 82 l 1
 498 549 l 1
 477 553 446 559 410 559 c 0
 338 559 331 535 317 474 c 2
 310 443 l 1
 420 443 l 1
 400 359 l 1
 292 359 l 1
 234 82 l 1
EndSplineSet
Ligature2: "'liga' Standard Ligatures in Latin lookup 0 subtable" f l
EndChar

StartChar: endash
Encoding: 177 8211 110
Width: 600
Flags: MW
HStem: 253 92<140 589 140 589>
VStem: 140 449<253 345 253 345>
LayerCount: 2
Fore
SplineSet
140 345 m 1
 589 345 l 1
 589 253 l 1
 140 253 l 1
 140 345 l 1
EndSplineSet
EndChar

StartChar: dagger
Encoding: 178 8224 111
Width: 600
Flags: MW
HStem: 363 90<233 321 213 340 433 522 233 414> 563 20G<369 461 461 461>
VStem: 213 327<363 453>
LayerCount: 2
Fore
SplineSet
369 583 m 1
 461 583 l 1
 433 453 l 1
 540 453 l 1
 522 363 l 1
 414 363 l 1
 327 -48 l 1
 233 -48 l 1
 321 363 l 1
 213 363 l 1
 233 453 l 1
 340 453 l 1
 369 583 l 1
EndSplineSet
EndChar

StartChar: daggerdbl
Encoding: 179 8225 112
Width: 600
Flags: MW
HStem: 163 86<193 280 175 298 391 476 193 370> 362 86<234 322 213 340 434 522 234 415> 563 20G<370 462 462 462>
VStem: 175 365<163 448>
LayerCount: 2
Fore
SplineSet
370 583 m 1
 462 583 l 1
 434 448 l 1
 540 448 l 1
 522 362 l 1
 415 362 l 1
 391 249 l 1
 496 249 l 1
 476 163 l 1
 370 163 l 1
 327 -48 l 1
 234 -48 l 1
 280 163 l 1
 175 163 l 1
 193 249 l 1
 298 249 l 1
 322 362 l 1
 213 362 l 1
 234 448 l 1
 340 448 l 1
 370 583 l 1
EndSplineSet
EndChar

StartChar: periodcentered
Encoding: 180 183 113
Width: 600
Flags: MW
HStem: 228 170<355 377.5>
VStem: 270 191<300 326.5>
LayerCount: 2
Fore
SplineSet
382 398 m 0
 420 398 461 373 461 328 c 0
 461 272 405 228 350 228 c 0
 309 228 270 253 270 298 c 0
 270 355 328 398 382 398 c 0
EndSplineSet
EndChar

StartChar: paragraph
Encoding: 182 182 114
Width: 600
Flags: MW
HStem: -79 50<159 225 159 290 149 225 447 490> 268 45<290 298> 533 50<345 631 421 490 421 421 567 621 567 567>
VStem: 120 138<345 360 337 420.5>
LayerCount: 2
Fore
SplineSet
567 533 m 1
 447 -29 l 1
 501 -29 l 1
 490 -79 l 1
 360 -79 l 1
 490 533 l 1
 421 533 l 1
 290 -79 l 1
 149 -79 l 1
 159 -29 l 1
 225 -29 l 1
 290 268 l 1
 183 262 120 299 120 391 c 0
 120 450 149 503 185 535 c 0
 238 583 308 583 375 583 c 2
 631 583 l 1
 621 533 l 1
 567 533 l 1
298 313 m 1
 345 533 l 1
 293 531 282 481 278 461 c 2
 262 383 l 2
 260 376 258 365 258 355 c 0
 258 319 275 315 298 313 c 1
EndSplineSet
EndChar

StartChar: bullet
Encoding: 183 8226 115
Width: 600
Flags: MW
HStem: 172 223<326 388>
VStem: 246 223<253 315>
LayerCount: 2
Fore
SplineSet
357 395 m 0
 295 395 246 346 246 284 c 0
 246 222 295 172 357 172 c 0
 419 172 469 222 469 284 c 0
 469 346 419 395 357 395 c 0
EndSplineSet
EndChar

StartChar: quotesinglbase
Encoding: 184 8218 116
Width: 600
Flags: MW
HStem: -106 274<130 420 130 420>
VStem: 130 290<-106 168>
LayerCount: 2
Fore
SplineSet
274 168 m 1
 420 168 l 1
 240 -106 l 1
 130 -106 l 1
 274 168 l 1
EndSplineSet
EndChar

StartChar: quotedblbase
Encoding: 185 8222 117
Width: 600
Flags: W
HStem: -106 274<26 317 26 317 232 232 232 317 171 341>
VStem: 26 291<-106 168> 26 496<-106 168> 232 290<-106 168>
LayerCount: 2
Fore
SplineSet
171 168 m 1xe0
 317 168 l 1
 136 -106 l 1
 26 -106 l 1
 171 168 l 1xe0
376 168 m 1x90
 522 168 l 1
 341 -106 l 1
 232 -106 l 1
 376 168 l 1x90
EndSplineSet
EndChar

StartChar: quotedblright
Encoding: 186 8221 118
Width: 600
Flags: W
HStem: 309 274<119 409 119 409 324 324 324 409 263 434> 563 20G<263 409 409 409 468 614 614 614>
VStem: 119 290<309 583> 119 495<309 583> 324 290<309 583>
LayerCount: 2
Fore
SplineSet
263 583 m 1xf0
 409 583 l 1
 229 309 l 1
 119 309 l 1
 263 583 l 1xf0
468 583 m 1x88
 614 583 l 1
 434 309 l 1
 324 309 l 1
 468 583 l 1x88
EndSplineSet
EndChar

StartChar: guillemotright
Encoding: 187 187 119
Width: 600
Flags: W
HStem: 18 445<298 387> 38 402<108 192> 240 21G<282 282 406 406 477 477 599 599> 443 20G<387 387>
VStem: 72 334<110 240> 72 527<110 240> 254 345<82 240>
LayerCount: 2
Fore
SplineSet
192 440 m 1x7c
 406 240 l 1
 108 38 l 1
 72 110 l 1
 282 240 l 1
 127 371 l 1
 192 440 l 1x7c
387 463 m 1x82
 599 240 l 1
 298 18 l 1
 254 82 l 1
 477 240 l 1
 317 400 l 1
 387 463 l 1x82
EndSplineSet
EndChar

StartChar: ellipsis
Encoding: 188 8230 120
Width: 600
Flags: MW
HStem: -16 170<104.5 122.5 304 321.5 503.5 521>
VStem: 26 175<57 81.5> 225 175<57 81.5> 424 175<56.5 81.5>
LayerCount: 2
Fore
SplineSet
97 -16 m 0
 64 -16 26 6 26 52 c 0
 26 111 80 154 129 154 c 0
 165 154 201 130 201 86 c 0
 201 28 148 -16 97 -16 c 0
296 -16 m 0
 264 -16 225 5 225 52 c 0
 225 111 279 154 329 154 c 0
 364 154 400 130 400 86 c 0
 400 28 347 -16 296 -16 c 0
496 -16 m 0
 462 -16 424 6 424 52 c 0
 424 111 479 154 528 154 c 0
 563 154 599 130 599 86 c 0
 599 27 546 -16 496 -16 c 0
EndSplineSet
EndChar

StartChar: perthousand
Encoding: 189 8240 121
Width: 600
Flags: W
HStem: -14 65<152 190.5 152 205.5 470.5 508.5> 196 65<172 215.5 490.5 533> 365 65<129.5 167 129.5 182.5> 574 65<148.5 190.5>
VStem: 11 73<463 504.5 463 515> 34 73<85 126 85 137> 233 73<497.5 537.5> 256 73<119 158.5> 352 73<85 126 85 136.5> 574 73<119 159>
LayerCount: 2
Fore
SplineSet
186 639 m 0xfac0
 264 639 306 584 306 527 c 0
 306 452 234 365 131 365 c 0
 45 365 11 425 11 476 c 0
 11 554 86 639 186 639 c 0xfac0
176 574 m 0x3a
 121 574 84 524 84 485 c 0
 84 441 119 430 140 430 c 0
 194 430 233 477 233 518 c 0
 233 557 205 574 176 574 c 0x3a
210 261 m 0xc5
 289 261 329 205 329 149 c 0
 329 73 257 -14 154 -14 c 0
 67 -14 34 49 34 98 c 0
 34 176 110 261 210 261 c 0xc5
200 196 m 0xc5
 144 196 107 146 107 106 c 0
 107 64 140 51 164 51 c 0
 217 51 256 98 256 140 c 0
 256 177 231 196 200 196 c 0xc5
528 261 m 0xc0c0
 607 261 647 204 647 148 c 0
 647 74 576 -14 472 -14 c 0
 387 -14 352 46 352 98 c 0
 352 175 428 261 528 261 c 0xc0c0
518 196 m 0xc0c0
 463 196 425 146 425 106 c 0
 425 64 459 51 482 51 c 0
 535 51 574 98 574 140 c 0
 574 178 548 196 518 196 c 0xc0c0
452 423 m 1x2080
 467 371 l 1
 34 247 l 1
 20 298 l 1
 452 423 l 1x2080
EndSplineSet
EndChar

StartChar: questiondown
Encoding: 191 191 122
Width: 600
Flags: W
HStem: -133 86<294 321 294 327> 316 158<403 434> 454 20G<403 451.5>
VStem: 120 91<-14 64.5 -14 93> 331 175<382 409.5>
LayerCount: 2
Fore
SplineSet
503 38 m 1xb8
 475 -96 l 1
 395 -121 358 -133 296 -133 c 0
 157 -133 120 -46 120 15 c 0
 120 171 297 215 336 225 c 1
 347 279 l 1
 434 279 l 1
 409 156 l 1
 378 149 l 2
 317 135 211 110 211 19 c 0
 211 -47 287 -47 301 -47 c 0
 341 -47 362 -41 401 -28 c 1
 415 38 l 1
 503 38 l 1xb8
407 316 m 0x48
 362 316 331 347 331 386 c 0
 331 433 377 474 429 474 c 0
 474 474 506 444 506 405 c 0
 506 359 461 316 407 316 c 0x48
EndSplineSet
EndChar

StartChar: grave
Encoding: 193 96 123
Width: 600
Flags: MW
HStem: 544 98<264 498 264 414>
VStem: 264 234<544 642 544 642>
LayerCount: 2
Fore
SplineSet
264 638 m 1
 264 642 l 1
 412 642 l 1
 498 544 l 1
 414 544 l 1
 264 638 l 1
EndSplineSet
EndChar

StartChar: acute
Encoding: 194 180 124
Width: 600
Flags: MW
HStem: 544 98<319 582>
VStem: 319 263<544 638>
LayerCount: 2
Fore
SplineSet
582 638 m 1
 408 544 l 1
 319 544 l 1
 442 642 l 1
 582 642 l 1
 582 638 l 1
EndSplineSet
EndChar

StartChar: circumflex
Encoding: 195 710 125
Width: 600
Flags: MW
HStem: 583 69<420 420>
VStem: 279 275<566 568>
LayerCount: 2
Fore
SplineSet
390 652 m 1
 476 652 l 1
 554 566 l 1
 498 535 l 1
 420 583 l 1
 328 535 l 1
 279 568 l 1
 390 652 l 1
EndSplineSet
EndChar

StartChar: tilde
Encoding: 196 732 126
Width: 600
Flags: W
HStem: 530 129 584 20 618 20G<603 603>
VStem: 232 371<554 638>
LayerCount: 2
Fore
SplineSet
536 659 m 1xf0
 603 638 l 1
 584 603 547 531 464 531 c 0
 447 531 424 534 391 562 c 0
 366 583 361 584 355 584 c 0
 332 584 318 561 302 536 c 0
 301 534 298 531 298 530 c 1
 232 554 l 1
 254 592 292 657 365 657 c 0
 402 657 422 640 440 625 c 0
 456 611 467 604 479 604 c 0
 503 604 521 633 533 653 c 0
 533 654 536 658 536 659 c 1xf0
EndSplineSet
EndChar

StartChar: macron
Encoding: 197 175 127
Width: 600
Flags: MW
HStem: 550 85<255 579 237 598>
VStem: 237 361<550 635>
LayerCount: 2
Fore
SplineSet
255 635 m 1
 598 635 l 1
 579 550 l 1
 237 550 l 1
 255 635 l 1
EndSplineSet
EndChar

StartChar: breve
Encoding: 198 728 128
Width: 600
Flags: MW
HStem: 523 68<381.5 430>
VStem: 258 357<662 662>
LayerCount: 2
Fore
SplineSet
258 662 m 1
 335 662 l 1
 338 637 344 591 419 591 c 0
 462 591 508 611 533 657 c 0
 534 659 535 662 536 662 c 2
 615 662 l 1
 597 624 586 602 549 572 c 0
 502 535 452 523 408 523 c 0
 350 523 295 545 269 601 c 0
 260 620 260 634 258 662 c 1
EndSplineSet
EndChar

StartChar: dotaccent
Encoding: 199 729 129
Width: 600
Flags: MW
HStem: 533 120<353 475 378 449>
VStem: 353 122<533 653>
LayerCount: 2
Fore
SplineSet
353 533 m 1
 378 653 l 1
 475 653 l 1
 449 533 l 1
 353 533 l 1
EndSplineSet
EndChar

StartChar: dieresis
Encoding: 200 168 130
Width: 600
Flags: W
HStem: 533 115<284 407 310 381 458 529 310 432>
VStem: 284 123<533 648> 284 271<533 648> 432 123<533 648>
LayerCount: 2
Fore
SplineSet
284 533 m 1xe0
 310 648 l 1
 407 648 l 1
 381 533 l 1
 284 533 l 1xe0
432 533 m 1x90
 458 648 l 1
 555 648 l 1
 529 533 l 1
 432 533 l 1x90
EndSplineSet
EndChar

StartChar: ring
Encoding: 202 730 131
Width: 600
Flags: MW
HStem: 515 58<384.5 402 384.5 418> 636 58<384.5 402>
VStem: 304 58<595.5 613 595.5 629> 425 58<595.5 613>
LayerCount: 2
Fore
SplineSet
483 604 m 0
 483 555 443 515 393 515 c 0
 344 515 304 555 304 604 c 0
 304 654 344 694 393 694 c 0
 443 694 483 654 483 604 c 0
425 604 m 0
 425 622 411 636 393 636 c 0
 376 636 362 622 362 604 c 0
 362 587 376 573 393 573 c 0
 411 573 425 587 425 604 c 0
EndSplineSet
EndChar

StartChar: cedilla
Encoding: 203 184 132
Width: 600
Flags: W
HStem: -170 70<277 300.5 277 329.5> -79 86<260.5 346> -18 25<338 338>
VStem: 158 239<-150 -64.5> 312 85<-93.5 -89.5>
LayerCount: 2
Fore
SplineSet
346 7 m 1xb8
 338 -18 l 1
 370 -27 397 -46 397 -83 c 0
 397 -112 374 -170 285 -170 c 0
 234 -170 184 -157 168 -153 c 0
 167 -153 159 -151 158 -150 c 2
 183 -82 l 1
 226 -93 265 -100 289 -100 c 0
 312 -100 312 -94 312 -93 c 0xa8
 312 -86 287 -82 280 -81 c 0
 277 -81 263 -79 261 -79 c 0
 260 -79 247 -78 245 -77 c 2xc8
 272 7 l 1
 346 7 l 1xb8
EndSplineSet
EndChar

StartChar: hungarumlaut
Encoding: 205 733 133
Width: 600
Flags: MW
HStem: 528 129<234 488 396 396 396 468>
VStem: 234 416<528 657>
LayerCount: 2
Fore
SplineSet
488 657 m 1
 306 528 l 1
 234 528 l 1
 372 657 l 1
 488 657 l 1
650 657 m 1
 468 528 l 1
 396 528 l 1
 534 657 l 1
 650 657 l 1
EndSplineSet
EndChar

StartChar: ogonek
Encoding: 206 731 134
Width: 600
Flags: W
HStem: -144 66<236 309.5> -144 163<236 391>
VStem: 179 96<-69.5 -63.5> 179 212<-106 19>
LayerCount: 2
Fore
SplineSet
386 -47 m 1xd0
 351 -116 l 1
 325 -130 297 -144 254 -144 c 0
 218 -144 179 -126 179 -86 c 0
 179 -41 230 0 303 19 c 1
 391 19 l 1
 391 16 l 1
 353 -1 345 -6 320 -19 c 0
 299 -30 275 -45 275 -63 c 0
 275 -76 291 -78 299 -78 c 0xa0
 320 -78 327 -75 386 -47 c 1xd0
EndSplineSet
EndChar

StartChar: caron
Encoding: 207 711 135
Width: 600
Flags: W
HStem: 535 69<421 421 421 451 365 421> 584 20G<421 421>
VStem: 286 275<619 621>
LayerCount: 2
Fore
SplineSet
451 535 m 1xe0
 365 535 l 1
 286 621 l 1
 342 652 l 1
 421 604 l 1
 513 652 l 1
 561 619 l 1
 451 535 l 1xe0
EndSplineSet
EndChar

StartChar: emdash
Encoding: 208 8212 136
Width: 600
Flags: MW
HStem: 253 92<16 713 16 713>
VStem: 16 697<253 345 253 345>
LayerCount: 2
Fore
SplineSet
16 345 m 1
 713 345 l 1
 713 253 l 1
 16 253 l 1
 16 345 l 1
EndSplineSet
EndChar

StartChar: AE
Encoding: 225 198 137
Width: 600
Flags: W
HStem: 0 82<16 73 154 211 -2 73 382 534> 174 76<256 323 207 337> 186 32 256 77<436 456 421 474> 367 35 501 82<256 323 238 717 470 623 470 470>
VStem: -2 719<0 583>
LayerCount: 2
Fore
SplineSet
256 583 m 1xce
 717 583 l 1
 676 367 l 1
 602 367 l 1
 623 501 l 1
 470 501 l 1
 436 333 l 1
 474 333 l 1
 490 402 l 1
 561 402 l 1
 511 186 l 1
 440 186 l 1
 456 256 l 1
 421 256 l 1
 382 82 l 1
 534 82 l 1
 567 218 l 1
 642 218 l 1xbe
 596 0 l 1
 282 0 l 1
 323 174 l 1
 207 174 l 1
 154 82 l 1
 229 82 l 1
 211 0 l 1
 -2 0 l 1
 16 82 l 1
 73 82 l 1
 323 501 l 1
 238 501 l 1
 256 583 l 1xce
337 250 m 1xce
 390 482 l 1
 388 484 l 1
 256 250 l 1
 337 250 l 1xce
EndSplineSet
EndChar

StartChar: ordfeminine
Encoding: 227 170 138
Width: 600
Flags: MW
HStem: 251 54<217 501 206 513> 347 53<478 511> 460 54<364.5 394> 546 54<411.5 421.5>
VStem: 252 58 448 56<523 556.5>
LayerCount: 2
Fore
SplineSet
311 520 m 1
 300 570 l 1
 329 581 341 586 354 589 c 0
 377 596 402 600 421 600 c 0
 472 600 504 576 504 537 c 1
 501 509 l 1
 478 400 l 1
 522 400 l 1
 511 347 l 1
 412 347 l 1
 416 366 l 1
 386 348 358 340 329 340 c 0
 284 340 256 364 252 409 c 1
 256 471 314 514 394 514 c 0
 412 514 423 513 447 510 c 1
 448 523 l 2
 448 538 434 546 409 546 c 0
 383 546 357 539 311 520 c 1
431 437 m 1
 435 457 l 1
 412 460 401 460 387 460 c 0
 342 460 312 445 310 420 c 0
 312 404 325 395 342 395 c 0
 369 395 395 407 431 437 c 1
217 305 m 1
 513 305 l 1
 501 251 l 1
 206 251 l 1
 217 305 l 1
EndSplineSet
EndChar

StartChar: Lslash
Encoding: 232 321 139
Width: 600
Flags: MW
HStem: 0 82<59 155 243 478 41 155> 444 20G<493 493> 501 82<165 243 147 469 332 332 332 451>
VStem: 41 578<0 278>
LayerCount: 2
Fore
SplineSet
304 367 m 1
 493 464 l 1
 521 386 l 1
 282 262 l 1
 243 82 l 1
 478 82 l 1
 532 278 l 1
 619 278 l 1
 547 0 l 1
 41 0 l 1
 59 82 l 1
 155 82 l 1
 183 218 l 1
 116 183 l 1
 88 262 l 1
 205 322 l 1
 243 501 l 1
 147 501 l 1
 165 583 l 1
 469 583 l 1
 451 501 l 1
 332 501 l 1
 304 367 l 1
EndSplineSet
EndChar

StartChar: Oslash
Encoding: 233 216 140
Width: 600
Flags: MW
HStem: -16 84<280.5 367 280.5 393> 515 84<347.5 421.5 324.5 422.5>
VStem: 80 93<215 299.5 215 314.5> 540 93<289 374.5>
LayerCount: 2
Fore
SplineSet
159 27 m 1
 102 -30 l 1
 46 27 l 1
 109 91 l 1
 97 121 80 164 80 207 c 0
 80 422 234 599 415 599 c 0
 428 599 506 599 560 549 c 1
 608 598 l 1
 665 542 l 1
 608 484 l 1
 624 450 633 412 633 368 c 0
 633 179 490 -16 296 -16 c 0
 248 -16 194 -5 159 27 c 1
534 409 m 1
 224 93 l 1
 241 81 259 68 302 68 c 0
 432 68 540 216 540 362 c 0
 540 387 536 398 534 409 c 1
181 175 m 1
 489 488 l 1
 464 512 435 515 410 515 c 0
 285 515 173 369 173 230 c 0
 173 200 176 190 181 175 c 1
EndSplineSet
EndChar

StartChar: OE
Encoding: 234 338 141
Width: 600
Flags: W
HStem: 0 74<217 246 208 247 208 596> 0 82<386 530 386 596> 192 26 268 77<444 461 426 479> 367 53<494 675 494 596> 501 82<475 616 475 475> 506 77<295.5 717>
VStem: 54 81<173 286 162.5 293.5>
LayerCount: 2
Fore
SplineSet
717 583 m 1x6d
 675 367 l 1
 596 367 l 1xab
 616 501 l 1
 475 501 l 1
 444 345 l 1
 479 345 l 1x7d
 494 420 l 1
 570 420 l 1x6d
 521 192 l 1
 444 192 l 1
 461 268 l 1
 426 268 l 1x7d
 386 82 l 1
 530 82 l 1
 564 218 l 1
 641 218 l 1
 596 0 l 1
 247 0 l 2
 187 0 170 0 143 16 c 0
 76 53 54 143 54 203 c 0
 54 384 186 583 367 583 c 2
 717 583 l 1x6d
314 126 m 2
 386 466 l 2
 387 469 388 477 388 483 c 0
 388 503 352 506 345 506 c 0
 246 506 135 363 135 209 c 0
 135 116 178 74 238 74 c 0
 254 74 304 80 314 126 c 2
EndSplineSet
EndChar

StartChar: ordmasculine
Encoding: 235 186 142
Width: 600
Flags: MW
HStem: 251 54<217 501 206 512> 340 54<362.5 396> 546 54
VStem: 260 58 483 58
LayerCount: 2
Fore
SplineSet
428 600 m 1
 477 596 500 587 519 563 c 0
 534 545 539 529 541 498 c 1
 538 453 526 424 497 393 c 0
 466 359 420 340 372 340 c 0
 333 340 300 353 281 376 c 0
 266 394 261 411 260 443 c 0
 262 487 274 515 303 546 c 0
 335 581 365 594 428 600 c 1
417 546 m 1
 379 543 361 535 342 514 c 0
 326 496 320 479 318 453 c 0
 319 414 342 394 383 394 c 0
 439 394 479 431 483 487 c 1
 481 526 462 543 417 546 c 1
217 305 m 1
 512 305 l 1
 501 251 l 1
 206 251 l 1
 217 305 l 1
EndSplineSet
EndChar

StartChar: ae
Encoding: 241 230 143
Width: 600
Flags: W
HStem: -14 84<404.5 452 404.5 459.5> 198 82<387 540 387 608 371 540> 212 84<200.5 256.5> 388 86<273 295> 391 83<488.5 518>
VStem: 42 88<99.5 123 99.5 142> 543 88<316 345>
LayerCount: 2
Fore
SplineSet
608 198 m 1xd6
 371 198 l 1xd6
 368 184 367 172 367 154 c 0
 367 113 378 70 431 70 c 0
 473 70 522 84 566 97 c 1
 582 17 l 1
 555 8 492 -14 427 -14 c 0
 346 -14 324 26 305 61 c 1
 249 14 212 -14 158 -14 c 0
 94 -14 42 28 42 104 c 0
 42 180 108 296 256 296 c 0
 279 296 291 292 305 289 c 1xb6
 313 323 317 340 317 356 c 0
 317 386 303 388 287 388 c 0
 259 388 236 386 174 365 c 0
 170 363 147 356 143 354 c 1
 134 438 l 1
 212 466 249 474 287 474 c 0
 315 474 366 468 387 421 c 1
 422 452 465 474 512 474 c 0
 573 474 631 425 631 322 c 0
 631 264 617 224 608 198 c 1xd6
278 143 m 1
 289 208 l 1
 278 210 265 212 248 212 c 0xb6
 153 212 130 137 130 109 c 0
 130 90 139 72 160 72 c 0
 193 72 249 112 278 143 c 1
387 280 m 1xce
 540 280 l 1
 541 291 543 304 543 328 c 0
 543 362 539 391 497 391 c 0
 464 391 410 361 387 280 c 1xce
EndSplineSet
EndChar

StartChar: dotlessi
Encoding: 245 305 144
Width: 600
Flags: MW
HStem: 0 82<103 273 361 510 85 273> 371 82<209 334 191 440>
VStem: 85 443<0 82>
LayerCount: 2
Fore
SplineSet
209 453 m 1
 440 453 l 1
 361 82 l 1
 528 82 l 1
 510 0 l 1
 85 0 l 1
 103 82 l 1
 273 82 l 1
 334 371 l 1
 191 371 l 1
 209 453 l 1
EndSplineSet
EndChar

StartChar: lslash
Encoding: 248 322 145
Width: 600
Flags: MW
HStem: 0 82<100 269 355 505 82 269> 444 20G<551 551> 535.5 95.5
VStem: 82 497<0 386>
LayerCount: 2
Fore
SplineSet
421 397 m 1
 551 464 l 1
 579 386 l 1
 399 293 l 1
 355 82 l 1
 523 82 l 1
 505 0 l 1
 82 0 l 1
 100 82 l 1
 269 82 l 1
 304 250 l 1
 174 183 l 1
 146 261 l 1
 326 354 l 1
 365 541 l 1
 208 530 l 1
 217 615 l 1
 471 631 l 1
 421 397 l 1
EndSplineSet
EndChar

StartChar: oslash
Encoding: 249 248 146
Width: 600
Flags: W
HStem: -23 21G<100 100> -14 86<284 373 284 394> 388 86<320.5 401.5>
VStem: 80 93<178.5 237 178.5 253.5> 515 93<229.5 279>
LayerCount: 2
Fore
SplineSet
158 24 m 1x78
 100 -23 l 1
 45 44 l 1xb8
 100 89 l 1
 84 122 80 162 80 184 c 0
 80 323 201 474 389 474 c 0
 433 474 491 464 529 437 c 1
 588 486 l 1
 643 417 l 1
 588 371 l 1
 602 342 608 309 608 277 c 0
 608 139 489 -14 299 -14 c 0
 265 -14 204 -7 158 24 c 1x78
510 309 m 1
 234 82 l 1
 248 77 266 72 302 72 c 0x78
 444 72 515 189 515 270 c 0
 515 288 512 300 510 309 c 1
178 152 m 1
 454 376 l 1
 440 381 420 388 383 388 c 0
 258 388 173 286 173 188 c 0
 173 169 176 160 178 152 c 1
EndSplineSet
EndChar

StartChar: oe
Encoding: 250 339 147
Width: 600
Flags: W
HStem: -14 86<149.5 177.5 149.5 201> 198 82<393 541 393 608 377 541> 390 84<220 281.5> 393 81<490 523.5>
VStem: 29 95<124 179.5 124 183> 545 86<310.5 331.5>
LayerCount: 2
Fore
SplineSet
608 198 m 1xec
 377 198 l 1
 374 184 373 173 373 154 c 0
 373 98 394 70 444 70 c 0
 475 70 490 78 537 110 c 1
 575 36 l 1
 537 11 498 -14 439 -14 c 0
 353 -14 325 27 308 51 c 1
 276 18 237 -14 165 -14 c 0
 42 -14 29 94 29 128 c 0
 29 238 94 474 270 474 c 0
 336 474 363 440 382 415 c 1
 397 430 443 474 511 474 c 0
 585 474 631 412 631 324 c 0
 631 266 617 225 608 198 c 1xec
393 280 m 1
 541 280 l 1
 543 291 545 301 545 320 c 0
 545 343 541 393 506 393 c 0xdc
 474 393 418 363 393 280 c 1
283 174 m 2
 308 300 l 2
 315 336 317 340 317 347 c 0
 317 370 297 390 266 390 c 0xec
 174 390 124 222 124 137 c 0
 124 111 129 72 170 72 c 0
 185 72 264 79 283 174 c 2
EndSplineSet
EndChar

StartChar: germandbls
Encoding: 251 223 148
Width: 600
Flags: W
HStem: -14 21G<330.5 419> -14 86<339.5 383 339.5 419> 0 82<62 122 62 192 45 122> 570 86<375 435>
VStem: 470 88<165.5 231 157.5 245.5> 483 88<501.5 535>
LayerCount: 2
Fore
SplineSet
62 82 m 1x38
 122 82 l 1
 198 443 l 2
 206 483 243 656 417 656 c 0
 504 656 571 604 571 516 c 0x34
 571 459 539 397 462 358 c 1
 539 317 558 255 558 207 c 0
 558 108 484 -14 354 -14 c 0x58
 307 -14 273 -4 247 5 c 1x98
 266 92 l 1
 301 81 326 72 353 72 c 0
 413 72 470 129 470 202 c 0x58
 470 289 372 307 311 318 c 1
 327 399 l 1
 457 406 483 485 483 518 c 0
 483 552 456 570 414 570 c 0x34
 336 570 299 508 283 433 c 2
 192 0 l 1
 45 0 l 1
 62 82 l 1x38
EndSplineSet
EndChar

StartChar: copyright
Encoding: 256 169 149
Width: 600
Flags: MW
HStem: 13 58<297 425.5 297 442.5> 138 48<335.5 365.5> 419 45<372.5 420.5 345 425> 541 58<297 425.5>
VStem: 68 58<241 371.5 241 388> 205 86<251 308 251 312.5> 597 58<241 371.5>
LayerCount: 2
Fore
SplineSet
520 439 m 1
 500 344 l 1
 456 344 l 1
 457 347 458 357 458 363 c 0
 458 397 443 419 407 419 c 0
 338 419 291 347 291 269 c 0
 291 233 307 186 364 186 c 0
 401 186 431 209 451 238 c 1
 486 223 l 1
 456 169 398 138 333 138 c 0
 239 138 205 198 205 263 c 0
 205 362 284 464 406 464 c 0
 435 464 481 456 520 439 c 1
361 599 m 0
 521 599 655 470 655 306 c 0
 655 146 524 13 361 13 c 0
 199 13 68 145 68 306 c 0
 68 470 202 599 361 599 c 0
361 541 m 0
 233 541 126 437 126 306 c 0
 126 176 233 71 361 71 c 0
 490 71 597 176 597 306 c 0
 597 437 490 541 361 541 c 0
EndSplineSet
EndChar

StartChar: approxequalalt
Encoding: 257 -1 150
Width: 600
Flags: W
HStem: 146 102<152 594 152 594> 336 102<459 481 459 500> 393 102<272 293.5>
VStem: 152 444<146 443 248 443 383 443>
LayerCount: 2
Fore
SplineSet
594 248 m 1xd0
 594 146 l 1
 152 146 l 1
 152 248 l 1
 594 248 l 1xd0
539 510 m 1
 596 443 l 1
 565 392 533 336 467 336 c 0
 444 336 421 344 407 350 c 0
 401 352 374 364 368 366 c 2
 355 371 l 2xd0
 346 375 334 379 331 381 c 0
 306 392 299 393 288 393 c 0
 256 393 240 367 211 314 c 1
 152 383 l 1
 179 430 217 495 285 495 c 0xb0
 309 495 335 489 393 464 c 0
 446 441 452 438 466 438 c 0
 496 438 516 471 532 499 c 0
 533 500 538 508 539 510 c 1
EndSplineSet
EndChar

StartChar: twosuperior
Encoding: 258 178 151
Width: 600
Flags: MW
HStem: 254 56<260 372 260 415> 583 56<350 374>
VStem: 413 62
LayerCount: 2
Fore
SplineSet
384 367 m 1
 439 367 l 1
 415 254 l 1
 158 254 l 1
 169 306 l 1
 183 316 l 2
 222 344 293 397 333 428 c 0
 385 469 396 480 405 499 c 0
 410 510 413 523 413 533 c 0
 413 560 389 583 359 583 c 0
 336 583 313 572 299 558 c 0
 292 550 289 542 285 522 c 1
 226 522 l 1
 238 579 l 1
 281 619 326 639 374 639 c 0
 432 639 473 600 475 544 c 1
 472 510 467 492 453 471 c 0
 441 454 428 439 414 427 c 0
 392 409 362 384 325 358 c 2
 260 312 l 1
 260 310 l 1
 372 310 l 1
 384 367 l 1
EndSplineSet
EndChar

StartChar: rightangle
Encoding: 259 8735 152
Width: 600
Flags: MW
HStem: 0 88<221 587 221 587> 434 20G<133 221 221 221>
VStem: 133 88<88 454 88 454 88 454>
LayerCount: 2
Fore
SplineSet
587 0 m 1
 133 0 l 1
 133 454 l 1
 221 454 l 1
 221 88 l 1
 587 88 l 1
 587 0 l 1
EndSplineSet
EndChar

StartChar: productdot
Encoding: 260 -1 153
Width: 600
Flags: MW
HStem: 228 170<340.5 384.5 340.5 386>
VStem: 269 188<286.5 339.5>
LayerCount: 2
Fore
SplineSet
363 398 m 0
 406 398 457 367 457 313 c 0
 457 260 409 228 363 228 c 0
 318 228 269 259 269 313 c 0
 269 366 318 398 363 398 c 0
EndSplineSet
EndChar

StartChar: alpha
Encoding: 261 945 154
Width: 600
Flags: W
HStem: -15 81<193 240 193 252.5> 0 82<504 557 428 574> 387 81<236.5 310.5> 438 20G<624 624> 456 20G<544 544>
VStem: 32 88<137 228.5 137 249.5>
LayerCount: 2
Fore
SplineSet
504 82 m 1x64
 574 82 l 1
 557 0 l 1
 428 0 l 1x64
 423 34 421 50 409 117 c 1
 379 78 307 -15 198 -15 c 0
 101 -15 32 67 32 171 c 0
 32 328 151 468 286 468 c 0xa4
 397 468 432 366 449 316 c 1
 544 476 l 1x4c
 624 458 l 1x54
 475 217 l 1
 477 207 478 205 482 185 c 0
 494 137 499 118 504 82 c 1x64
390 219 m 1
 360 320 340 387 281 387 c 0
 192 387 120 279 120 178 c 0
 120 96 173 66 213 66 c 0xa4
 267 66 322 116 390 219 c 1
EndSplineSet
EndChar

StartChar: Sigma
Encoding: 262 931 155
Width: 600
Flags: MW
HStem: 0 82<158 464 158 535> 501 82<245 545 245 245>
VStem: 35 621<0 583>
LayerCount: 2
Fore
SplineSet
656 583 m 1
 605 371 l 1
 526 371 l 1
 545 501 l 1
 245 501 l 1
 352 296 l 1
 158 82 l 1
 464 82 l 1
 498 214 l 1
 577 214 l 1
 535 0 l 1
 35 0 l 1
 51 74 l 1
 257 302 l 1
 147 511 l 1
 162 583 l 1
 656 583 l 1
EndSplineSet
EndChar

StartChar: Tbar
Encoding: 263 358 156
Width: 600
Flags: MW
HStem: 0 82<153 269 357 457 135 269> 297 84<244 314 227 332 419 490 244 401> 501 82<227 357 227 227 444 444 444 573>
VStem: 89 580<319 583>
LayerCount: 2
Fore
SplineSet
419 381 m 1
 508 381 l 1
 490 297 l 1
 401 297 l 1
 357 82 l 1
 475 82 l 1
 457 0 l 1
 135 0 l 1
 153 82 l 1
 269 82 l 1
 314 297 l 1
 227 297 l 1
 244 381 l 1
 332 381 l 1
 357 501 l 1
 227 501 l 1
 175 307 l 1
 89 319 l 1
 164 583 l 1
 669 583 l 1
 632 319 l 1
 546 307 l 1
 573 501 l 1
 444 501 l 1
 419 381 l 1
EndSplineSet
EndChar

StartChar: SS270000
Encoding: 264 8993 157
Width: 600
Flags: MW
HStem: -243 161<97.5 133 91.5 191.5>
VStem: 239 122<-35 78 78 839>
LayerCount: 2
Fore
SplineSet
239 839 m 1
 361 839 l 1
 361 78 l 2
 361 -155 240 -243 143 -243 c 0
 52 -243 38 -180 38 -157 c 0
 38 -108 73 -82 110 -82 c 0
 156 -82 175 -111 187 -129 c 0
 193 -140 202 -151 213 -151 c 0
 233 -151 239 -133 239 -35 c 2
 239 839 l 1
EndSplineSet
EndChar

StartChar: Scedilla
Encoding: 265 350 158
Width: 600
Flags: W
HStem: -170 70<267 291 267 322.5> -18 21G<131 131 331 331> -18 93<331 331> -10 21G<260 260> -5 21G<49 49> 516 86<361 426.5> 582 20G<328 427.5> 586 20G<569 569>
VStem: 101 77<179.5 204> 168 91<388.5 440.5 381 457.5> 465 91<158.5 213.5>
LayerCount: 2
Fore
SplineSet
333 -13 m 1xcc60
 331 -18 l 1xc460
 369 -28 391 -49 391 -83 c 0
 391 -112 367 -170 278 -170 c 0
 225 -170 175 -157 152 -150 c 1
 177 -82 l 1
 193 -86 251 -100 283 -100 c 0
 299 -100 306 -95 306 -93 c 0
 306 -91 300 -87 293 -85 c 0
 285 -83 249 -79 238 -77 c 1
 260 -10 l 1
 206 -2 178 21 151 48 c 1x94a0
 131 -18 l 1xc4a0
 49 -5 l 1x8ca0
 83 84 90 110 101 204 c 1
 178 204 l 1
 178 155 177 150 183 135 c 0xa4a0
 203 85 271 75 311 75 c 0
 414 75 465 132 465 185 c 0
 465 242 413 246 347 251 c 0
 291 256 255 269 229 288 c 0
 192 316 168 365 168 412 c 0
 168 503 255 602 401 602 c 0
 454 602 506 586 540 542 c 1xa460
 569 606 l 1x8960
 645 583 l 1x8a60
 602 495 597 466 580 371 c 1
 504 383 l 1
 507 397 510 412 510 432 c 0
 510 504 448 516 405 516 c 0
 317 516 259 468 259 413 c 0
 259 349 311 344 389 338 c 0
 523 326 556 247 556 188 c 0
 556 114 501 -3 333 -13 c 1xcc60
EndSplineSet
EndChar

StartChar: brokenbar
Encoding: 266 166 159
Width: 600
Flags: MW
HStem: -184 857<315 414 315 414>
VStem: 315 99<-184 191 -184 191 298 673>
LayerCount: 2
Fore
SplineSet
414 673 m 1
 414 298 l 1
 315 298 l 1
 315 673 l 1
 414 673 l 1
414 191 m 1
 414 -184 l 1
 315 -184 l 1
 315 191 l 1
 414 191 l 1
EndSplineSet
EndChar

StartChar: SM680000
Encoding: 267 8976 160
Width: 600
Flags: MW
HStem: 373 89<242 607 242 242>
VStem: 153 89<163 373 163 462>
LayerCount: 2
Fore
SplineSet
607 462 m 1
 607 373 l 1
 242 373 l 1
 242 163 l 1
 153 163 l 1
 153 462 l 1
 607 462 l 1
EndSplineSet
EndChar

StartChar: arrowright
Encoding: 268 8594 161
Width: 600
Flags: MW
HStem: 257 60<26 435 26 435>
VStem: 26 556<283.5 293.5 283.5 317 283.5 317>
LayerCount: 2
Fore
SplineSet
26 257 m 1
 26 317 l 1
 435 317 l 1
 417 346 395 386 395 402 c 0
 395 409 400 421 416 421 c 0
 424 421 427 418 453 391 c 0
 487 354 521 335 565 309 c 0
 572 305 582 298 582 289 c 0
 582 278 580 277 538 251 c 0
 494 223 474 210 436 165 c 0
 431 160 426 154 416 154 c 0
 401 154 395 166 395 173 c 0
 395 175 399 204 435 257 c 1
 26 257 l 1
EndSplineSet
EndChar

StartChar: approxequal
Encoding: 269 8776 162
Width: 600
Flags: W
HStem: 117 102<459 481 459 500> 174 102<272 293.5> 336 102<459 481 459 500> 393 102<272 293.5>
VStem: 152 444<164 224 224 383>
LayerCount: 2
Fore
SplineSet
539 510 m 1x78
 596 443 l 1
 565 392 533 336 467 336 c 0
 444 336 421 344 407 350 c 0
 401 352 374 364 368 366 c 2
 355 371 l 2xa8
 346 375 334 379 331 381 c 0
 306 392 299 393 288 393 c 0
 256 393 240 367 211 314 c 1
 152 383 l 1
 179 430 217 495 285 495 c 0x58
 309 495 335 489 393 464 c 0
 446 441 452 438 466 438 c 0
 496 438 516 471 532 499 c 0
 533 500 538 508 539 510 c 1x78
539 291 m 1
 596 224 l 1
 565 173 533 117 467 117 c 0
 444 117 421 125 407 131 c 0
 401 133 374 145 368 147 c 2
 355 152 l 2x98
 346 156 334 160 331 162 c 0
 306 173 299 174 288 174 c 0
 256 174 240 148 211 95 c 1
 152 164 l 1
 179 211 217 276 285 276 c 0x58
 309 276 335 270 393 245 c 0
 446 222 452 219 466 219 c 0
 496 219 516 252 532 280 c 0
 533 281 538 289 539 291 c 1
EndSplineSet
EndChar

StartChar: club
Encoding: 270 9827 163
Width: 600
Flags: MW
HStem: 0 16<111 111 107 111> 125 21G<109.5 176.5 436 492> 234 21G<293 295 293 293 307 307>
VStem: 295 10<232 232 232 234 232 234>
LayerCount: 2
Fore
SplineSet
495 0 m 1
 107 0 l 1
 111 16 l 1
 117 17 l 1
 197 35 217 44 246 78 c 0
 277 114 295 164 295 212 c 2
 295 234 l 1
 293 234 l 1
 260 163 208 125 145 125 c 0
 74 125 18 181 18 253 c 0
 18 321 66 377 128 379 c 0
 157 377 166 374 201 356 c 1
 203 358 l 1
 178 398 172 412 172 439 c 0
 172 509 227 563 299 563 c 0
 370 563 426 509 426 441 c 0
 426 411 417 387 395 358 c 1
 397 356 l 1
 411 364 l 2
 438 377 449 380 469 380 c 0
 532 380 582 324 582 255 c 0
 582 183 527 125 457 125 c 0
 415 125 368 149 338 184 c 0
 327 196 320 207 307 234 c 1
 305 232 l 1
 306 171 314 137 336 103 c 0
 368 54 404 33 482 18 c 2
 491 16 l 1
 495 0 l 1
EndSplineSet
EndChar

StartChar: SS010000
Encoding: 271 9787 164
Width: 600
Flags: MW
HStem: 0 110<268 329.5 268 377.5> 403 160<222 224.5 222 403>
VStem: 18 99<314 314 314 359.5> 255 94<349 372 348.5 372.5> 483 99<314 316 314 314>
LayerCount: 2
Fore
SplineSet
300 563 m 0
 455 563 582 437 582 282 c 0
 582 126 455 0 300 0 c 0
 145 0 18 126 18 282 c 0
 18 437 144 563 300 563 c 0
213 403 m 0
 189 403 170 384 170 361 c 0
 170 337 189 318 213 318 c 0
 236 318 255 337 255 361 c 0
 255 384 236 403 213 403 c 0
391 403 m 0
 368 403 349 384 349 360 c 0
 349 337 368 318 391 318 c 0
 415 318 434 337 434 360 c 0
 434 384 415 403 391 403 c 0
483 316 m 1
 483 314 l 1
 481 316 l 1
 475 277 467 261 447 238 c 0
 410 195 363 175 300 175 c 0
 238 175 191 195 154 238 c 0
 134 261 126 277 119 316 c 1
 117 314 l 1
 122 249 131 219 154 184 c 0
 186 135 236 110 300 110 c 0
 359 110 406 131 439 172 c 0
 468 209 478 244 483 316 c 1
EndSplineSet
EndChar

StartChar: SM490000
Encoding: 272 -1 165
Width: 600
Flags: MW
HStem: 0 21G<71 71 531 531> 72 64<263.5 334 263.5 347.5> 533 64<264.5 335>
VStem: 83 64<307.5 364 307.5 382.5> 453 64<334 334>
LayerCount: 2
Fore
SplineSet
21 612 m 1
 71 670 l 1
 156 616 217 597 300 597 c 0
 385 597 443 615 531 670 c 1
 579 612 l 1
 536 517 516 430 517 334 c 0
 518 234 538 143 579 59 c 1
 531 0 l 1
 457 51 390 72 305 72 c 0
 218 72 148 51 71 0 c 1
 21 59 l 1
 62 142 83 234 83 334 c 0
 83 431 63 518 21 612 c 1
100 588 m 1
 114 535 l 1
 139 465 147 394 147 334 c 0
 147 281 137 200 115 135 c 2
 100 81 l 1
 177 122 229 136 298 136 c 0
 370 136 426 121 499 81 c 1
 484 135 l 2
 466 199 453 281 453 334 c 0
 453 394 458 464 483 535 c 2
 501 586 l 1
 499 588 l 1
 444 551 372 533 298 533 c 0
 231 533 168 550 100 588 c 1
EndSplineSet
EndChar

StartChar: arrowup
Encoding: 273 8593 166
Width: 600
Flags: MW
HStem: 0 21G<271 331 271 271> 568 20G<294.5 304.5>
VStem: 271 60<0 441>
LayerCount: 2
Fore
SplineSet
331 0 m 1
 271 0 l 1
 271 441 l 1
 242 423 202 401 186 401 c 0
 179 401 167 406 167 422 c 0
 167 430 170 433 197 459 c 0
 233 494 253 527 279 571 c 0
 283 578 290 588 299 588 c 0
 310 588 311 586 337 544 c 0
 364 500 378 480 423 442 c 0
 428 437 434 432 434 422 c 0
 434 407 422 401 415 401 c 0
 413 401 384 405 331 441 c 1
 331 0 l 1
EndSplineSet
EndChar

StartChar: SF020000
Encoding: 274 9492 167
Width: 600
Flags: MW
HStem: 216 72<336 600 336 600>
VStem: 264 72<288 288 288 792>
LayerCount: 2
Fore
SplineSet
336 288 m 1
 600 288 l 1
 600 216 l 1
 264 216 l 1
 264 792 l 1
 336 792 l 1
 336 288 l 1
EndSplineSet
EndChar

StartChar: SF610000
Encoding: 275 9608 168
Width: 600
Flags: MW
HStem: -288 1080<0 600 0 600>
VStem: 0 600<-288 792 -288 792>
LayerCount: 2
Fore
SplineSet
0 -288 m 1
 0 792 l 1
 600 792 l 1
 600 -288 l 1
 0 -288 l 1
EndSplineSet
EndChar

StartChar: commasuperior
Encoding: 276 -1 169
Width: 600
Flags: MW
HStem: 197 174<227 445 227 445>
VStem: 227 218<197 371>
LayerCount: 2
Fore
SplineSet
328 371 m 1
 445 371 l 1
 318 197 l 1
 227 197 l 1
 328 371 l 1
EndSplineSet
EndChar

StartChar: zeroslash
Encoding: 277 -1 170
Width: 600
Flags: W
HStem: -17 21G<117 117> -14 84<300 314.5 300 317.5> 0 21G<232 232> 555 84<354 424> 608 20G<488 488> 616 20G<598 598>
VStem: 142 91<187 187 187 231.5> 488 91<445 445>
LayerCount: 2
Fore
SplineSet
488 628 m 1x3b
 520 681 l 1x2b
 598 636 l 1
 557 566 l 1
 572 536 579 496 579 456 c 0
 579 314 530 164 477 87 c 0
 414 -5 327 -14 308 -14 c 0x47
 277 -14 247 -12 232 0 c 1
 195 -62 l 1x33
 117 -17 l 1
 164 64 l 1
 148 95 142 140 142 175 c 0
 142 288 191 639 427 639 c 0x93
 438 639 461 637 488 628 c 1x3b
235 185 m 1
 445 550 l 1
 440 552 431 555 417 555 c 0x53
 291 555 238 320 233 187 c 1
 235 185 l 1
486 447 m 1
 275 76 l 1
 280 73 293 70 307 70 c 0
 322 70 365 80 403 134 c 0
 472 232 480 357 488 445 c 1
 486 447 l 1
EndSplineSet
EndChar

StartChar: Tcedilla
Encoding: 278 354 171
Width: 600
Flags: W
HStem: -170 70<281.5 297.5 281.5 333.5> -18 21G<342 342> 0 82<157 273 157 274 139 273 361 461 157 348> 501 82<236 361 236 236 448 448 448 574>
VStem: 103 570<341 583> 317 85<-95 -89.5>
LayerCount: 2
Fore
SplineSet
348 0 m 1xb8
 342 -18 l 1xd4
 375 -27 402 -46 402 -83 c 0
 402 -112 378 -170 289 -170 c 0
 237 -170 186 -157 162 -150 c 1
 188 -82 l 1
 231 -92 269 -100 294 -100 c 0
 301 -100 317 -98 317 -92 c 0
 317 -87 295 -83 294 -83 c 0
 291 -82 264 -79 249 -77 c 1
 274 0 l 1xb4
 139 0 l 1
 157 82 l 1
 273 82 l 1
 361 501 l 1
 236 501 l 1
 191 341 l 1
 103 341 l 1
 172 583 l 1
 673 583 l 1
 639 341 l 1
 552 341 l 1
 574 501 l 1
 448 501 l 1
 361 82 l 1
 479 82 l 1
 461 0 l 1
 348 0 l 1xb8
EndSplineSet
EndChar

StartChar: carriagereturn
Encoding: 279 8629 172
Width: 600
Flags: MW
HStem: 257 60<165 514 165 574 165 514>
VStem: 514 60<317 527>
LayerCount: 2
Fore
SplineSet
574 257 m 1
 165 257 l 1
 203 202 205 173 205 173 c 2
 205 168 201 154 185 154 c 0
 175 154 169 160 151 181 c 0
 137 198 112 223 37 266 c 0
 26 272 18 276 18 289 c 0
 18 300 32 307 43 313 c 0
 93 340 130 369 159 404 c 0
 167 413 174 421 184 421 c 0
 201 421 205 408 205 402 c 0
 205 384 181 342 165 317 c 1
 514 317 l 1
 514 527 l 1
 574 527 l 1
 574 257 l 1
EndSplineSet
EndChar

StartChar: diamond
Encoding: 280 9830 173
Width: 600
Flags: MW
HStem: -11 21G
VStem: 90 420<276 276>
LayerCount: 2
Fore
SplineSet
100 265 m 1
 90 276 l 1
 105 294 116 308 145 344 c 0
 189 400 199 412 214 434 c 0
 249 481 274 518 299 563 c 1
 328 513 361 466 414 395 c 0
 447 353 475 316 492 297 c 0
 498 290 501 286 510 276 c 1
 495 261 482 245 458 215 c 2
 402 142 l 2
 367 96 327 37 300 -11 c 1
 288 12 273 35 248 71 c 0
 201 137 169 180 149 205 c 2
 100 265 l 1
EndSplineSet
EndChar

StartChar: SF440000
Encoding: 281 9580 174
Width: 600
Flags: MW
HStem: 144 72<0 192 0 264 408 408 408 600> 288 72<0 192 0 264 0 192 408 600>
VStem: 192 72<-288 144 144 144 360 792> 336 72<-288 144 -288 216 360 792>
LayerCount: 2
Fore
SplineSet
264 216 m 1
 264 -288 l 1
 192 -288 l 1
 192 144 l 1
 0 144 l 1
 0 216 l 1
 264 216 l 1
264 288 m 1
 0 288 l 1
 0 360 l 1
 192 360 l 1
 192 792 l 1
 264 792 l 1
 264 288 l 1
336 216 m 1
 600 216 l 1
 600 144 l 1
 408 144 l 1
 408 -288 l 1
 336 -288 l 1
 336 216 l 1
336 288 m 1
 336 792 l 1
 408 792 l 1
 408 360 l 1
 600 360 l 1
 600 288 l 1
 336 288 l 1
EndSplineSet
EndChar

StartChar: trademark
Encoding: 282 8482 175
Width: 600
Flags: MW
HStem: 259 39<122 140 122 247 115 140 344 357> 540 43<213 213 269 285 269 269>
VStem: 312 41
LayerCount: 2
Fore
SplineSet
356 535 m 2
 350 500 l 2
 349 497 348 490 348 487 c 1
 307 487 l 1
 311 506 312 514 312 523 c 0
 312 535 307 540 285 540 c 2
 269 540 l 1
 220 307 l 2
 220 298 228 297 256 298 c 1
 247 259 l 1
 115 259 l 1
 122 298 l 1
 158 298 162 298 166 316 c 2
 213 540 l 1
 183 538 166 537 156 487 c 1
 115 487 l 1
 116 489 118 498 119 500 c 0
 132 541 135 551 142 583 c 1
 365 583 l 1
 365 582 364 576 363 574 c 0
 361 565 357 543 356 535 c 2
392 546 m 1
 400 583 l 1
 490 583 l 1
 515 393 l 1
 517 393 l 1
 616 583 l 1
 704 583 l 1
 696 546 l 1
 671 546 668 546 664 527 c 2
 622 316 l 2
 619 300 622 300 647 298 c 1
 640 259 l 1
 527 259 l 1
 534 298 l 1
 563 299 564 299 568 316 c 2
 598 471 l 1
 596 473 l 1
 490 259 l 1
 474 259 l 1
 446 479 l 1
 444 479 l 1
 413 316 l 1
 412 305 l 2
 412 299 414 299 438 298 c 1
 431 259 l 1
 336 259 l 1
 344 298 l 1
 370 298 373 298 377 321 c 2
 418 527 l 2
 421 542 418 545 403 545 c 0
 399 545 396 545 392 546 c 1
EndSplineSet
EndChar

StartChar: sigma
Encoding: 283 963 176
Width: 600
Flags: W
HStem: -15 84<220 316 220 336> 389 84<277 649> 393 80
VStem: 50 88<163 230.5> 455 88<218 299>
LayerCount: 2
Fore
SplineSet
649 473 m 1xd8
 631 388 l 1
 484 398 l 1
 482 396 l 1xb8
 504 382 543 353 543 271 c 0
 543 134 418 -15 254 -15 c 0
 125 -15 50 85 50 179 c 0
 50 282 113 373 182 420 c 0
 261 474 363 473 420 473 c 2
 649 473 l 1xd8
334 389 m 0xd8
 220 389 138 288 138 192 c 0
 138 134 177 69 263 69 c 0
 369 69 455 168 455 268 c 0
 455 330 411 389 334 389 c 0xd8
EndSplineSet
EndChar

StartChar: Kcedilla
Encoding: 284 310 177
Width: 600
Flags: W
HStem: -170 70<342.5 358.5 342.5 394.5> -18 25<404 404> 0 7 0 82<61 143 231 295 43 143 509 593> 501 82<167 231 149 413 319 393 319 319 167 442 459 486 620 620 620 671>
VStem: 43 646<0 583> 378 85<-95 -89.5>
LayerCount: 2
Fore
SplineSet
167 583 m 1x9c
 413 583 l 1
 393 501 l 1
 319 501 l 1
 288 348 l 1
 486 499 l 1
 486 501 l 1
 442 501 l 1
 459 583 l 1
 689 583 l 1
 671 501 l 1
 620 501 l 1
 393 323 l 1
 444 242 464 195 509 82 c 1
 611 82 l 1
 593 0 l 1
 445 0 l 1
 405 112 384 159 319 270 c 1
 262 227 l 1
 231 82 l 1
 313 82 l 1
 295 0 l 1
 43 0 l 1
 61 82 l 1
 143 82 l 1
 231 501 l 1
 149 501 l 1
 167 583 l 1x9c
412 7 m 1xaa
 404 -18 l 1xca
 436 -27 463 -46 463 -83 c 0
 463 -112 439 -170 350 -170 c 0
 298 -170 247 -157 224 -150 c 1
 249 -82 l 1
 292 -92 330 -100 355 -100 c 0
 362 -100 378 -98 378 -92 c 0
 378 -87 356 -83 355 -83 c 0
 352 -82 325 -79 310 -77 c 1
 338 7 l 1
 412 7 l 1xaa
EndSplineSet
EndChar

StartChar: tquoteright
Encoding: 285 -1 178
Width: 600
Flags: MW
HStem: -14 86<283 313.5 283 315.5> 357 84<140 189 122 206 294 491 140 276> 563 20G<236 323 323 323 647 793 793 793>
VStem: 139 88<94 110.5>
LayerCount: 2
Fore
SplineSet
236 583 m 1
 323 583 l 1
 294 441 l 1
 508 441 l 1
 491 357 l 1
 276 357 l 1
 239 189 l 2
 234 164 227 132 227 115 c 0
 227 73 278 72 288 72 c 0
 339 72 379 84 517 138 c 1
 517 47 l 1
 418 5 345 -14 286 -14 c 0
 188 -14 139 47 139 101 c 0
 139 120 142 137 155 198 c 2
 189 357 l 1
 122 357 l 1
 140 441 l 1
 206 441 l 1
 236 583 l 1
647 583 m 1
 793 583 l 1
 613 309 l 1
 503 309 l 1
 647 583 l 1
EndSplineSet
EndChar

StartChar: aogonek
Encoding: 286 261 179
Width: 600
Flags: W
HStem: -144 66<368 441> -14 86<209.5 254 209.5 254> 0 82<516.5 520 520 557> 223 84<259.5 350.5> 388 86<343.5 386>
VStem: 70 91<106.5 136.5 106.5 159> 311 96<-69.5 -62.5> 451 91<345 363.5>
LayerCount: 2
Fore
SplineSet
575 82 m 1x3f
 557 0 l 1
 520 0 l 2x3f
 513 0 407 -28 407 -63 c 0
 407 -76 423 -78 430 -78 c 0
 452 -78 459 -75 518 -47 c 1
 483 -116 l 1
 457 -130 429 -144 386 -144 c 0
 350 -144 311 -126 311 -86 c 0
 311 -39 361 -11 382 0 c 1
 390 36 l 1
 350 16 290 -14 218 -14 c 0xdf
 128 -14 70 47 70 119 c 0
 70 199 148 307 332 307 c 0
 376 307 408 303 447 298 c 1
 447 310 l 1
 451 345 l 1
 451 382 399 388 373 388 c 0
 306 388 240 363 184 341 c 1
 166 424 l 1
 237 450 303 474 384 474 c 0
 471 474 542 433 542 354 c 0
 542 334 536 307 535 301 c 2
 489 82 l 1
 575 82 l 1x3f
413 146 m 1x5f
 428 215 l 1
 398 219 370 223 331 223 c 0
 188 223 161 150 161 123 c 0
 161 90 196 72 223 72 c 0
 285 72 377 119 413 146 c 1x5f
EndSplineSet
EndChar

StartChar: SF280000
Encoding: 287 9563 180
Width: 600
Flags: MW
HStem: 144 72<0 264 0 336 0 264> 288 72<0 264 0 264>
VStem: 264 72<216 288 288 288 360 792 144 792>
LayerCount: 2
Fore
SplineSet
336 792 m 1
 336 144 l 1
 0 144 l 1
 0 216 l 1
 264 216 l 1
 264 288 l 1
 0 288 l 1
 0 360 l 1
 264 360 l 1
 264 792 l 1
 336 792 l 1
EndSplineSet
EndChar

StartChar: tbar
Encoding: 288 359 181
Width: 600
Flags: MW
HStem: -14 86<325.5 348 325.5 360> 245 78<155 205 139 221 307 525 155 291> 363 78<181 231 165 247 181 317 333 551> 563 20G<276 363 363 363>
VStem: 180 88<92.5 118.5 92.5 120.5>
LayerCount: 2
Fore
SplineSet
307 323 m 1
 542 323 l 1
 525 245 l 1
 291 245 l 1
 280 189 l 2
 270 137 268 125 268 112 c 0
 268 73 322 72 329 72 c 0
 367 72 400 77 542 131 c 1
 559 49 l 1
 469 11 394 -14 326 -14 c 0
 246 -14 180 29 180 107 c 0
 180 134 183 143 195 198 c 2
 205 245 l 1
 139 245 l 1
 155 323 l 1
 221 323 l 1
 231 363 l 1
 165 363 l 1
 181 441 l 1
 247 441 l 1
 276 583 l 1
 363 583 l 1
 333 441 l 1
 567 441 l 1
 551 363 l 1
 317 363 l 1
 307 323 l 1
EndSplineSet
EndChar

StartChar: SF600000
Encoding: 289 9600 182
Width: 600
Flags: MW
HStem: 252 540<0 600 0 600>
VStem: 0 600<252 792 252 792>
LayerCount: 2
Fore
SplineSet
0 252 m 1
 0 792 l 1
 600 792 l 1
 600 252 l 1
 0 252 l 1
EndSplineSet
EndChar

StartChar: registered
Encoding: 290 174 183
Width: 600
Flags: MW
HStem: 13 58<297 425.5 297 442.5> 159 34<210 226 339 348 203 226 495.5 497> 293 38<348 352> 436 38<391 409 409 413> 541 58<297 425.5>
VStem: 68 58<241 371.5 241 388> 438 75<393.5 412.5> 597 58<241 371.5>
LayerCount: 2
Fore
SplineSet
271 474 m 1
 409 474 l 2
 442 474 513 474 513 405 c 0
 513 382 496 327 434 309 c 1
 448 297 453 289 464 246 c 0
 475 201 477 199 481 196 c 0
 485 193 487 193 504 193 c 1
 497 159 l 1
 458 159 l 2
 408 159 402 167 389 230 c 0
 378 284 374 287 370 290 c 0
 366 293 363 293 341 293 c 1
 323 211 l 2
 322 206 322 201 322 200 c 0
 322 193 325 193 353 193 c 1
 348 159 l 1
 203 159 l 1
 210 193 l 1
 242 193 245 193 249 211 c 2
 294 422 l 2
 297 438 294 438 263 438 c 1
 271 474 l 1
370 434 m 1
 348 331 l 1
 379 331 438 332 438 402 c 0
 438 423 428 436 398 436 c 0
 384 436 377 436 370 434 c 1
361 599 m 0
 521 599 655 470 655 306 c 0
 655 146 524 13 361 13 c 0
 199 13 68 145 68 306 c 0
 68 470 202 599 361 599 c 0
361 541 m 0
 233 541 126 437 126 306 c 0
 126 176 233 71 361 71 c 0
 490 71 597 176 597 306 c 0
 597 437 490 541 361 541 c 0
EndSplineSet
EndChar

StartChar: threeeighths
Encoding: 291 8540 184
Width: 600
Flags: W
HStem: -88 56<451 488 451 496.5> 83 56<489 508.5> 249 56<507 542> 431 56<167 188> 445 20G 588 56<215 234> 604 20G<713 713>
VStem: 249 61<365 401> 266 61 349 62<0.5 24.5> 392 62<172 202.5 172 209> 547 62<17 49> 578 62<198 219>
LayerCount: 2
Fore
SplineSet
349 3 m 0xed70
 349 46 373 84 418 113 c 1
 399 136 392 152 392 175 c 0
 392 243 462 305 539 305 c 0
 597 305 640 268 640 219 c 0xed28
 640 177 621 146 578 113 c 1
 599 96 609 74 609 49 c 0
 609 -24 538 -88 455 -88 c 0
 393 -88 349 -50 349 3 c 0xed70
454 185 m 0xed28
 454 159 475 139 503 139 c 0
 541 139 578 172 578 206 c 0
 578 232 557 249 527 249 c 0
 487 249 454 220 454 185 c 0xed28
411 14 m 0xed50
 411 -13 435 -32 467 -32 c 0
 509 -32 547 -1 547 35 c 0
 547 63 525 83 492 83 c 0
 448 83 411 50 411 14 c 0xed50
123 549 m 1
 103 596 l 1
 170 634 196 644 234 644 c 0
 288 644 325 612 327 563 c 1xecb0
 324 518 312 495 277 465 c 1xed30
 299 448 310 423 310 395 c 0
 310 318 235 251 150 251 c 0
 119 251 98 257 56 275 c 2
 31 286 l 1
 65 339 l 1
 110 315 135 307 163 307 c 0
 211 307 249 343 249 387 c 0
 249 415 227 432 188 431 c 2
 155 430 l 1
 167 487 l 1xf530
 214 488 226 490 244 505 c 0
 258 517 266 534 266 551 c 0
 266 572 247 588 221 588 c 0xf4b0
 200 588 183 581 149 563 c 2
 123 549 l 1
672 657 m 1
 713 624 l 1xeb30
 39 -94 l 1
 0 -58 l 1
 672 657 l 1
EndSplineSet
EndChar

StartChar: delta
Encoding: 292 948 185
Width: 600
Flags: MW
HStem: -15 82<240.5 330.5 240.5 344> 363 72<330 330 330 357.5> 551 82<206 587 320 570 320 320>
VStem: 79 86<152 224> 465 86<206.5 289 186.5 304.5>
LayerCount: 2
Fore
SplineSet
587 633 m 1
 570 551 l 1
 320 551 l 1
 446 444 l 2
 531 371 551 316 551 262 c 0
 551 111 415 -15 273 -15 c 0
 159 -15 79 68 79 174 c 0
 79 274 163 425 330 435 c 1
 254 501 l 2
 231 521 222 529 206 551 c 1
 223 633 l 1
 587 633 l 1
348 363 m 0
 240 363 165 269 165 180 c 0
 165 124 203 67 278 67 c 0
 383 67 465 161 465 252 c 0
 465 357 367 363 348 363 c 0
EndSplineSet
EndChar

StartChar: SF420000
Encoding: 293 9568 186
Width: 600
Flags: MW
HStem: 144 72<408 600 408 408> 288 72<408 600 408 600>
VStem: 192 72<-288 792 -288 792> 336 72<-288 144 -288 216 360 792>
LayerCount: 2
Fore
SplineSet
192 -288 m 1
 192 792 l 1
 264 792 l 1
 264 -288 l 1
 192 -288 l 1
336 216 m 1
 600 216 l 1
 600 144 l 1
 408 144 l 1
 408 -288 l 1
 336 -288 l 1
 336 216 l 1
336 288 m 1
 336 792 l 1
 408 792 l 1
 408 360 l 1
 600 360 l 1
 600 288 l 1
 336 288 l 1
EndSplineSet
EndChar

StartChar: SF480000
Encoding: 294 9573 187
Width: 600
Flags: MW
HStem: 216 72<0 192 0 600 264 336 264 264 408 408 408 600>
VStem: 192 72<-288 216 -288 216> 336 72<-288 216 -288 216>
LayerCount: 2
Fore
SplineSet
336 216 m 1
 264 216 l 1
 264 -288 l 1
 192 -288 l 1
 192 216 l 1
 0 216 l 1
 0 288 l 1
 600 288 l 1
 600 216 l 1
 408 216 l 1
 408 -288 l 1
 336 -288 l 1
 336 216 l 1
EndSplineSet
EndChar

StartChar: SM570001
Encoding: 295 9688 188
Width: 600
Flags: MW
HStem: 0 141<273 327 273 539> 338 141<273 327>
VStem: 61 140<212 266.5 212 479> 399 140<212 266.5>
LayerCount: 2
Fore
SplineSet
61 0 m 1
 61 479 l 1
 539 479 l 1
 539 0 l 1
 61 0 l 1
300 338 m 0
 246 338 201 294 201 239 c 0
 201 185 246 141 300 141 c 0
 354 141 399 185 399 239 c 0
 399 294 354 338 300 338 c 0
EndSplineSet
EndChar

StartChar: SF010000
Encoding: 296 9484 189
Width: 600
Flags: MW
HStem: 216 72<336 336 336 600>
VStem: 264 72<-288 216 -288 288>
LayerCount: 2
Fore
SplineSet
336 216 m 1
 336 -288 l 1
 264 -288 l 1
 264 288 l 1
 600 288 l 1
 600 216 l 1
 336 216 l 1
EndSplineSet
EndChar

StartChar: dquoteright
Encoding: 297 -1 190
Width: 600
Flags: W
HStem: -10 86<216.5 269.5> 0 82<483 546> 371 86<269.5 345> 563 20G<714 860 860 860> 628 20G<602 602>
VStem: 42 93<146 234.5 146 254>
LayerCount: 2
Fore
SplineSet
358 626 m 1x7c
 602 648 l 1
 483 82 l 1
 564 82 l 1
 546 0 l 1
 377 0 l 1x7c
 385 38 l 1
 355 17 303 -10 236 -10 c 0xbc
 110 -10 42 85 42 180 c 0
 42 328 180 457 322 457 c 0
 378 457 422 439 463 402 c 1
 494 551 l 1
 330 539 l 1
 358 626 l 1x7c
427 257 m 0
 427 341 370 371 320 371 c 0
 219 371 135 283 135 186 c 0
 135 106 195 76 238 76 c 0xbc
 349 76 427 178 427 257 c 0
714 583 m 1x7c
 860 583 l 1
 679 309 l 1
 570 309 l 1
 714 583 l 1x7c
EndSplineSet
EndChar

StartChar: SS000000
Encoding: 298 9786 191
Width: 600
Flags: MW
HStem: 0 38<232.5 367.5 232.5 377.5> 110 65<269 329.5> 321 78<205 227 373.5 395> 525 38<232.5 367.5>
VStem: 18 38<214.5 349.5 214.5 359.5> 177 78<349.5 371> 345 78<348.5 370> 544 38<214.5 349.5>
LayerCount: 2
Fore
SplineSet
300 563 m 0
 455 563 582 437 582 282 c 0
 582 126 455 0 300 0 c 0
 145 0 18 126 18 282 c 0
 18 437 144 563 300 563 c 0
300 525 m 0
 165 525 56 417 56 282 c 0
 56 147 165 38 300 38 c 0
 435 38 544 147 544 282 c 0
 544 417 435 525 300 525 c 0
216 399 m 0
 238 399 255 382 255 360 c 0
 255 339 238 321 216 321 c 0
 194 321 177 339 177 360 c 0
 177 382 194 399 216 399 c 0
384 399 m 0
 406 399 423 381 423 359 c 0
 423 337 406 321 384 321 c 0
 363 321 345 338 345 359 c 0
 345 381 363 399 384 399 c 0
483 316 m 1
 478 244 467 209 438 172 c 0
 406 131 359 110 300 110 c 0
 236 110 186 135 154 184 c 0
 131 219 122 249 117 316 c 1
 126 277 134 261 154 238 c 0
 191 195 238 175 300 175 c 0
 363 175 410 195 447 238 c 0
 467 261 474 277 483 316 c 1
EndSplineSet
EndChar

StartChar: plussuperior
Encoding: 299 8314 192
Width: 600
Flags: W
HStem: 409 67<163 292 163 292 368 497> 409 183<163 368 163 368 292 497 292 368>
VStem: 292 76<292 409 292 409 476 592>
LayerCount: 2
Fore
SplineSet
292 592 m 1xe0
 368 592 l 1x60
 368 476 l 1
 497 476 l 1
 497 409 l 1
 368 409 l 1
 368 292 l 1
 292 292 l 1
 292 409 l 1
 163 409 l 1
 163 476 l 1
 292 476 l 1xa0
 292 592 l 1xe0
EndSplineSet
EndChar

StartChar: divide
Encoding: 300 247 193
Width: 600
Flags: MW
HStem: 76 126<345 381> 269 88<117 609 117 609> 424 126<344.5 381 344.5 381.5>
VStem: 300 126<123 156.5 123 157 471 503.5>
LayerCount: 2
Fore
SplineSet
363 550 m 0
 399 550 426 521 426 487 c 0
 426 455 400 424 363 424 c 0
 325 424 300 455 300 487 c 0
 300 520 326 550 363 550 c 0
117 357 m 1
 609 357 l 1
 609 269 l 1
 117 269 l 1
 117 357 l 1
363 202 m 0
 399 202 426 173 426 140 c 0
 426 106 399 76 363 76 c 0
 327 76 300 106 300 140 c 0
 300 174 327 202 363 202 c 0
EndSplineSet
EndChar

StartChar: uogonek
Encoding: 301 371 194
Width: 600
Flags: W
HStem: -144 66<383 457> -14 86<247 294 247 302.5> 0 82<532.5 536 536 562> 371 82<113 174 96 281 410 474>
VStem: 127 88<118.5 135 118.5 138> 327 96<-106 -45.5>
LayerCount: 2
Fore
SplineSet
580 82 m 1x7c
 562 0 l 1
 536 0 l 2x3c
 529 0 423 -28 423 -63 c 0
 423 -76 439 -78 446 -78 c 0
 468 -78 474 -75 533 -47 c 1
 499 -116 l 1
 473 -130 444 -144 401 -144 c 0
 365 -144 327 -126 327 -86 c 0
 327 -71 333 -34 396 0 c 1
 404 30 l 1
 382 16 338 -14 267 -14 c 0
 150 -14 127 85 127 127 c 0
 127 149 133 178 134 183 c 2
 174 371 l 1
 96 371 l 1
 113 453 l 1
 281 453 l 1
 221 175 l 2
 220 169 215 144 215 126 c 0
 215 111 225 72 269 72 c 0
 319 72 376 100 427 149 c 1xdc
 474 371 l 1
 392 371 l 1
 410 453 l 1
 580 453 l 1
 502 82 l 1
 580 82 l 1x7c
EndSplineSet
EndChar

StartChar: SF410000
Encoding: 302 9574 195
Width: 600
Flags: MW
HStem: 144 72<0 192 0 264 408 600 408 408> 288 72<0 600 0 600>
VStem: 192 72<-288 144 144 144> 336 72<-288 144>
LayerCount: 2
Fore
SplineSet
408 -288 m 1
 336 -288 l 1
 336 216 l 1
 600 216 l 1
 600 144 l 1
 408 144 l 1
 408 -288 l 1
0 216 m 1
 264 216 l 1
 264 -288 l 1
 192 -288 l 1
 192 144 l 1
 0 144 l 1
 0 216 l 1
600 288 m 1
 0 288 l 1
 0 360 l 1
 600 360 l 1
 600 288 l 1
EndSplineSet
EndChar

StartChar: SM630000
Encoding: 303 9664 196
Width: 600
Flags: MW
HStem: 83 397<560 560>
VStem: 0 560<282 282>
LayerCount: 2
Fore
SplineSet
560 83 m 1
 0 282 l 1
 560 480 l 1
 560 83 l 1
EndSplineSet
EndChar

StartChar: Aogonek
Encoding: 304 260 197
Width: 600
Flags: MW
HStem: -144 66<402 476> 0 82<12 68 163 233 -6 68 375 417 556 596> 179 84<274 432 274 447 223 432> 501 82<218 327 200 458>
VStem: 346 95<-69.5 -61.5>
LayerCount: 2
Fore
SplineSet
552 -47 m 1
 517 -116 l 1
 491 -130 463 -144 420 -144 c 0
 384 -144 346 -126 346 -86 c 0
 346 -37 398 -10 417 -2 c 1
 417 0 l 1
 357 0 l 1
 375 82 l 1
 464 82 l 1
 447 179 l 1
 223 179 l 1
 163 82 l 1
 251 82 l 1
 233 0 l 1
 -6 0 l 1
 12 82 l 1
 68 82 l 1
 327 501 l 1
 200 501 l 1
 218 583 l 1
 458 583 l 1
 556 82 l 1
 614 82 l 1
 596 0 l 1
 554 0 l 1
 525 -6 441 -32 441 -63 c 0
 441 -76 458 -78 465 -78 c 0
 487 -78 493 -75 552 -47 c 1
432 263 m 1
 394 453 l 1
 274 263 l 1
 432 263 l 1
EndSplineSet
EndChar

StartChar: SF070000
Encoding: 305 9524 198
Width: 600
Flags: MW
HStem: 216 72<0 264 336 600 0 264>
VStem: 264 72<288 792>
LayerCount: 2
Fore
SplineSet
336 288 m 1
 600 288 l 1
 600 216 l 1
 0 216 l 1
 0 288 l 1
 264 288 l 1
 264 792 l 1
 336 792 l 1
 336 288 l 1
EndSplineSet
EndChar

StartChar: scedilla
Encoding: 306 351 199
Width: 600
Flags: W
HStem: -170 70<285.5 301.5 285.5 338> -18 21G<347 347> -15 21G<159 159> -10 21G<349 349> -8 21G<276 276> -8 83<276 350> -4 21G<81 81> 383 86<330 372 309.5 382> 446 20G<590 590> 456 20G<520 520>
VStem: 117 80<169 169> 154 91<302 331.5 302 353.5> 321 85<-95 -89.5> 459 91<128 160.5> 477 76<298 332>
LayerCount: 2
Fore
SplineSet
349 -10 m 1x931c
 347 -18 l 1xc11c
 379 -27 406 -46 406 -83 c 0
 406 -112 382 -170 294 -170 c 0
 241 -170 190 -157 167 -150 c 1
 192 -82 l 1
 235 -92 273 -100 298 -100 c 0
 305 -100 321 -98 321 -92 c 0
 321 -87 299 -83 298 -83 c 0
 295 -82 268 -79 253 -77 c 1
 276 -8 l 1
 217 2 190 23 175 36 c 1x892c
 159 -15 l 1xa12c
 81 -4 l 1x832c
 106 63 113 104 117 169 c 1
 197 174 l 1
 197 141 197 137 200 126 c 0x852c
 214 75 307 75 315 75 c 0
 385 75 459 102 459 154 c 0
 459 167 459 180 386 184 c 0x851c
 291 189 259 193 232 204 c 0
 175 227 154 272 154 309 c 0
 154 398 251 469 368 469 c 0
 376 469 458 469 502 425 c 1x831a
 520 476 l 1x825a
 590 466 l 1x829a
 560 378 555 338 553 298 c 1
 475 298 l 1
 477 306 477 311 477 321 c 0
 477 343 474 356 454 367 c 0x831a
 436 377 396 383 368 383 c 0
 292 383 245 347 245 316 c 0
 245 288 272 278 355 273 c 0
 437 268 550 263 550 157 c 0
 550 72 465 2 349 -10 c 1x931c
EndSplineSet
EndChar

StartChar: arrowdown
Encoding: 307 8595 200
Width: 600
Flags: MW
HStem: -25 21G<296.5 306.5>
VStem: 270 60<122 563 122 563>
LayerCount: 2
Fore
SplineSet
270 563 m 1
 330 563 l 1
 330 122 l 1
 359 140 399 162 415 162 c 0
 422 162 434 157 434 141 c 0
 434 133 431 130 404 104 c 0
 368 69 348 36 322 -8 c 0
 318 -15 311 -25 302 -25 c 0
 291 -25 290 -23 264 19 c 0
 237 63 223 83 178 121 c 0
 173 126 167 131 167 141 c 0
 167 156 179 162 186 162 c 0
 188 162 217 158 270 122 c 1
 270 563 l 1
EndSplineSet
EndChar

StartChar: thorn
Encoding: 308 254 201
Width: 600
Flags: MW
HStem: -152 82<-11 68 156 283 -29 68> -7 86<317.5 376 299.5 392> 381 86<384 442.5> 554 94
VStem: 516 91<222.5 305.5>
LayerCount: 2
Fore
SplineSet
308 648 m 1
 260 419 l 1
 308 451 355 467 413 467 c 0
 546 467 607 367 607 276 c 0
 607 121 459 -7 325 -7 c 0
 310 -7 240 -7 181 50 c 1
 156 -70 l 1
 300 -70 l 1
 283 -152 l 1
 -29 -152 l 1
 -11 -70 l 1
 68 -70 l 1
 200 556 l 1
 116 552 l 1
 129 638 l 1
 308 648 l 1
409 381 m 0
 299 381 211 289 211 191 c 0
 211 120 272 79 327 79 c 0
 425 79 516 173 516 272 c 0
 516 339 476 381 409 381 c 0
EndSplineSet
EndChar

StartChar: dbar
Encoding: 309 273 202
Width: 600
Flags: W
HStem: -10 75<247.5 302.5> 0 82<515 578> 360 75<301 374.5 281 383.5> 460 62<286 507 273 520 607 676> 628 20G<634 634>
VStem: 78 89<136 223 136 239.5>
LayerCount: 2
Fore
SplineSet
607 522 m 1x5c
 688 522 l 1
 676 460 l 1
 595 460 l 1
 515 82 l 1
 595 82 l 1
 578 0 l 1
 409 0 l 1x5c
 418 38 l 1
 389 19 337 -10 268 -10 c 0
 152 -10 78 72 78 172 c 0
 78 307 212 435 350 435 c 0
 399 435 453 416 488 381 c 1xbc
 507 460 l 1
 273 460 l 1
 286 522 l 1
 520 522 l 1
 527 563 l 1
 369 551 l 1
 390 626 l 1
 634 648 l 1
 607 522 l 1x5c
270 65 m 0xbc
 379 65 459 164 459 250 c 0
 459 317 415 360 352 360 c 0
 250 360 167 271 167 175 c 0
 167 97 225 65 270 65 c 0xbc
EndSplineSet
EndChar

StartChar: sixsuperior
Encoding: 310 8310 203
Width: 600
Flags: W
HStem: 246 58<298 332.5 298 338> 437 58<341.5 356.5> 455 20G<286 286> 580 58<415 507 445 507>
VStem: 198 61<350.5 369 350.5 398.5> 386 61<364.5 402>
LayerCount: 2
Fore
SplineSet
507 638 m 1xbc
 491 579 l 1
 473 580 l 1
 445 580 l 2
 385 580 351 569 320 533 c 0
 303 514 292 497 284 477 c 1
 286 475 l 1xbc
 308 489 330 495 353 495 c 0xdc
 410 495 447 456 447 397 c 0
 447 318 377 246 299 246 c 0
 239 246 198 292 198 360 c 0
 198 437 235 526 289 579 c 0
 331 621 385 641 458 639 c 2
 490 638 l 1
 507 638 l 1xbc
262 388 m 1xdc
 259 369 l 1
 259 332 283 304 313 304 c 0
 352 304 386 342 386 387 c 0
 386 417 369 437 344 437 c 0
 323 437 298 427 282 412 c 0
 276 407 272 402 262 388 c 1xdc
EndSplineSet
EndChar

StartChar: SF470000
Encoding: 311 9572 204
Width: 600
Flags: MW
HStem: 144 72<0 264 0 600 336 600 336 336> 288 72<0 600 0 600>
VStem: 264 72<-288 144 -288 144>
LayerCount: 2
Fore
SplineSet
336 144 m 1
 336 -288 l 1
 264 -288 l 1
 264 144 l 1
 0 144 l 1
 0 216 l 1
 600 216 l 1
 600 144 l 1
 336 144 l 1
600 288 m 1
 0 288 l 1
 0 360 l 1
 600 360 l 1
 600 288 l 1
EndSplineSet
EndChar

StartChar: similar
Encoding: 312 8764 205
Width: 600
Flags: W
HStem: 238 102<448.5 470.5 448.5 489.5> 295 102<262.5 283.5 241.5 284>
VStem: 141 447<285 345>
LayerCount: 2
Fore
SplineSet
529 412 m 1xa0
 588 345 l 1
 584 339 l 2
 559 297 523 238 456 238 c 0xa0
 429 238 411 246 358 268 c 0
 331 279 291 295 277 295 c 0
 248 295 231 272 207 229 c 2
 201 216 l 1
 141 285 l 1
 145 291 l 2
 170 335 206 397 277 397 c 0x60
 290 397 312 397 383 366 c 0
 423 348 441 340 456 340 c 0
 485 340 502 368 529 412 c 1xa0
EndSplineSet
EndChar

StartChar: SS260000
Encoding: 313 8992 206
Width: 600
Flags: MW
HStem: 678 161<467 503 407.5 508.5>
VStem: 239 122<-243 518 518 631>
LayerCount: 2
Fore
SplineSet
361 -243 m 1
 239 -243 l 1
 239 518 l 2
 239 750 358 839 457 839 c 0
 549 839 563 776 563 753 c 0
 563 705 527 678 490 678 c 0
 444 678 426 707 413 726 c 0
 407 735 398 747 386 747 c 0
 367 747 361 730 361 631 c 2
 361 -243 l 1
EndSplineSet
EndChar

StartChar: degree
Encoding: 314 176 207
Width: 600
Flags: MW
HStem: 326 81<343 385.5 343 407.5> 558 81<342.5 385.5>
VStem: 208 81<462 503.5 462 526.5> 440 81<462 503.5>
LayerCount: 2
Fore
SplineSet
208 483 m 0
 208 570 278 639 364 639 c 0
 451 639 521 569 521 483 c 0
 521 396 451 326 364 326 c 0
 278 326 208 395 208 483 c 0
289 483 m 0
 289 441 322 407 364 407 c 0
 407 407 440 441 440 483 c 0
 440 524 407 558 364 558 c 0
 321 558 289 524 289 483 c 0
EndSplineSet
EndChar

StartChar: SF520000
Encoding: 315 9555 208
Width: 600
Flags: MW
HStem: 216 72<264 336 264 264 408 408 408 600>
VStem: 192 72<-288 216 -288 288> 336 72<-288 216 -288 216>
LayerCount: 2
Fore
SplineSet
336 216 m 1
 264 216 l 1
 264 -288 l 1
 192 -288 l 1
 192 288 l 1
 600 288 l 1
 600 216 l 1
 408 216 l 1
 408 -288 l 1
 336 -288 l 1
 336 216 l 1
EndSplineSet
EndChar

StartChar: ccedilla
Encoding: 316 231 209
Width: 600
Flags: W
HStem: -182 70<283 304 283 333.5> -14 21G<276 276> -11 21G<350 350> 383 86<331.5 407.5> 439 20G<618 618> 453 20G<548 548>
VStem: 97 92<133 232.5 133 257> 324 85<-104.5 -94> 501 78<272 348>
LayerCount: 2
Fore
SplineSet
350 -11 m 1xb280
 350 -18 l 1xb380
 366 -22 409 -32 409 -91 c 0
 409 -138 370 -182 297 -182 c 0
 246 -182 199 -171 168 -162 c 1
 194 -94 l 1
 201 -96 266 -112 300 -112 c 0
 308 -112 324 -111 324 -98 c 0
 324 -90 315 -86 310 -85 c 0
 305 -83 281 -80 255 -77 c 1
 276 -14 l 1
 196 -7 97 50 97 183 c 0
 97 331 231 469 394 469 c 0
 479 469 514 433 528 418 c 1xd380
 548 473 l 1xa680
 618 459 l 1xaa80
 591 393 582 350 579 272 c 1
 499 261 l 1
 501 293 501 303 501 314 c 0
 501 382 418 383 397 383 c 0
 266 383 189 279 189 186 c 0
 189 80 288 72 309 72 c 0
 377 72 443 106 520 154 c 1
 557 79 l 1
 504 45 435 5 350 -11 c 1xb280
EndSplineSet
EndChar

StartChar: SM760000
Encoding: 317 8597 210
Width: 600
Flags: MW
HStem: 587 20G<291.5 303>
VStem: 266 60<161 462 161 462>
LayerCount: 2
Fore
SplineSet
326 462 m 1
 326 161 l 1
 353 178 394 201 411 201 c 0
 416 201 430 197 430 180 c 0
 430 170 427 167 400 143 c 0
 386 131 356 100 322 39 c 0
 313 23 308 15 298 15 c 0
 287 15 286 16 265 50 c 0
 227 112 215 124 176 158 c 0
 167 166 163 170 163 180 c 0
 163 197 177 201 182 201 c 0
 185 201 213 197 266 161 c 1
 266 462 l 1
 216 427 184 422 182 422 c 0
 175 422 163 428 163 442 c 0
 163 451 164 452 189 475 c 0
 204 489 234 517 275 589 c 0
 281 599 285 607 298 607 c 0
 308 607 310 603 331 569 c 0
 353 534 373 501 413 468 c 0
 423 459 430 453 430 443 c 0
 430 428 419 422 412 422 c 0
 389 422 337 455 326 462 c 1
EndSplineSet
EndChar

StartChar: Uogonek
Encoding: 318 370 211
Width: 600
Flags: W
HStem: -144 66<253 327> -10 21G 501 82<138 191 120 395 279 279 279 377 138 438 456 536 622 622 622 691>
VStem: 123 88<108.5 150> 197 96<-69.5 -65>
LayerCount: 2
Fore
SplineSet
403 -47 m 1xf0
 368 -116 l 1
 342 -130 314 -144 271 -144 c 0
 235 -144 197 -126 197 -86 c 0xe8
 197 -44 239 -17 249 -10 c 1
 226 -5 123 20 123 140 c 0
 123 160 125 188 138 252 c 2
 191 501 l 1
 120 501 l 1
 138 583 l 1
 395 583 l 1
 377 501 l 1
 279 501 l 1
 224 242 l 2
 220 223 211 177 211 145 c 0
 211 72 295 72 308 72 c 0xf0
 447 72 464 156 482 242 c 2
 536 501 l 1
 438 501 l 1
 456 583 l 1
 708 583 l 1
 691 501 l 1
 622 501 l 1
 565 229 l 2
 529 60 487 28 350 -17 c 0
 334 -22 293 -40 293 -63 c 0
 293 -76 309 -78 316 -78 c 0xe8
 338 -78 344 -75 403 -47 c 1xf0
EndSplineSet
EndChar

StartChar: Ldot
Encoding: 319 319 212
Width: 600
Flags: W
HStem: 0 82<59 155 243 478 41 155> 243 21G<392 435.5> 243 154<415 435.5> 501 82<165 243 147 469 332 451 332 332>
VStem: 41 578<0 278> 339 172<308 332>
LayerCount: 2
Fore
SplineSet
165 583 m 1xd8
 469 583 l 1
 451 501 l 1
 332 501 l 1
 243 82 l 1
 478 82 l 1
 531 278 l 1
 619 278 l 1
 547 0 l 1
 41 0 l 1
 59 82 l 1
 155 82 l 1
 243 501 l 1
 147 501 l 1
 165 583 l 1xd8
440 397 m 0xb4
 475 397 511 374 511 333 c 0
 511 283 460 243 411 243 c 0
 373 243 339 267 339 307 c 0
 339 357 390 397 440 397 c 0xb4
EndSplineSet
EndChar

StartChar: underscoredbl
Encoding: 320 8215 213
Width: 600
Flags: MW
HStem: -225 50<-48 648 -48 648> -125 50<-48 648 -48 648>
VStem: -48 696<-225 -175 -225 -175 -125 -75 -225 -75>
LayerCount: 2
Fore
SplineSet
648 -175 m 1
 648 -225 l 1
 -48 -225 l 1
 -48 -175 l 1
 648 -175 l 1
-48 -75 m 1
 648 -75 l 1
 648 -125 l 1
 -48 -125 l 1
 -48 -75 l 1
EndSplineSet
EndChar

StartChar: SM750002
Encoding: 321 9689 214
Width: 600
Flags: MW
HStem: 0 65<240.5 359.5 240.5 582> 499 65<240.5 359.5>
VStem: 18 65<222 342.5 222 564> 517 65<222 342.5>
LayerCount: 2
Fore
SplineSet
300 499 m 0
 181 499 83 403 83 282 c 0
 83 162 181 65 300 65 c 0
 419 65 517 162 517 282 c 0
 517 403 419 499 300 499 c 0
18 0 m 1
 18 564 l 1
 582 564 l 1
 582 0 l 1
 18 0 l 1
300 449 m 0
 391 449 467 374 467 282 c 0
 467 191 392 115 300 115 c 0
 208 115 133 192 133 282 c 0
 133 374 208 449 300 449 c 0
EndSplineSet
EndChar

StartChar: SF430000
Encoding: 322 9552 215
Width: 600
Flags: MW
HStem: 144 72<0 600 0 600> 288 72<0 600 0 600>
VStem: 0 600<144 216 144 216 288 360 144 360>
LayerCount: 2
Fore
SplineSet
600 360 m 1
 600 288 l 1
 0 288 l 1
 0 360 l 1
 600 360 l 1
600 216 m 1
 600 144 l 1
 0 144 l 1
 0 216 l 1
 600 216 l 1
EndSplineSet
EndChar

StartChar: ffl
Encoding: 323 64260 216
Width: 600
Flags: W
HStem: 0 82<-2 81 16 81 169 273 361 465 552 600> 359 84<92 139 74 157 245 331 92 227 437 478> 559 84<307 352 542 544> 605 20G<667 667>
VStem: -2 669<0 625>
LayerCount: 2
Fore
SplineSet
-2 0 m 1xe8
 16 82 l 1
 81 82 l 1
 139 359 l 1
 74 359 l 1
 92 443 l 1
 157 443 l 1
 169 481 l 2
 170 484 171 493 172 497 c 0
 189 584 244 643 364 643 c 0xe8
 412 643 434 635 459 625 c 1xd8
 466 628 477 633 492 636 c 0
 508 639 529 643 555 643 c 0xe8
 581 643 612 639 634 633 c 0
 658 626 661 627 667 625 c 1xd8
 552 82 l 1
 618 82 l 1
 600 0 l 1
 -2 0 l 1xe8
227 359 m 1
 169 82 l 1
 273 82 l 1
 331 359 l 1
 227 359 l 1
251 474 m 2
 245 443 l 1
 349 443 l 1
 357 481 l 2
 359 487 360 491 369 525 c 0
 373 540 376 546 381 555 c 1
 372 556 360 559 344 559 c 0
 270 559 262 531 251 474 c 2
361 82 m 1
 465 82 l 1
 565 556 l 1
 559 557 552 559 536 559 c 0
 470 559 457 544 443 474 c 2
 437 443 l 1
 496 443 l 1
 478 359 l 1
 418 359 l 1
 361 82 l 1
EndSplineSet
Ligature2: "'liga' Standard Ligatures in Latin lookup 0 subtable" ff l
EndChar

StartChar: SF400000
Encoding: 324 9577 217
Width: 600
Flags: MW
HStem: 144 72<0 600 0 600> 288 72<0 192 0 192 0 264 408 600>
VStem: 192 72<360 792 288 792> 336 72<360 792 360 792 360 792>
LayerCount: 2
Fore
SplineSet
600 288 m 1
 336 288 l 1
 336 792 l 1
 408 792 l 1
 408 360 l 1
 600 360 l 1
 600 288 l 1
0 288 m 1
 0 360 l 1
 192 360 l 1
 192 792 l 1
 264 792 l 1
 264 288 l 1
 0 288 l 1
600 216 m 1
 600 144 l 1
 0 144 l 1
 0 216 l 1
 600 216 l 1
EndSplineSet
EndChar

StartChar: SF530000
Encoding: 325 9579 218
Width: 600
Flags: MW
HStem: 216 72<0 192 0 192 264 336 408 600>
VStem: 192 72<-288 216 -288 216 288 792> 336 72<-288 216 -288 216 288 792>
LayerCount: 2
Fore
SplineSet
264 288 m 1
 336 288 l 1
 336 792 l 1
 408 792 l 1
 408 288 l 1
 600 288 l 1
 600 216 l 1
 408 216 l 1
 408 -288 l 1
 336 -288 l 1
 336 216 l 1
 264 216 l 1
 264 -288 l 1
 192 -288 l 1
 192 216 l 1
 0 216 l 1
 0 288 l 1
 192 288 l 1
 192 792 l 1
 264 792 l 1
 264 288 l 1
EndSplineSet
EndChar

StartChar: SF370000
Encoding: 326 9567 219
Width: 600
Flags: MW
HStem: 216 72<408 600 408 600>
VStem: 192 72<-288 792 -288 792> 336 72<-288 216 288 792>
LayerCount: 2
Fore
SplineSet
336 792 m 1
 408 792 l 1
 408 288 l 1
 600 288 l 1
 600 216 l 1
 408 216 l 1
 408 -288 l 1
 336 -288 l 1
 336 792 l 1
192 -288 m 1
 192 792 l 1
 264 792 l 1
 264 -288 l 1
 192 -288 l 1
EndSplineSet
EndChar

StartChar: SF060000
Encoding: 327 9516 220
Width: 600
Flags: MW
HStem: 216 72<0 264 0 600 336 600 336 336>
VStem: 264 72<-288 216 -288 216>
LayerCount: 2
Fore
SplineSet
336 216 m 1
 336 -288 l 1
 264 -288 l 1
 264 216 l 1
 0 216 l 1
 0 288 l 1
 600 288 l 1
 600 216 l 1
 336 216 l 1
EndSplineSet
EndChar

StartChar: SM690000
Encoding: 328 9788 221
Width: 600
Flags: W
HStem: -13 161<271 329 271 271> 82 66<263 271> 253 58<6 101 6 101 500 594> 416 66<263 271 329 337> 449 20G<71 71 529 529>
VStem: 101 66<246 253 311 320 246 323> 271 58<-13 81 -13 82 -13 82 482 576> 434 66<246 253 311 320>
LayerCount: 2
Fore
SplineSet
137 404 m 1xae
 71 469 l 1
 113 510 l 1xae
 179 444 l 1
 198 463 245 482 271 482 c 1
 271 576 l 1
 329 576 l 1
 329 482 l 1
 356 482 397 464 421 444 c 1
 488 510 l 1xb7
 529 469 l 1
 463 403 l 1
 481 385 500 339 500 311 c 1
 594 311 l 1
 594 253 l 1
 500 253 l 1
 500 224 483 185 463 160 c 1
 529 94 l 1
 488 53 l 1
 421 119 l 1
 407 105 360 82 329 81 c 1x6f
 329 -13 l 1
 271 -13 l 1xae
 271 82 l 1
 236 82 199 98 179 119 c 1
 113 53 l 1
 71 94 l 1
 138 160 l 1x6e
 117 181 101 225 101 253 c 1
 6 253 l 1
 6 311 l 1
 101 311 l 1
 101 335 119 382 137 404 c 1xae
300 416 m 0xb7
 226 416 167 357 167 283 c 0
 167 209 226 148 300 148 c 0
 374 148 434 209 434 283 c 0
 434 357 374 416 300 416 c 0xb7
EndSplineSet
EndChar

StartChar: tau
Encoding: 329 964 222
Width: 600
Flags: W
HStem: -9 21G<274 316.5> -9 76<274 346> 371 82<226.5 526 234 277 360 509 360 360>
VStem: 214 88<37 93>
LayerCount: 2
Fore
SplineSet
360 371 m 1xb0
 305 115 l 2
 304 108 302 98 302 88 c 0
 302 75 310 67 331 67 c 0
 361 67 382 81 401 94 c 0
 405 97 411 102 413 103 c 1x70
 409 22 l 2
 408 22 406 20 405 20 c 0
 371 1 336 -9 297 -9 c 0
 251 -9 214 11 214 63 c 0
 214 78 218 94 219 98 c 2
 277 371 l 1
 230 371 l 2
 223 371 175 370 119 360 c 1
 135 436 l 1
 153 441 157 442 194 450 c 0
 209 453 226 453 234 453 c 2
 526 453 l 1
 509 371 l 1
 360 371 l 1xb0
EndSplineSet
EndChar

StartChar: SM700000
Encoding: 330 -1 223
Width: 600
Flags: MW
HStem: 149 179<7 593 7 593>
VStem: 7 586<149 328 149 328>
LayerCount: 2
Fore
SplineSet
7 149 m 1
 7 328 l 1
 593 328 l 1
 593 149 l 1
 7 149 l 1
EndSplineSet
EndChar

StartChar: Lcedilla
Encoding: 331 315 224
Width: 600
Flags: W
HStem: -170 70<293.5 309.5 293.5 345.5> -18 21G<354 354> 0 82<59 155 243 286 41 155 360 478 360 360> 501 82<165 243 147 469 332 332 332 451>
VStem: 41 578<0 278> 329 84<-95 -89.5>
LayerCount: 2
Fore
SplineSet
360 0 m 1xb8
 354 -18 l 1xd4
 387 -27 413 -46 413 -83 c 0
 413 -112 390 -170 301 -170 c 0
 248 -170 198 -157 174 -150 c 1
 200 -82 l 1
 242 -92 281 -100 306 -100 c 0
 313 -100 329 -98 329 -92 c 0
 329 -87 307 -83 306 -83 c 0
 303 -82 276 -79 261 -77 c 1
 286 0 l 1xb4
 41 0 l 1
 59 82 l 1
 155 82 l 1
 243 501 l 1
 147 501 l 1
 165 583 l 1
 469 583 l 1
 451 501 l 1
 332 501 l 1
 243 82 l 1
 478 82 l 1
 530 278 l 1
 619 278 l 1
 547 0 l 1
 360 0 l 1xb8
EndSplineSet
EndChar

StartChar: zerodot
Encoding: 332 -1 225
Width: 600
Flags: MW
HStem: -14 84<271.5 371 271.5 411> 245 127<355 370.5> 555 84<352.5 451.5>
VStem: 142 91<153.5 231 153.5 233> 292 141<297.5 319.5> 488 91<400.5 466.5>
LayerCount: 2
Fore
SplineSet
374 372 m 0
 403 372 433 353 433 319 c 0
 433 276 390 245 351 245 c 0
 321 245 292 264 292 297 c 0
 292 342 336 372 374 372 c 0
425 639 m 0
 571 639 579 498 579 453 c 0
 579 330 524 -14 298 -14 c 0
 151 -14 142 124 142 172 c 0
 142 294 197 639 425 639 c 0
418 555 m 0
 287 555 233 291 233 171 c 0
 233 136 241 70 302 70 c 0
 440 70 488 349 488 452 c 0
 488 481 485 555 418 555 c 0
EndSplineSet
EndChar

StartChar: SV040000
Encoding: 333 9660 226
Width: 600
Flags: MW
HStem: 447 20G<102 498 498 498>
VStem: 102 396<467 467>
LayerCount: 2
Fore
SplineSet
102 467 m 1
 498 467 l 1
 300 96 l 1
 102 467 l 1
EndSplineSet
EndChar

StartChar: SP500000
Encoding: 334 -1 227
Width: 600
Flags: MW
HStem: 0 57<75 525 75 582> 136 21G<118 118 482 482> 444 20G<154 154 446 446> 507 57<75 75 75 525>
VStem: 18 57<57 507 57 564> 525 57<57 507 507 507>
LayerCount: 2
Fore
SplineSet
265 282 m 1
 118 430 l 1
 154 464 l 1
 300 317 l 1
 446 464 l 1
 482 430 l 1
 335 282 l 1
 482 136 l 1
 446 100 l 1
 300 247 l 1
 154 100 l 1
 118 136 l 1
 265 282 l 1
18 0 m 1
 18 564 l 1
 582 564 l 1
 582 0 l 1
 18 0 l 1
75 507 m 1
 75 57 l 1
 525 57 l 1
 525 507 l 1
 75 507 l 1
EndSplineSet
EndChar

StartChar: Rcedilla
Encoding: 335 342 228
Width: 600
Flags: W
HStem: -170 70<311 326.5 311 363.5> -18 25<372 372> 0 7 0 82<46 125 213 281 28 125 503 582> 249 84<265 332 248 333> 501 82<152 213 134 414 301 301 301 408>
VStem: 346 85<-95 -89.5> 508 89<427 473.5>
LayerCount: 2
Fore
SplineSet
152 583 m 1x9d
 414 583 l 2
 479 583 597 583 597 448 c 0
 597 382 558 324 510 291 c 0
 483 273 460 265 429 256 c 1
 464 182 482 145 503 82 c 1
 600 82 l 1
 582 0 l 1
 429 0 l 1
 406 86 371 169 332 249 c 1
 248 249 l 1
 213 82 l 1
 301 82 l 1
 281 0 l 1
 28 0 l 1
 46 82 l 1
 125 82 l 1
 213 501 l 1
 134 501 l 1
 152 583 l 1x9d
408 501 m 2
 301 501 l 1
 265 333 l 1
 333 333 l 2
 372 333 424 332 460 359 c 0
 484 377 508 408 508 446 c 0
 508 501 469 501 408 501 c 2
380 7 m 1xaf
 372 -18 l 1xcf
 404 -27 431 -46 431 -83 c 0
 431 -112 408 -170 319 -170 c 0
 266 -170 215 -157 192 -150 c 1
 217 -82 l 1
 260 -92 299 -100 323 -100 c 0
 330 -100 346 -98 346 -92 c 0
 346 -87 325 -83 323 -83 c 0
 321 -82 293 -79 279 -77 c 1
 306 7 l 1
 380 7 l 1xaf
EndSplineSet
EndChar

StartChar: SF490000
Encoding: 336 9561 229
Width: 600
Flags: MW
HStem: 216 72<264 336 408 600>
VStem: 192 72<288 792 288 792 288 792> 336 72<288 792 288 792>
LayerCount: 2
Fore
SplineSet
336 288 m 1
 336 792 l 1
 408 792 l 1
 408 288 l 1
 600 288 l 1
 600 216 l 1
 192 216 l 1
 192 792 l 1
 264 792 l 1
 264 288 l 1
 336 288 l 1
EndSplineSet
EndChar

StartChar: radical
Encoding: 337 8730 230
Width: 600
Flags: MW
HStem: 0 21G<203 274 203 203> 258 86<52 136 52 213> 719 86<478 697 478 478>
VStem: 52 645<258 805 344 805>
LayerCount: 2
Fore
SplineSet
52 344 m 1
 213 344 l 1
 245 216 l 1
 247 216 l 1
 412 805 l 1
 697 805 l 1
 697 719 l 1
 478 719 l 1
 274 0 l 1
 203 0 l 1
 136 258 l 1
 52 258 l 1
 52 344 l 1
EndSplineSet
EndChar

StartChar: SF460000
Encoding: 338 9576 231
Width: 600
Flags: MW
HStem: 216 72<0 192 264 336 408 600 0 192>
VStem: 192 72<288 792 288 792> 336 72<288 792 288 792>
LayerCount: 2
Fore
SplineSet
336 288 m 1
 336 792 l 1
 408 792 l 1
 408 288 l 1
 600 288 l 1
 600 216 l 1
 0 216 l 1
 0 288 l 1
 192 288 l 1
 192 792 l 1
 264 792 l 1
 264 288 l 1
 336 288 l 1
EndSplineSet
EndChar

StartChar: SM590000
Encoding: 339 9654 232
Width: 600
Flags: MW
HStem: 83 397<40 40>
VStem: 40 560<282 282 282 480 282 480>
LayerCount: 2
Fore
SplineSet
40 83 m 1
 40 480 l 1
 600 282 l 1
 40 83 l 1
EndSplineSet
EndChar

StartChar: SM750000
Encoding: 340 9675 233
Width: 600
Flags: MW
HStem: 65 50<254 346 254 359.5> 449 50<254 345.5>
VStem: 83 50<237 328 237 342.5> 467 50<236.5 328>
LayerCount: 2
Fore
SplineSet
300 499 m 0
 419 499 517 403 517 282 c 0
 517 162 419 65 300 65 c 0
 181 65 83 162 83 282 c 0
 83 403 181 499 300 499 c 0
300 449 m 0
 208 449 133 374 133 282 c 0
 133 192 208 115 300 115 c 0
 392 115 467 191 467 282 c 0
 467 374 391 449 300 449 c 0
EndSplineSet
EndChar

StartChar: SM770000
Encoding: 341 8616 234
Width: 600
Flags: W
HStem: -97 60<185 418 185 418> 587 20G<291.5 303>
VStem: 185 233<-97 -37 -97 -37> 266 60<161 462 161 462>
LayerCount: 2
Fore
SplineSet
185 -37 m 1xf0
 418 -37 l 1
 418 -97 l 1
 185 -97 l 1
 185 -37 l 1xf0
326 462 m 1xd0
 326 161 l 1
 353 178 394 201 411 201 c 0
 416 201 430 197 430 180 c 0
 430 170 427 167 400 143 c 0
 386 131 356 100 322 39 c 0
 313 23 308 15 298 15 c 0
 287 15 286 16 265 50 c 0
 227 112 215 124 176 158 c 0
 167 166 163 170 163 180 c 0
 163 197 177 201 182 201 c 0
 185 201 213 197 266 161 c 1
 266 462 l 1
 216 427 184 422 182 422 c 0
 175 422 163 428 163 442 c 0
 163 451 164 452 189 475 c 0
 204 489 234 517 275 589 c 0
 281 599 285 607 298 607 c 0
 308 607 310 603 331 569 c 0
 353 534 373 501 413 468 c 0
 423 459 430 453 430 443 c 0
 430 428 419 422 412 422 c 0
 389 422 337 455 326 462 c 1xd0
EndSplineSet
EndChar

StartChar: SF580000
Encoding: 342 9612 235
Width: 600
Flags: MW
HStem: -288 1080<0 300 0 300>
VStem: 0 300<-288 792 -288 792>
LayerCount: 2
Fore
SplineSet
0 -288 m 1
 0 792 l 1
 300 792 l 1
 300 -288 l 1
 0 -288 l 1
EndSplineSet
EndChar

StartChar: arrowboth
Encoding: 343 8596 236
Width: 600
Flags: MW
HStem: 257 60<167 432 167 432>
VStem: 22 556<283.5 294 283.5 294>
LayerCount: 2
Fore
SplineSet
167 317 m 1
 432 317 l 1
 415 344 392 385 392 402 c 0
 392 407 396 421 413 421 c 0
 423 421 426 418 450 391 c 0
 462 377 493 347 554 313 c 0
 570 304 578 299 578 289 c 0
 578 278 577 277 543 256 c 0
 481 217 469 206 435 167 c 0
 427 158 423 154 413 154 c 0
 396 154 392 168 392 173 c 0
 392 176 396 204 432 257 c 1
 167 257 l 1
 202 207 207 175 207 173 c 0
 207 166 201 154 187 154 c 0
 178 154 177 155 154 180 c 0
 140 195 112 225 40 266 c 0
 30 272 22 276 22 289 c 0
 22 299 26 301 60 322 c 0
 96 343 128 364 161 404 c 0
 170 414 176 421 186 421 c 0
 201 421 207 410 207 403 c 0
 207 380 174 328 167 317 c 1
EndSplineSet
EndChar

StartChar: SF240000
Encoding: 344 9553 237
Width: 600
Flags: MW
HStem: -288 1080<192 264 192 264 336 408 192 336>
VStem: 192 72<-288 792 -288 792> 336 72<-288 792>
LayerCount: 2
Fore
SplineSet
408 -288 m 1
 336 -288 l 1
 336 792 l 1
 408 792 l 1
 408 -288 l 1
192 -288 m 1
 192 792 l 1
 264 792 l 1
 264 -288 l 1
 192 -288 l 1
EndSplineSet
EndChar

StartChar: Eng
Encoding: 345 330 238
Width: 600
Flags: W
HStem: -131 89<260 340 241 347> 0 82<45 127 215 279 27 127> 501 82<151 215 133 321> 506 89<457.5 501.5>
VStem: 537 88<453.5 470.5>
LayerCount: 2
Fore
SplineSet
151 583 m 1xe8
 321 583 l 1xe8
 312 539 l 1
 358 563 420 595 495 595 c 0
 608 595 625 498 625 456 c 0
 625 437 620 415 619 410 c 2
 540 36 l 2
 516 -79 416 -131 340 -131 c 2
 241 -131 l 1
 260 -42 l 1
 347 -42 l 2
 421 -42 448 22 454 47 c 2
 533 424 l 2
 537 440 537 451 537 456 c 0
 537 485 522 506 481 506 c 0
 412 506 329 457 288 424 c 1xd8
 215 82 l 1
 297 82 l 1
 279 0 l 1
 27 0 l 1
 45 82 l 1
 127 82 l 1
 215 501 l 1
 133 501 l 1
 151 583 l 1xe8
EndSplineSet
EndChar

StartChar: SF390000
Encoding: 346 9556 239
Width: 600
Flags: MW
HStem: 144 72<408 600 408 408> 288 72<264 264 264 600>
VStem: 192 72<-288 288 -288 360> 336 72<-288 144 -288 216>
LayerCount: 2
Fore
SplineSet
336 216 m 1
 600 216 l 1
 600 144 l 1
 408 144 l 1
 408 -288 l 1
 336 -288 l 1
 336 216 l 1
264 288 m 1
 264 -288 l 1
 192 -288 l 1
 192 360 l 1
 600 360 l 1
 600 288 l 1
 264 288 l 1
EndSplineSet
EndChar

StartChar: Theta
Encoding: 347 920 240
Width: 600
Flags: MW
HStem: -17 81<252.5 375.5 252.5 396> 252 71<320 389 305 404> 518 81<339 457.5>
VStem: 79 88<191 295.5 191 305> 545 88<289 394.5>
LayerCount: 2
Fore
SplineSet
221 193 m 1
 261 382 l 1
 333 382 l 1
 320 323 l 1
 404 323 l 1
 417 382 l 1
 489 382 l 1
 449 193 l 1
 377 193 l 1
 389 252 l 1
 305 252 l 1
 293 193 l 1
 221 193 l 1
79 212 m 0
 79 398 218 599 416 599 c 0
 557 599 633 485 633 374 c 0
 633 184 494 -17 298 -17 c 0
 152 -17 79 99 79 212 c 0
167 224 m 0
 167 158 199 64 306 64 c 0
 445 64 545 222 545 356 c 0
 545 433 508 518 407 518 c 0
 271 518 167 367 167 224 c 0
EndSplineSet
EndChar

StartChar: Omega
Encoding: 348 8486 241
Width: 600
Flags: W
HStem: 0 69<106 209 106 271 422 520> 0 159<20 305 305 327 305 361 305 576> 518 82<334.5 453.5>
VStem: 81 84<252.5 340 252.5 363.5> 571 84<338.5 416.5>
LayerCount: 2
Fore
SplineSet
20 0 m 1xb8
 44 106 l 1
 114 106 l 1
 106 69 l 1
 209 69 l 1
 218 106 l 1
 183 121 81 147 81 277 c 0
 81 450 232 600 411 600 c 0
 546 600 655 510 655 381 c 0
 655 274 588 144 431 106 c 1
 422 69 l 1
 520 69 l 1
 529 106 l 1
 600 106 l 1
 576 0 l 1
 327 0 l 1xb8
 361 159 l 1
 390 160 441 162 490 200 c 0x78
 540 238 571 306 571 371 c 0
 571 462 500 518 407 518 c 0
 262 518 165 398 165 282 c 0
 165 223 195 177 305 159 c 1
 271 0 l 1
 20 0 l 1xb8
EndSplineSet
EndChar

StartChar: Thorn
Encoding: 349 222 242
Width: 600
Flags: MW
HStem: 0 82<93 171 254 378 75 171> 128 68<277 296 261 311> 395 65<335 398 320 405> 501 82<199 261 181 483 342 342 342 465>
VStem: 532 86<308.5 358>
LayerCount: 2
Fore
SplineSet
335 460 m 1
 405 460 l 2
 477 460 618 460 618 331 c 0
 618 249 573 200 543 177 c 0
 478 127 383 128 296 128 c 2
 261 128 l 1
 254 82 l 1
 396 82 l 1
 378 0 l 1
 75 0 l 1
 93 82 l 1
 171 82 l 1
 261 501 l 1
 181 501 l 1
 199 583 l 1
 483 583 l 1
 465 501 l 1
 342 501 l 1
 335 460 l 1
398 395 m 2
 320 395 l 1
 277 196 l 1
 311 196 l 2
 396 196 455 196 493 231 c 0
 522 258 532 296 532 321 c 0
 532 395 453 395 398 395 c 2
EndSplineSet
EndChar

StartChar: spade
Encoding: 350 9824 243
Width: 600
Flags: MW
HStem: 0 17<122 177 119 177> 126 21G<150.5 193.5 398 450.5>
VStem: 298 8<194 213 176 213>
LayerCount: 2
Fore
SplineSet
298 194 m 2
 298 213 l 1
 296 213 l 1
 285 186 277 174 263 161 c 0
 239 138 209 126 178 126 c 0
 123 126 78 172 78 227 c 0
 78 275 103 317 164 367 c 0
 200 396 204 400 222 420 c 0
 269 471 289 506 301 563 c 1
 318 491 344 452 423 381 c 0
 502 309 522 278 522 228 c 0
 522 170 479 126 422 126 c 0
 374 126 337 154 308 213 c 1
 306 213 l 1
 306 139 318 101 349 68 c 0
 379 36 416 21 478 17 c 1
 482 0 l 1
 119 0 l 1
 122 17 l 1
 232 17 297 82 298 194 c 2
EndSplineSet
EndChar

StartChar: sevensuperior
Encoding: 351 8311 244
Width: 600
Flags: MW
HStem: 575 56<312 448 312 312>
VStem: 243 282<522 631>
LayerCount: 2
Fore
SplineSet
266 631 m 1
 525 631 l 1
 516 587 l 1
 328 254 l 1
 262 254 l 1
 448 575 l 1
 312 575 l 1
 301 522 l 1
 243 522 l 1
 266 631 l 1
EndSplineSet
EndChar

StartChar: zerosuperior
Encoding: 352 8304 245
Width: 600
Flags: MW
HStem: 246 55<296 319> 584 55<361 384.5>
VStem: 204 62<344.5 395.5 344.5 396> 414 62<490 540>
LayerCount: 2
Fore
SplineSet
383 639 m 0
 441 639 476 598 476 530 c 0
 476 450 447 354 409 304 c 0
 380 266 341 246 297 246 c 0
 237 246 204 286 204 357 c 0
 204 435 233 531 271 580 c 0
 300 618 339 639 383 639 c 0
370 584 m 0
 349 584 330 572 314 548 c 0
 288 509 266 426 266 365 c 0
 266 324 282 301 310 301 c 0
 332 301 350 314 368 340 c 0
 397 382 414 456 414 518 c 0
 414 562 399 584 370 584 c 0
EndSplineSet
EndChar

StartChar: onehalf
Encoding: 353 189 246
Width: 600
Flags: W
HStem: -79 58<437 540 437 584> 246 58<516.5 545.5> 259 57<79 160 219 286 67 160> 604 20G<737 737> 623 20G<249 289 289 289>
VStem: 583 61<188.5 215>
LayerCount: 2
Fore
SplineSet
124 592 m 1xac
 249 643 l 1
 289 643 l 1
 219 316 l 1
 298 316 l 1
 286 259 l 1
 67 259 l 1
 79 316 l 1
 160 316 l 1
 214 569 l 1
 137 538 l 1
 124 592 l 1xac
696 657 m 1
 737 624 l 1xd4
 63 -94 l 1
 24 -58 l 1
 696 657 l 1
552 33 m 1
 608 33 l 1
 584 -79 l 1
 328 -79 l 1
 339 -25 l 1
 348 -19 l 1
 380 4 l 1
 449 56 l 2
 483 81 511 103 535 123 c 0
 567 150 583 175 583 202 c 0
 583 228 561 246 530 246 c 0
 495 246 464 225 459 198 c 2
 458 192 l 1
 457 186 l 1
 397 186 l 1
 410 247 l 1
 450 285 493 304 540 304 c 0
 598 304 644 261 644 206 c 0
 644 170 630 138 600 107 c 0
 583 90 550 60 513 32 c 0
 496 19 477 6 437 -19 c 1
 437 -21 l 1
 540 -21 l 1
 552 33 l 1
EndSplineSet
EndChar

StartChar: IJ
Encoding: 354 306 247
Width: 600
Flags: W
HStem: -16 86<415 436 415 465.5> 0 82<22 106 189 257 4 106> 501 82<128 194 110 385 276 276 276 367 128 457 475 552 640 640 640 701>
VStem: 4 715<0 583>
LayerCount: 2
Fore
SplineSet
189 82 m 1x70
 276 82 l 1
 257 0 l 1
 4 0 l 1
 22 82 l 1
 106 82 l 1
 194 501 l 1
 110 501 l 1
 128 583 l 1
 385 583 l 1
 367 501 l 1
 276 501 l 1
 189 82 l 1x70
303 60 m 1xb0
 338 245 l 1
 420 245 l 1
 408 179 l 2
 407 176 397 122 397 100 c 0
 397 82 406 70 424 70 c 0
 448 70 465 88 492 217 c 2
 552 501 l 1
 457 501 l 1
 475 583 l 1
 719 583 l 1
 701 501 l 1
 640 501 l 1
 580 217 l 2
 551 79 518 -16 413 -16 c 0
 333 -16 311 40 303 60 c 1xb0
EndSplineSet
EndChar

StartChar: SF450000
Encoding: 355 9575 248
Width: 600
Flags: MW
HStem: 144 72<0 600 0 600> 288 72<0 264 336 600 0 264>
VStem: 264 72<360 792>
LayerCount: 2
Fore
SplineSet
336 360 m 1
 600 360 l 1
 600 288 l 1
 0 288 l 1
 0 360 l 1
 264 360 l 1
 264 792 l 1
 336 792 l 1
 336 360 l 1
600 144 m 1
 0 144 l 1
 0 216 l 1
 600 216 l 1
 600 144 l 1
EndSplineSet
EndChar

StartChar: SM790000
Encoding: 356 8962 249
Width: 600
Flags: MW
HStem: 0 53<126 474 126 527>
VStem: 73 53<53 290 53 312 53 312> 474 53<53 290 290 290>
LayerCount: 2
Fore
SplineSet
73 0 m 1
 73 312 l 1
 300 567 l 1
 527 312 l 1
 527 0 l 1
 73 0 l 1
126 290 m 1
 126 53 l 1
 474 53 l 1
 474 290 l 1
 300 485 l 1
 126 290 l 1
EndSplineSet
EndChar

StartChar: SF090000
Encoding: 357 9508 250
Width: 600
Flags: MW
HStem: 216 72<0 264 0 264>
VStem: 264 72<-288 216 216 216 288 792>
LayerCount: 2
Fore
SplineSet
336 -288 m 1
 264 -288 l 1
 264 216 l 1
 0 216 l 1
 0 288 l 1
 264 288 l 1
 264 792 l 1
 336 792 l 1
 336 -288 l 1
EndSplineSet
EndChar

StartChar: eth
Encoding: 358 240 251
Width: 600
Flags: MW
HStem: -14 76<246.5 373 246.5 376.5> 394 76<314.5 404 300 439> 578 20G<324 324> 620 20G<224 224>
VStem: 80 88<168.5 231.5 168.5 256> 523 88<219.5 295.5>
LayerCount: 2
Fore
SplineSet
376 660 m 1
 433 727 l 1
 488 683 l 1
 440 623 l 1
 587 536 611 403 611 317 c 0
 611 103 459 -14 294 -14 c 0
 172 -14 80 53 80 179 c 0
 80 333 217 470 383 470 c 0
 425 470 479 459 514 434 c 1
 516 436 l 1
 482 492 438 531 387 562 c 1
 324 491 l 1
 263 533 l 1
 324 598 l 1
 272 624 256 630 224 640 c 1
 263 708 l 1
 320 689 344 677 376 660 c 1
386 394 m 0
 243 394 168 275 168 188 c 0
 168 149 185 62 308 62 c 0
 438 62 523 171 523 268 c 0
 523 323 492 394 386 394 c 0
EndSplineSet
EndChar

StartChar: eng
Encoding: 359 331 252
Width: 600
Flags: W
HStem: -134 88<229 302 210 308> 0 82<34 114 203 266 16 114> 371 82<114 175 95 283> 381 88<392.5 436>
VStem: 473 88<321.5 342.5>
LayerCount: 2
Fore
SplineSet
252 311 m 1xf8
 203 82 l 1
 283 82 l 1
 266 0 l 1
 16 0 l 1
 34 82 l 1
 114 82 l 1
 175 371 l 1
 95 371 l 1
 114 453 l 1
 283 453 l 1xe8
 275 422 l 1
 302 437 360 469 424 469 c 0
 519 469 561 403 561 331 c 0
 561 312 557 291 556 286 c 2
 503 36 l 2
 478 -81 377 -134 302 -134 c 2
 210 -134 l 1
 229 -46 l 1
 308 -46 l 2
 375 -46 409 13 416 47 c 2
 469 291 l 2
 471 301 473 312 473 324 c 0
 473 361 452 381 420 381 c 0
 365 381 313 350 252 311 c 1xf8
EndSplineSet
EndChar

StartChar: arrowleft
Encoding: 360 8592 253
Width: 600
Flags: MW
HStem: 257 60<165 574 165 574>
VStem: 18 556<282.5 294>
LayerCount: 2
Fore
SplineSet
574 257 m 1
 165 257 l 1
 203 202 205 173 205 173 c 2
 205 168 201 154 185 154 c 0
 175 154 168 162 151 181 c 0
 136 197 112 223 37 266 c 0
 26 272 18 276 18 289 c 0
 18 299 23 301 57 322 c 0
 115 356 137 378 163 408 c 0
 171 418 178 421 184 421 c 0
 201 421 205 408 205 402 c 0
 205 384 181 341 165 317 c 1
 574 317 l 1
 574 257 l 1
EndSplineSet
EndChar

StartChar: rcedilla
Encoding: 361 343 254
Width: 600
Flags: W
HStem: -170 70<313 328.5 313 365.5> -18 21G<374 374> 0 82<75 196 283 306 57 196 380 449 380 380> 331 21G<645 645> 371 82<162 257 144 362> 378 86<490 522.5>
VStem: 57 588<0 331> 348 85<-95 -89.5>
LayerCount: 2
Fore
SplineSet
380 0 m 1xba
 374 -18 l 1xd9
 406 -27 433 -46 433 -83 c 0
 433 -112 410 -170 321 -170 c 0
 268 -170 217 -157 194 -150 c 1
 219 -82 l 1
 262 -92 301 -100 325 -100 c 0
 332 -100 348 -98 348 -92 c 0
 348 -87 327 -83 325 -83 c 0
 323 -82 295 -79 281 -77 c 1
 306 0 l 1xb9
 57 0 l 1
 75 82 l 1
 196 82 l 1
 257 371 l 1
 144 371 l 1
 162 453 l 1
 362 453 l 1xba
 350 399 l 1
 352 397 l 1
 412 454 471 464 509 464 c 0
 624 464 641 354 645 331 c 1
 553 319 l 1
 549 343 543 378 502 378 c 0xb6
 429 378 351 289 319 252 c 1
 283 82 l 1
 467 82 l 1
 449 0 l 1
 380 0 l 1xba
EndSplineSet
EndChar

StartChar: plusminus
Encoding: 362 177 255
Width: 600
Flags: W
HStem: 23 88<117 609 117 609> 137 21G<319 407 319 319> 325 88<117 319 117 319 407 609> 581 20G<319 407 407 407>
VStem: 319 88<137 325 137 325 413 601>
LayerCount: 2
Fore
SplineSet
319 601 m 1
 407 601 l 1
 407 413 l 1
 609 413 l 1
 609 325 l 1
 407 325 l 1
 407 137 l 1
 319 137 l 1xf8
 319 325 l 1
 117 325 l 1
 117 413 l 1
 319 413 l 1
 319 601 l 1
117 111 m 1xb8
 609 111 l 1
 609 23 l 1
 117 23 l 1
 117 111 l 1xb8
EndSplineSet
EndChar

StartChar: Gamma
Encoding: 363 915 256
Width: 600
Flags: MW
HStem: 0 82<70 147 229 341 53 147> 501 82<164 236 147 666 319 566 319 319>
VStem: 53 613<0 583>
LayerCount: 2
Fore
SplineSet
164 583 m 1
 666 583 l 1
 626 371 l 1
 547 371 l 1
 566 501 l 1
 319 501 l 1
 229 82 l 1
 358 82 l 1
 341 0 l 1
 53 0 l 1
 70 82 l 1
 147 82 l 1
 236 501 l 1
 147 501 l 1
 164 583 l 1
EndSplineSet
EndChar

StartChar: underscorebroken
Encoding: 364 -1 257
Width: 600
Flags: MW
HStem: -162 87<45 555 45 555>
VStem: 45 510<-162 -75 -162 -75>
LayerCount: 2
Fore
SplineSet
555 -75 m 1
 555 -162 l 1
 45 -162 l 1
 45 -75 l 1
 555 -75 l 1
EndSplineSet
EndChar

StartChar: SF150000
Encoding: 365 9618 258
Width: 600
Flags: W
HStem: -267 100<101 199 0 100 301 399 501 600> -167 100<0 99 0 99 101 199 201 299 301 399 401 499 501 600> -67 100<0 99 0 99 101 199 0 101 201 299 301 399 401 499 501 600> 33 100<0 99 0 99 101 199 201 299 301 399 401 499 501 600> 133 100<0 99 0 99 101 199 0 101 201 299 301 399 401 499 501 600> 233 100<0 99 0 99 101 199 201 299 301 399 401 499 501 600> 333 100<0 99 0 99 101 199 0 101 201 299 301 399 401 499 501 600> 433 100<0 99 0 99 101 199 201 299 301 399 401 499 501 600> 533 100<0 99 0 99 101 199 0 101 201 299 301 399 401 499 501 600> 633 100<0 99 0 100 0 199 0 199 201 201 201 299 401 401 401 499>
VStem: 0 100<-166 -68 34 132 234 332 434 532 634 733> 100 100<-267 -168 -267 -168 -166 -68 -267 -166 -66 32 34 132 134 232 234 332 334 432 434 532 534 632 634 733> 200 100<-267 -168 -267 -168 -166 -68 -66 32 34 132 134 232 234 332 334 432 434 532 534 632 634 733> 300 100<-267 -168 -267 -168 -166 -68 -267 -166 -66 32 34 132 134 232 234 332 334 432 434 532 534 632 634 733> 400 100<-267 -168 -267 -168 -166 -68 -66 32 34 132 134 232 234 332 334 432 434 532 534 632 634 733> 500 100<-267 -168 -168 -168 -267 -68 -267 -166 -66 32 32 32 134 232 232 232 334 432 432 432 534 632 632 632>
LayerCount: 2
Fore
SplineSet
0 733 m 1xaaeb
 100 733 l 1
 100 634 l 1
 99 633 l 1
 0 633 l 1
 0 733 l 1xaaeb
200 733 m 1
 300 733 l 1
 300 634 l 1
 299 633 l 1
 201 633 l 1
 200 634 l 1
 200 733 l 1
400 733 m 1
 500 733 l 1
 500 634 l 1
 499 633 l 1
 401 633 l 1
 400 634 l 1
 400 733 l 1
100 632 m 1x0095
 101 633 l 1
 199 633 l 1
 200 632 l 1
 200 534 l 1
 199 533 l 1
 101 533 l 1
 100 534 l 1
 100 632 l 1x0095
300 632 m 1
 301 633 l 1
 399 633 l 1
 400 632 l 1
 400 534 l 1
 399 533 l 1
 301 533 l 1
 300 534 l 1
 300 632 l 1
501 633 m 1
 600 633 l 1
 600 533 l 1
 501 533 l 1
 500 534 l 1
 500 632 l 1
 501 633 l 1
0 533 m 1x012a
 99 533 l 1
 100 532 l 1
 100 434 l 1
 99 433 l 1
 0 433 l 1
 0 533 l 1x012a
200 532 m 1
 201 533 l 1
 299 533 l 1
 300 532 l 1
 300 434 l 1
 299 433 l 1
 201 433 l 1
 200 434 l 1
 200 532 l 1
400 532 m 1
 401 533 l 1
 499 533 l 1
 500 532 l 1
 500 434 l 1
 499 433 l 1
 401 433 l 1
 400 434 l 1
 400 532 l 1
100 432 m 1x0215
 101 433 l 1
 199 433 l 1
 200 432 l 1
 200 334 l 1
 199 333 l 1
 101 333 l 1
 100 334 l 1
 100 432 l 1x0215
300 432 m 1
 301 433 l 1
 399 433 l 1
 400 432 l 1
 400 334 l 1
 399 333 l 1
 301 333 l 1
 300 334 l 1
 300 432 l 1
501 433 m 1
 600 433 l 1
 600 333 l 1
 501 333 l 1
 500 334 l 1
 500 432 l 1
 501 433 l 1
0 333 m 1x042a
 99 333 l 1
 100 332 l 1
 100 234 l 1
 99 233 l 1
 0 233 l 1
 0 333 l 1x042a
200 332 m 1
 201 333 l 1
 299 333 l 1
 300 332 l 1
 300 234 l 1
 299 233 l 1
 201 233 l 1
 200 234 l 1
 200 332 l 1
400 332 m 1
 401 333 l 1
 499 333 l 1
 500 332 l 1
 500 234 l 1
 499 233 l 1
 401 233 l 1
 400 234 l 1
 400 332 l 1
100 232 m 1x0815
 101 233 l 1
 199 233 l 1
 200 232 l 1
 200 134 l 1
 199 133 l 1
 101 133 l 1
 100 134 l 1
 100 232 l 1x0815
300 232 m 1
 301 233 l 1
 399 233 l 1
 400 232 l 1
 400 134 l 1
 399 133 l 1
 301 133 l 1
 300 134 l 1
 300 232 l 1
501 233 m 1
 600 233 l 1
 600 133 l 1
 501 133 l 1
 500 134 l 1
 500 232 l 1
 501 233 l 1
0 133 m 1x102a
 99 133 l 1
 100 132 l 1
 100 34 l 1
 99 33 l 1
 0 33 l 1
 0 133 l 1x102a
200 132 m 1
 201 133 l 1
 299 133 l 1
 300 132 l 1
 300 34 l 1
 299 33 l 1
 201 33 l 1
 200 34 l 1
 200 132 l 1
400 132 m 1
 401 133 l 1
 499 133 l 1
 500 132 l 1
 500 34 l 1
 499 33 l 1
 401 33 l 1
 400 34 l 1
 400 132 l 1
100 32 m 1x2015
 101 33 l 1
 199 33 l 1
 200 32 l 1
 200 -66 l 1
 199 -67 l 1
 101 -67 l 1
 100 -66 l 1
 100 32 l 1x2015
300 32 m 1
 301 33 l 1
 399 33 l 1
 400 32 l 1
 400 -66 l 1
 399 -67 l 1
 301 -67 l 1
 300 -66 l 1
 300 32 l 1
501 33 m 1
 600 33 l 1
 600 -67 l 1
 501 -67 l 1
 500 -66 l 1
 500 32 l 1
 501 33 l 1
0 -67 m 1x402a
 99 -67 l 1
 100 -68 l 1
 100 -166 l 1
 99 -167 l 1
 0 -167 l 1
 0 -67 l 1x402a
200 -68 m 1
 201 -67 l 1
 299 -67 l 1
 300 -68 l 1
 300 -166 l 1
 299 -167 l 1
 201 -167 l 1
 200 -166 l 1
 200 -68 l 1
400 -68 m 1
 401 -67 l 1
 499 -67 l 1
 500 -68 l 1
 500 -166 l 1
 499 -167 l 1
 401 -167 l 1
 400 -166 l 1
 400 -68 l 1
101 -167 m 1x8015
 199 -167 l 1
 200 -168 l 1
 200 -267 l 1
 100 -267 l 1
 100 -168 l 1
 101 -167 l 1x8015
301 -167 m 1
 399 -167 l 1
 400 -168 l 1
 400 -267 l 1
 300 -267 l 1
 300 -168 l 1
 301 -167 l 1
501 -167 m 1
 600 -167 l 1
 600 -267 l 1
 500 -267 l 1
 500 -168 l 1
 501 -167 l 1
EndSplineSet
EndChar

StartChar: SF080000
Encoding: 366 9500 259
Width: 600
Flags: MW
HStem: 216 72<336 600 336 600>
VStem: 264 72<-288 216 288 792>
LayerCount: 2
Fore
SplineSet
264 -288 m 1
 264 792 l 1
 336 792 l 1
 336 288 l 1
 600 288 l 1
 600 216 l 1
 336 216 l 1
 336 -288 l 1
 264 -288 l 1
EndSplineSet
EndChar

StartChar: foursuperior
Encoding: 367 8308 260
Width: 600
Flags: W
HStem: 254 53<242 321 379 420 231 321> 344 50<249 328 397 439 249 386> 619 20G<386 449 449 449>
VStem: 172 278<344 394> 324.5 58
LayerCount: 2
Fore
SplineSet
449 639 m 1xf0
 397 394 l 1
 450 394 l 1
 439 344 l 1
 386 344 l 1
 379 307 l 1
 431 307 l 1
 420 254 l 1
 231 254 l 1
 242 307 l 1
 321 307 l 1
 328 344 l 1xe8
 172 344 l 1
 182 390 l 1
 386 639 l 1
 449 639 l 1xf0
339 394 m 1
 371 541 l 1
 369 543 l 1
 249 394 l 1
 339 394 l 1
EndSplineSet
EndChar

StartChar: SF380000
Encoding: 368 9562 261
Width: 600
Flags: MW
HStem: 144 72<264 600 264 600> 288 72<408 600 408 600>
VStem: 192 72<216 216 216 792> 336 72<360 792 360 792 360 792>
LayerCount: 2
Fore
SplineSet
336 288 m 1
 336 792 l 1
 408 792 l 1
 408 360 l 1
 600 360 l 1
 600 288 l 1
 336 288 l 1
264 216 m 1
 600 216 l 1
 600 144 l 1
 192 144 l 1
 192 792 l 1
 264 792 l 1
 264 216 l 1
EndSplineSet
EndChar

StartChar: Iogonek
Encoding: 369 302 262
Width: 600
Flags: MW
HStem: -144 66<265 338.5> 0 82<98 267 98 279 80 267 417 417 417 507> 501 82<204 356 186 631 444 444 444 613>
VStem: 208 96<-69.5 -61.5>
LayerCount: 2
Fore
SplineSet
415 -47 m 1
 380 -116 l 1
 354 -130 326 -144 283 -144 c 0
 247 -144 208 -126 208 -86 c 0
 208 -37 264 -8 279 -2 c 1
 279 0 l 1
 80 0 l 1
 98 82 l 1
 267 82 l 1
 356 501 l 1
 186 501 l 1
 204 583 l 1
 631 583 l 1
 613 501 l 1
 444 501 l 1
 356 82 l 1
 525 82 l 1
 507 0 l 1
 417 0 l 1
 388 -6 304 -32 304 -63 c 0
 304 -76 320 -78 328 -78 c 0
 349 -78 356 -75 415 -47 c 1
EndSplineSet
EndChar

StartChar: SF500000
Encoding: 370 9560 263
Width: 600
Flags: MW
HStem: 144 72<336 600 336 600> 288 72<336 600 336 600>
VStem: 264 72<216 288 360 792>
LayerCount: 2
Fore
SplineSet
264 792 m 1
 336 792 l 1
 336 360 l 1
 600 360 l 1
 600 288 l 1
 336 288 l 1
 336 216 l 1
 600 216 l 1
 600 144 l 1
 264 144 l 1
 264 792 l 1
EndSplineSet
EndChar

StartChar: female
Encoding: 371 9792 264
Width: 600
Flags: MW
HStem: 163 47<154 276 154 276 326 448> 275 50<274 276 274 339> 513 50<274 326>
VStem: 156 50<393 445 393 457.5> 276 50<38 163 38 163 210 275> 394 50<393 445>
LayerCount: 2
Fore
SplineSet
326 275 m 1
 326 210 l 1
 448 210 l 1
 448 163 l 1
 326 163 l 1
 326 38 l 1
 276 38 l 1
 276 163 l 1
 154 163 l 1
 154 210 l 1
 276 210 l 1
 276 275 l 1
 237 275 156 326 156 417 c 0
 156 498 220 563 300 563 c 0
 383 563 444 494 444 418 c 0
 444 322 352 275 326 275 c 1
300 513 m 0
 248 513 206 471 206 419 c 0
 206 367 248 325 300 325 c 0
 352 325 394 367 394 419 c 0
 394 471 352 513 300 513 c 0
EndSplineSet
EndChar

StartChar: SF040000
Encoding: 372 9496 265
Width: 600
Flags: MW
HStem: 216 72<0 264 0 336 0 264>
VStem: 264 72<288 792 216 792>
LayerCount: 2
Fore
SplineSet
264 288 m 1
 264 792 l 1
 336 792 l 1
 336 216 l 1
 0 216 l 1
 0 288 l 1
 264 288 l 1
EndSplineSet
EndChar

StartChar: eightsuperior
Encoding: 373 8312 266
Width: 600
Flags: W
HStem: 246 56<294 331 294 339.5> 417 56<332 351.5> 583 56<350 385>
VStem: 192 62<334.5 358.5> 235 62<506 536.5 506 543> 390 62<351 383> 421 62<532 553>
LayerCount: 2
Fore
SplineSet
192 337 m 0xfc
 192 380 216 418 261 447 c 1
 242 470 235 486 235 509 c 0
 235 577 305 639 382 639 c 0
 440 639 483 602 483 553 c 0xea
 483 511 464 480 421 447 c 1
 442 430 452 408 452 383 c 0
 452 310 381 246 298 246 c 0
 236 246 192 284 192 337 c 0xfc
297 519 m 0xea
 297 493 318 473 346 473 c 0
 384 473 421 506 421 540 c 0
 421 566 400 583 370 583 c 0
 330 583 297 554 297 519 c 0xea
254 348 m 0xf4
 254 321 278 302 310 302 c 0
 352 302 390 333 390 369 c 0
 390 397 368 417 335 417 c 0
 291 417 254 384 254 348 c 0xf4
EndSplineSet
EndChar

StartChar: Eogonek
Encoding: 374 280 267
Width: 600
Flags: W
HStem: -144 66<380 454> 0 82<58 140 229 395 40 140> 195 22 264 86<285 383 267 401> 367 53<416 622 416 538> 501 82<164 229 146 663 317 317 317 557>
VStem: 324 95<-69.5 -61.5>
LayerCount: 2
Fore
SplineSet
530 -47 m 1
 495 -116 l 1
 469 -130 441 -144 398 -144 c 0
 362 -144 324 -126 324 -86 c 0
 324 -37 379 -8 395 -2 c 1
 395 0 l 1
 40 0 l 1
 58 82 l 1
 140 82 l 1
 229 501 l 1
 146 501 l 1
 164 583 l 1
 663 583 l 1
 622 367 l 1
 538 367 l 1xfe
 557 501 l 1
 317 501 l 1
 285 350 l 1
 401 350 l 1xf6
 416 420 l 1
 501 420 l 1xfe
 453 195 l 1
 369 195 l 1
 383 264 l 1
 267 264 l 1
 229 82 l 1
 477 82 l 1
 510 217 l 1
 595 217 l 1
 548 0 l 1
 532 0 l 1
 503 -6 419 -32 419 -63 c 0
 419 -76 436 -78 443 -78 c 0
 465 -78 471 -75 530 -47 c 1
EndSplineSet
EndChar

StartChar: mu
Encoding: 376 181 269
Width: 600
Flags: W
HStem: -14 86<275.5 328.5> 0 82<504 566> 375 78<115 178 98 283 416 479>
VStem: 68 516<-142 82>
LayerCount: 2
Fore
SplineSet
115 453 m 1x70
 283 453 l 1
 229 202 l 2
 227 193 219 156 219 137 c 0
 219 110 246 72 299 72 c 0xb0
 414 72 438 183 444 213 c 2
 479 375 l 1
 399 375 l 1
 416 453 l 1
 584 453 l 1
 504 82 l 1
 584 82 l 1
 566 0 l 1
 399 0 l 1x70
 405 26 l 1
 403 28 l 1
 387 11 359 -14 298 -14 c 0
 253 -14 217 -2 192 28 c 1xb0
 156 -142 l 1
 68 -142 l 1
 178 375 l 1
 98 375 l 1
 115 453 l 1x70
EndSplineSet
EndChar

StartChar: hbar
Encoding: 377 295 270
Width: 600
Flags: W
HStem: 0 82<37 119 208 269 21 119 344 428 517 579> 357 78<395 429.5> 460 62<119 201 106 213 301 509> 564 84
VStem: 472 86<305 326>
LayerCount: 2
Fore
SplineSet
288 460 m 1
 273 389 l 1
 319 416 369 435 421 435 c 0
 485 435 558 391 558 307 c 0
 558 288 553 262 552 257 c 2
 517 82 l 1
 598 82 l 1
 579 0 l 1
 327 0 l 1
 344 82 l 1
 428 82 l 1
 465 265 l 2
 466 270 472 298 472 312 c 0
 472 340 442 357 417 357 c 0
 361 357 311 325 254 288 c 1xf8
 208 82 l 1
 288 82 l 1
 269 0 l 1
 21 0 l 1
 37 82 l 1
 119 82 l 1
 201 460 l 1
 106 460 l 1
 119 522 l 1
 213 522 l 1
 220 567 l 1
 130 561 l 1
 142 634 l 1
 327 648 l 1
 301 522 l 1
 521 522 l 1
 509 460 l 1
 288 460 l 1
EndSplineSet
EndChar

StartChar: Gcedilla
Encoding: 378 290 271
Width: 600
Flags: W
HStem: -170 70<301.5 317 301.5 353.5> -18 21G<362 362> -15 21G<289 289> -14 21G<363 363> 194 84<363 489 345 642 578 578 578 624> 515 84<353.5 440.5> 567 20G<589 589>
VStem: 85 93<173 294 168 311> 336 85<-95 -89.5> 537 81<362 451>
LayerCount: 2
Fore
SplineSet
363 -14 m 1xddc0
 362 -18 l 1xcdc0
 395 -27 421 -46 421 -83 c 0
 421 -112 398 -170 309 -170 c 0
 256 -170 205 -157 182 -150 c 1
 208 -82 l 1
 250 -92 289 -100 314 -100 c 0
 320 -100 336 -98 336 -92 c 0
 336 -87 315 -83 313 -83 c 0
 311 -82 284 -79 269 -77 c 1
 289 -15 l 1
 120 2 85 130 85 216 c 0
 85 406 234 599 426 599 c 0
 517 599 555 544 569 524 c 1xadc0
 589 587 l 1
 670 570 l 1x9bc0
 647 517 623 444 618 362 c 1
 535 348 l 1
 537 388 537 393 537 403 c 0
 537 499 460 515 421 515 c 0
 286 515 178 370 178 218 c 0
 178 118 233 70 332 70 c 0
 397 70 448 90 469 98 c 1
 489 194 l 1
 345 194 l 1
 363 278 l 1
 642 278 l 1
 624 194 l 1
 578 194 l 1
 544 35 l 1x9dc0
 477 10 432 -7 363 -14 c 1xddc0
EndSplineSet
EndChar

StartChar: SF270000
Encoding: 379 9564 272
Width: 600
Flags: MW
HStem: 216 72<0 192 264 336 0 192>
VStem: 192 72<288 792> 336 72<288 792 216 792>
LayerCount: 2
Fore
SplineSet
264 288 m 1
 336 288 l 1
 336 792 l 1
 408 792 l 1
 408 216 l 1
 0 216 l 1
 0 288 l 1
 192 288 l 1
 192 792 l 1
 264 792 l 1
 264 288 l 1
EndSplineSet
EndChar

StartChar: Lquoteright
Encoding: 380 -1 273
Width: 600
Flags: MW
HStem: 0 82<59 155 243 478 41 155> 501 82<165 243 147 469 332 451 332 332>
VStem: 41 646<0 583>
LayerCount: 2
Fore
SplineSet
165 583 m 1
 469 583 l 1
 451 501 l 1
 332 501 l 1
 243 82 l 1
 478 82 l 1
 530 278 l 1
 619 278 l 1
 547 0 l 1
 41 0 l 1
 59 82 l 1
 155 82 l 1
 243 501 l 1
 147 501 l 1
 165 583 l 1
541 583 m 1
 687 583 l 1
 506 309 l 1
 396 309 l 1
 541 583 l 1
EndSplineSet
EndChar

StartChar: SF540000
Encoding: 381 9578 274
Width: 600
Flags: MW
HStem: 144 72<0 264 0 264 336 600> 288 72<0 264 0 264 336 600>
VStem: 264 72<-288 144 -288 144 216 288 360 792>
LayerCount: 2
Fore
SplineSet
336 360 m 1
 600 360 l 1
 600 288 l 1
 336 288 l 1
 336 216 l 1
 600 216 l 1
 600 144 l 1
 336 144 l 1
 336 -288 l 1
 264 -288 l 1
 264 144 l 1
 0 144 l 1
 0 216 l 1
 264 216 l 1
 264 288 l 1
 0 288 l 1
 0 360 l 1
 264 360 l 1
 264 792 l 1
 336 792 l 1
 336 360 l 1
EndSplineSet
EndChar

StartChar: greaterequal
Encoding: 382 8805 275
Width: 600
Flags: W
HStem: 18 88<120 608 120 608> 130 21G<133 133>
VStem: 97 547<209 373 373 532>
LayerCount: 2
Fore
SplineSet
133 610 m 1
 644 373 l 1
 133 130 l 1
 97 209 l 1xe0
 445 372 l 1
 97 532 l 1
 133 610 l 1
120 106 m 1xa0
 608 106 l 1
 608 18 l 1
 120 18 l 1
 120 106 l 1xa0
EndSplineSet
EndChar

StartChar: SF510000
Encoding: 383 9554 276
Width: 600
Flags: MW
HStem: 144 72<336 600 336 600> 288 72<336 600 336 336>
VStem: 264 72<-288 144 216 288>
LayerCount: 2
Fore
SplineSet
336 216 m 1
 600 216 l 1
 600 144 l 1
 336 144 l 1
 336 -288 l 1
 264 -288 l 1
 264 360 l 1
 600 360 l 1
 600 288 l 1
 336 288 l 1
 336 216 l 1
EndSplineSet
EndChar

StartChar: Eth
Encoding: 384 208 277
Width: 600
Flags: MW
HStem: 0 82<35 112 201 281 17 112> 261 84<91 149 73 167 91 239 256 403> 501 82<141 200 123 397 289 289 289 391>
VStem: 536 93<363.5 401.5>
LayerCount: 2
Fore
SplineSet
149 261 m 1
 73 261 l 1
 91 345 l 1
 167 345 l 1
 200 501 l 1
 123 501 l 1
 141 583 l 1
 397 583 l 2
 483 583 520 573 554 549 c 0
 592 522 629 463 629 378 c 0
 629 349 621 207 522 94 c 0
 440 1 328 0 281 0 c 2
 17 0 l 1
 35 82 l 1
 112 82 l 1
 149 261 l 1
391 501 m 2
 289 501 l 1
 256 345 l 1
 421 345 l 1
 403 261 l 1
 239 261 l 1
 201 82 l 1
 289 82 l 2
 326 82 401 82 456 149 c 0
 520 227 536 324 536 368 c 0
 536 435 510 468 497 479 c 0
 480 494 457 501 391 501 c 2
EndSplineSet
EndChar

StartChar: SF190000
Encoding: 385 9569 278
Width: 600
Flags: MW
HStem: 144 72<0 264 0 264> 288 72<0 264 0 264>
VStem: 264 72<-288 144 144 144 216 288 288 288 360 792>
LayerCount: 2
Fore
SplineSet
336 -288 m 1
 264 -288 l 1
 264 144 l 1
 0 144 l 1
 0 216 l 1
 264 216 l 1
 264 288 l 1
 0 288 l 1
 0 360 l 1
 264 360 l 1
 264 792 l 1
 336 792 l 1
 336 -288 l 1
EndSplineSet
EndChar

StartChar: overline
Encoding: 386 8254 279
Width: 600
Flags: MW
HStem: 718 87<45 555 45 555>
VStem: 45 510<718 805 718 805>
LayerCount: 2
Fore
SplineSet
555 805 m 1
 555 718 l 1
 45 718 l 1
 45 805 l 1
 555 805 l 1
EndSplineSet
EndChar

StartChar: heart
Encoding: 387 9829 280
Width: 600
Flags: MW
HStem: -11 21G
VStem: 51 498<419 477.5>
LayerCount: 2
Fore
SplineSet
185 203 m 2
 133 272 l 2
 68 357 51 394 51 444 c 0
 51 511 102 563 168 563 c 0
 232 563 275 525 300 448 c 1
 302 448 l 1
 311 483 319 499 336 518 c 0
 361 547 395 563 431 563 c 0
 496 563 549 512 549 448 c 0
 549 389 524 336 452 245 c 0
 406 187 396 174 378 148 c 0
 335 83 315 43 301 -11 c 1
 292 21 286 38 275 62 c 0
 258 97 223 153 185 203 c 2
EndSplineSet
EndChar

StartChar: SM580000
Encoding: 388 -1 281
Width: 600
Flags: MW
HStem: 67 430<240.5 359.5>
VStem: 85 430<222.5 341>
LayerCount: 2
Fore
SplineSet
300 497 m 0
 419 497 515 401 515 282 c 0
 515 163 419 67 300 67 c 0
 181 67 85 163 85 282 c 0
 85 400 181 497 300 497 c 0
EndSplineSet
EndChar

StartChar: threequarters
Encoding: 389 190 282
Width: 600
Flags: W
HStem: -79 55<401 479 538 578 389 479> 4 57<415 485 556 596 415 544> 251 56<149 187 149 192.5> 431 56<167 188> 445 20G 588 56<215 234> 604 20G<733 733>
VStem: 249 61<365 401> 266 61 482 59
LayerCount: 2
Fore
SplineSet
608 304 m 1xad
 556 61 l 1
 608 61 l 1
 596 4 l 1
 544 4 l 1xf4c0
 538 -24 l 1
 590 -24 l 1
 578 -79 l 1
 389 -79 l 1
 401 -24 l 1
 479 -24 l 1xad40
 485 4 l 1
 330 4 l 1
 342 59 l 1xed40
 543 304 l 1
 608 304 l 1xad
498 61 m 1
 527 196 l 1
 525 198 l 1
 415 61 l 1
 498 61 l 1
123 549 m 1
 103 596 l 1
 170 634 196 644 234 644 c 0
 288 644 325 612 327 563 c 1xac80
 324 518 312 495 277 465 c 1xad
 299 448 310 423 310 395 c 0
 310 318 235 251 150 251 c 0
 119 251 98 257 56 275 c 2
 31 286 l 1
 65 339 l 1
 110 315 135 307 163 307 c 0
 211 307 249 343 249 387 c 0
 249 415 227 432 188 431 c 2
 155 430 l 1
 167 487 l 1xb5
 214 488 226 490 244 505 c 0
 258 517 266 534 266 551 c 0
 266 572 247 588 221 588 c 0
 200 588 183 581 149 563 c 2
 123 549 l 1
692 657 m 1
 733 624 l 1xab
 59 -94 l 1
 20 -58 l 1
 692 657 l 1
EndSplineSet
EndChar

StartChar: SF230000
Encoding: 390 9571 283
Width: 600
Flags: MW
HStem: 144 72<0 192 0 264> 288 72<0 192 0 264 0 192>
VStem: 192 72<-288 144 144 144 360 792> 336 72<-288 792 -288 792>
LayerCount: 2
Fore
SplineSet
336 -288 m 1
 336 792 l 1
 408 792 l 1
 408 -288 l 1
 336 -288 l 1
192 144 m 1
 0 144 l 1
 0 216 l 1
 264 216 l 1
 264 -288 l 1
 192 -288 l 1
 192 144 l 1
264 288 m 1
 0 288 l 1
 0 360 l 1
 192 360 l 1
 192 792 l 1
 264 792 l 1
 264 288 l 1
EndSplineSet
EndChar

StartChar: SF110000
Encoding: 391 9474 284
Width: 600
Flags: MW
HStem: -288 1080<264 336 264 336>
VStem: 264 72<-288 792 -288 792>
LayerCount: 2
Fore
SplineSet
264 -288 m 1
 264 792 l 1
 336 792 l 1
 336 -288 l 1
 264 -288 l 1
EndSplineSet
EndChar

StartChar: fivesuperior
Encoding: 392 8309 285
Width: 600
Flags: MW
HStem: 246 56<280 323.5 280 332> 447 56<337.5 350.5> 575 56<307 476 307 307>
VStem: 393 61<368 410.5>
LayerCount: 2
Fore
SplineSet
263 631 m 1
 488 631 l 1
 476 575 l 1
 307 575 l 1
 290 494 l 1
 312 501 328 503 347 503 c 0
 413 503 454 465 454 405 c 0
 454 318 378 246 286 246 c 0
 265 246 243 249 223 255 c 0
 210 259 198 264 164 278 c 1
 196 332 l 1
 238 311 265 302 295 302 c 0
 352 302 393 342 393 394 c 0
 393 427 368 447 333 447 c 0
 305 447 284 440 249 417 c 1
 221 434 l 1
 263 631 l 1
EndSplineSet
EndChar

StartChar: minussuperior
Encoding: 393 8315 286
Width: 600
Flags: MW
HStem: 409 67<163 497 163 497>
VStem: 163 334<409 476 409 476>
LayerCount: 2
Fore
SplineSet
497 476 m 1
 497 409 l 1
 163 409 l 1
 163 476 l 1
 497 476 l 1
EndSplineSet
EndChar

StartChar: ncedilla
Encoding: 394 326 287
Width: 600
Flags: W
HStem: -170 70<263.5 279.5 263.5 316> -18 25<268 325> 0 7<268 576 268 330> 0 82<34 113 203 257 16 113 340 425 513 576> 371 82<113 175 95 283> 380 88<400.5 433.5>
VStem: 298 86<-95 -89.5> 475 86<327 347>
LayerCount: 2
Fore
SplineSet
330 0 m 1xab
 325 -18 l 1xcb
 357 -27 384 -46 384 -83 c 0
 384 -112 360 -170 272 -170 c 0
 219 -170 168 -157 145 -150 c 1
 170 -82 l 1
 213 -92 251 -100 276 -100 c 0
 283 -100 298 -98 298 -92 c 0
 298 -87 278 -83 276 -83 c 0
 274 -82 246 -79 231 -77 c 1
 257 0 l 1
 16 0 l 1xab
 34 82 l 1
 113 82 l 1
 175 371 l 1
 95 371 l 1
 113 453 l 1
 283 453 l 1x9b
 274 420 l 1
 332 453 379 468 422 468 c 0
 490 468 561 420 561 335 c 0
 561 313 556 285 554 280 c 2
 513 82 l 1
 594 82 l 1x97
 576 0 l 1
 330 0 l 1xab
268 7 m 1xa7
 325 7 l 1
 340 82 l 1
 425 82 l 1
 468 287 l 2
 469 294 475 319 475 335 c 0
 475 359 452 380 415 380 c 0
 375 380 325 361 251 309 c 1
 203 82 l 1
 283 82 l 1
 268 7 l 1xa7
EndSplineSet
EndChar

StartChar: onequarter
Encoding: 395 188 288
Width: 600
Flags: W
HStem: -79 55<412 490 548 589 400 490> 4 57<426 496 567 607 426 554> 259 57<79 160 219 286 67 160> 604 20G<743 743> 623 20G<249 289 289 289>
VStem: 31 712<-58 624> 493 58
LayerCount: 2
Fore
SplineSet
619 304 m 1xac
 567 61 l 1
 619 61 l 1
 607 4 l 1
 554 4 l 1xea
 548 -24 l 1
 601 -24 l 1
 589 -79 l 1
 400 -79 l 1
 412 -24 l 1
 490 -24 l 1xaa
 496 4 l 1xea
 341 4 l 1
 353 59 l 1xec
 554 304 l 1
 619 304 l 1xac
508 61 m 1
 538 196 l 1
 536 198 l 1
 426 61 l 1
 508 61 l 1
124 592 m 1
 249 643 l 1
 289 643 l 1
 219 316 l 1
 298 316 l 1
 286 259 l 1
 67 259 l 1
 79 316 l 1
 160 316 l 1
 214 569 l 1
 137 538 l 1
 124 592 l 1
703 657 m 1
 743 624 l 1xb4
 69 -94 l 1
 31 -58 l 1
 703 657 l 1
EndSplineSet
EndChar

StartChar: phi
Encoding: 396 966 289
Width: 600
Flags: W
HStem: -13 21G<316 316> -6 21G<230 230> 388 86<419 454> 446 20G<304 304>
VStem: 83 91<184 205.5 184 215.5> 521 91<267.5 308.5>
LayerCount: 2
Fore
SplineSet
316 -13 m 1xec
 287 -151 l 1
 199 -151 l 1
 230 -6 l 1
 214 -2 175 7 142 37 c 0
 102 74 83 127 83 180 c 0
 83 251 114 310 142 348 c 0
 196 422 246 442 304 466 c 1
 283 368 l 1x5c
 179 306 174 217 174 194 c 0
 174 174 183 105 249 81 c 1
 303 337 l 2
 309 364 332 474 447 474 c 0
 520 474 612 412 612 289 c 0
 612 246 599 159 544 101 c 0
 446 -2 375 -9 316 -13 c 1xec
391 338 m 2x6c
 334 71 l 1
 374 75 414 79 484 159 c 0
 512 191 521 245 521 273 c 0
 521 344 472 388 436 388 c 0
 402 388 393 351 391 338 c 2x6c
EndSplineSet
EndChar

StartChar: highcomman
Encoding: 397 -1 290
Width: 600
Flags: W
HStem: 0 82<34 113 203 266 16 113 340 425 513 576> 371 82<113 175 95 283> 380 88<401 431> 533 139<46 88 1 171>
VStem: 475 86<327.5 349>
LayerCount: 2
Fore
SplineSet
46 672 m 1xd8
 171 672 l 1
 88 533 l 1
 1 533 l 1
 46 672 l 1xd8
113 453 m 1
 283 453 l 1xd8
 274 420 l 1
 341 455 378 468 418 468 c 0
 492 468 561 420 561 334 c 0
 561 312 556 285 555 280 c 2
 513 82 l 1
 594 82 l 1
 576 0 l 1
 324 0 l 1
 340 82 l 1
 425 82 l 1
 468 287 l 2
 469 292 475 320 475 335 c 0
 475 363 446 380 416 380 c 0
 386 380 344 373 251 309 c 1xb8
 203 82 l 1
 283 82 l 1
 266 0 l 1
 16 0 l 1
 34 82 l 1
 113 82 l 1
 175 371 l 1
 95 371 l 1
 113 453 l 1
EndSplineSet
EndChar

StartChar: yuan
Encoding: 398 -1 291
Width: 600
Flags: MW
HStem: 0 82<162 275 362 460 143 275> 195 82<181 298 162 316 403 518 181 384> 530 82<150 202 132 384 306 306 306 362 150 460 478 515 622 622 622 689>
VStem: 132 575<530 612>
LayerCount: 2
Fore
SplineSet
316 277 m 1
 323 307 l 1
 202 530 l 1
 132 530 l 1
 150 612 l 1
 384 612 l 1
 362 530 l 1
 306 530 l 1
 384 391 l 1
 515 530 l 1
 460 530 l 1
 478 612 l 1
 707 612 l 1
 689 530 l 1
 622 530 l 1
 409 307 l 1
 403 277 l 1
 536 277 l 1
 518 195 l 1
 384 195 l 1
 362 82 l 1
 478 82 l 1
 460 0 l 1
 143 0 l 1
 162 82 l 1
 275 82 l 1
 298 195 l 1
 162 195 l 1
 181 277 l 1
 316 277 l 1
EndSplineSet
EndChar

StartChar: oneeighth
Encoding: 399 8539 292
Width: 600
Flags: W
HStem: -88 56<464 501 464 509.5> 83 56<502 521.5> 249 56<520 555> 259 57<79 160 219 286 67 160> 604 20G<743 743> 623 20G<249 289 289 289>
VStem: 362 62<0.5 24.5> 405 62<172 202.5 172 209> 560 62<17 49> 591 62<198 219>
LayerCount: 2
Fore
SplineSet
362 3 m 0xd780
 362 46 386 84 431 113 c 1
 412 136 405 152 405 175 c 0
 405 243 475 305 552 305 c 0
 610 305 653 268 653 219 c 0xe540
 653 177 634 146 591 113 c 1
 612 96 622 74 622 49 c 0
 622 -24 551 -88 468 -88 c 0
 406 -88 362 -50 362 3 c 0xd780
467 185 m 0xe540
 467 159 488 139 516 139 c 0
 554 139 591 172 591 206 c 0
 591 232 570 249 540 249 c 0
 500 249 467 220 467 185 c 0xe540
424 14 m 0xd680
 424 -13 448 -32 480 -32 c 0
 522 -32 560 -1 560 35 c 0
 560 63 538 83 505 83 c 0
 461 83 424 50 424 14 c 0xd680
124 592 m 1
 249 643 l 1
 289 643 l 1
 219 316 l 1
 298 316 l 1
 286 259 l 1
 67 259 l 1
 79 316 l 1
 160 316 l 1
 214 569 l 1
 137 538 l 1
 124 592 l 1
703 657 m 1
 743 624 l 1xd980
 69 -94 l 1
 31 -58 l 1
 703 657 l 1
EndSplineSet
EndChar

StartChar: tcedilla
Encoding: 400 355 293
Width: 600
Flags: W
HStem: -170 70<308.5 324 308.5 359.5> -18 21G<368 368> -12 21G<296 296> -11 21G<370 370> 357 84<180 229 162 246 180 316 334 531> 563 20G<276 363 363 363>
VStem: 179 88<94 110.5> 343 84<-95 -89.5>
LayerCount: 2
Fore
SplineSet
370 -11 m 1x9f
 368 -18 l 1xcf
 401 -27 427 -46 427 -83 c 0
 427 -112 404 -170 315 -170 c 0
 262 -170 211 -157 188 -150 c 1
 213 -82 l 1
 256 -92 296 -100 321 -100 c 0
 327 -100 343 -98 343 -92 c 0
 343 -87 322 -83 320 -83 c 0
 318 -82 290 -79 275 -77 c 1
 296 -12 l 1xaf
 187 6 179 84 179 101 c 0
 179 120 182 137 195 198 c 2
 229 357 l 1
 162 357 l 1
 180 441 l 1
 246 441 l 1
 276 583 l 1
 363 583 l 1
 334 441 l 1
 548 441 l 1
 531 357 l 1
 316 357 l 1
 279 189 l 2
 274 164 267 132 267 115 c 0
 267 73 318 73 328 73 c 0
 379 73 419 84 557 138 c 1
 557 47 l 1
 467 9 406 -6 370 -11 c 1x9f
EndSplineSet
EndChar

StartChar: musicalnotedbl
Encoding: 401 9835 294
Width: 600
Flags: W
HStem: -20 21G<75 130> -20 152<117.5 130> 24 153<415 428.5> 330 21G<479 479> 459 20G<182 182>
VStem: 182 50<127 262 338 413> 479 50<171 330 330 330 405 481 481 481>
LayerCount: 2
Fore
SplineSet
479 171 m 1xbe
 479 330 l 1
 232 262 l 1
 232 116 l 2
 232 13 154 -20 106 -20 c 0
 44 -20 43 19 43 34 c 0
 43 83 88 132 147 132 c 0
 159 132 169 130 182 127 c 1x5e
 182 479 l 1
 529 569 l 1
 529 161 l 2
 529 59 453 24 404 24 c 0
 373 24 341 37 341 78 c 0
 341 127 385 177 445 177 c 0
 457 177 467 175 479 171 c 1xbe
232 413 m 1
 232 338 l 1
 479 405 l 1
 479 481 l 1
 232 413 l 1
EndSplineSet
EndChar

StartChar: SF220000
Encoding: 402 9557 295
Width: 600
Flags: MW
HStem: 144 72<0 264 0 264> 288 72<0 264 0 336>
VStem: 264 72<-288 144 144 144 216 288 288 288>
LayerCount: 2
Fore
SplineSet
0 216 m 1
 264 216 l 1
 264 288 l 1
 0 288 l 1
 0 360 l 1
 336 360 l 1
 336 -288 l 1
 264 -288 l 1
 264 144 l 1
 0 144 l 1
 0 216 l 1
EndSplineSet
EndChar

StartChar: SM600000
Encoding: 403 9650 296
Width: 600
Flags: MW
HStem: 446 20G<300 300>
VStem: 102 396<95 95>
LayerCount: 2
Fore
SplineSet
102 95 m 1
 300 466 l 1
 498 95 l 1
 102 95 l 1
EndSplineSet
EndChar

StartChar: multiply
Encoding: 404 215 297
Width: 600
Flags: MW
HStem: 439 20G<160 160 569 569>
VStem: 160 409<173 173 173 459>
LayerCount: 2
Fore
SplineSet
426 316 m 1
 569 173 l 1
 508 112 l 1
 365 255 l 1
 222 112 l 1
 160 173 l 1
 303 316 l 1
 160 459 l 1
 222 521 l 1
 365 378 l 1
 508 521 l 1
 569 459 l 1
 426 316 l 1
EndSplineSet
EndChar

StartChar: Phi
Encoding: 405 934 298
Width: 600
Flags: W
HStem: 0 63<195 271 354 429 182 271> 110 78<364 380> 400 78<343 359 359 426> 400 183<343 343 426 426> 519 64<292 368 279 540 452 452 452 527>
VStem: 97 86<238 262> 540 86<314 347.5 298 359>
LayerCount: 2
Fore
SplineSet
368 519 m 1xee
 279 519 l 1
 292 583 l 1
 540 583 l 1
 527 519 l 1
 452 519 l 1
 443 478 l 1
 463 476 517 473 554 451 c 0
 607 420 626 368 626 327 c 0
 626 269 594 193 522 150 c 0
 460 113 396 111 364 110 c 1
 354 63 l 1
 441 63 l 1
 429 0 l 1
 182 0 l 1
 195 63 l 1
 271 63 l 1
 282 109 l 1
 257 110 204 114 163 139 c 0
 113 169 97 219 97 257 c 0
 97 267 97 467 359 478 c 1
 368 519 l 1xee
297 187 m 1
 343 400 l 1xd6
 183 395 183 276 183 266 c 0
 183 190 263 189 297 187 c 1
426 400 m 1
 380 188 l 1
 541 194 540 307 540 321 c 0
 540 397 458 399 426 400 c 1
EndSplineSet
EndChar

StartChar: pi
Encoding: 406 960 299
Width: 600
Flags: MW
HStem: 0 82<9 83 166 215 -8 83 315 374 457 527> 371 82<75 145 58 611 230 436 230 230 520 593 520 520>
VStem: -8 619<0 453>
LayerCount: 2
Fore
SplineSet
611 453 m 1
 593 371 l 1
 520 371 l 1
 457 82 l 1
 544 82 l 1
 527 0 l 1
 298 0 l 1
 315 82 l 1
 374 82 l 1
 436 371 l 1
 230 371 l 1
 166 82 l 1
 230 82 l 1
 215 0 l 1
 -8 0 l 1
 9 82 l 1
 83 82 l 1
 145 371 l 1
 58 371 l 1
 75 453 l 1
 611 453 l 1
EndSplineSet
EndChar

StartChar: SF360000
Encoding: 407 9566 300
Width: 600
Flags: MW
HStem: 144 72<336 600 336 600> 288 72<336 600 336 600>
VStem: 264 72<-288 144 216 288 360 792>
LayerCount: 2
Fore
SplineSet
264 -288 m 1
 264 792 l 1
 336 792 l 1
 336 360 l 1
 600 360 l 1
 600 288 l 1
 336 288 l 1
 336 216 l 1
 600 216 l 1
 600 144 l 1
 336 144 l 1
 336 -288 l 1
 264 -288 l 1
EndSplineSet
EndChar

StartChar: periodsuperior
Encoding: 408 -1 301
Width: 600
Flags: MW
HStem: 250 115<350 370>
VStem: 289 142<297.5 317.5>
LayerCount: 2
Fore
SplineSet
370 365 m 0
 399 365 431 349 431 316 c 0
 431 279 391 250 349 250 c 0
 320 250 289 266 289 299 c 0
 289 336 330 365 370 365 c 0
EndSplineSet
EndChar

StartChar: SF250000
Encoding: 409 9559 302
Width: 600
Flags: MW
HStem: 144 72<0 192 0 264> 288 72<0 336 0 408>
VStem: 192 72<-288 144 144 144> 336 72<-288 288 288 288>
LayerCount: 2
Fore
SplineSet
192 144 m 1
 0 144 l 1
 0 216 l 1
 264 216 l 1
 264 -288 l 1
 192 -288 l 1
 192 144 l 1
336 -288 m 1
 336 288 l 1
 0 288 l 1
 0 360 l 1
 408 360 l 1
 408 -288 l 1
 336 -288 l 1
EndSplineSet
EndChar

StartChar: SF200000
Encoding: 410 9570 303
Width: 600
Flags: MW
HStem: 216 72<0 192 0 192>
VStem: 192 72<-288 216 216 216 288 792 -288 792> 336 72<-288 792>
LayerCount: 2
Fore
SplineSet
264 792 m 1
 264 -288 l 1
 192 -288 l 1
 192 216 l 1
 0 216 l 1
 0 288 l 1
 192 288 l 1
 192 792 l 1
 264 792 l 1
408 -288 m 1
 336 -288 l 1
 336 792 l 1
 408 792 l 1
 408 -288 l 1
EndSplineSet
EndChar

StartChar: kcedilla
Encoding: 411 311 304
Width: 600
Flags: W
HStem: -170 70<210.5 234.5 210.5 262.5> -18 25<271 271> 0 7 0 82<21 101 21 171 3 101 314 355 459 536> 371 82<348 362 329 597 503 503 503 579> 551 97 613 20G<121 121> 628 20G<309 309>
VStem: 3 594<0 453> 246 84<-93.5 -89>
LayerCount: 2
Fore
SplineSet
121 633 m 1xab80
 309 648 l 1
 233 295 l 1
 362 369 l 1
 362 371 l 1
 329 371 l 1
 348 453 l 1
 597 453 l 1
 579 371 l 1
 503 371 l 1
 329 260 l 1
 393 180 422 144 459 82 c 1
 554 82 l 1x9980
 536 0 l 1
 296 0 l 1xa980
 314 82 l 1
 355 82 l 1x9980
 314 139 296 163 254 212 c 1
 210 183 l 1
 171 0 l 1
 3 0 l 1xa980
 21 82 l 1
 101 82 l 1
 201 555 l 1
 111 547 l 1x9c80
 121 633 l 1xab80
279 7 m 1xa940
 271 -18 l 1xc940
 304 -27 330 -46 330 -83 c 0
 330 -112 307 -170 218 -170 c 0
 165 -170 114 -157 91 -150 c 1
 117 -82 l 1
 159 -92 198 -100 223 -100 c 0
 246 -100 246 -94 246 -93 c 0
 246 -85 228 -83 178 -77 c 1
 206 7 l 1
 279 7 l 1xa940
EndSplineSet
EndChar

StartChar: Ccedilla
Encoding: 412 199 305
Width: 600
Flags: W
HStem: -182 70<307.5 328.5 307.5 358> -16 86<373 373> 513 86<374 458> 568 20G<608 608>
VStem: 103 91<193 299 193 324> 349 84<-104.5 -94> 555 75<353 459.5>
LayerCount: 2
Fore
SplineSet
193 -162 m 1xee
 218 -94 l 1
 225 -96 290 -112 325 -112 c 0
 332 -112 349 -111 349 -98 c 0
 349 -90 340 -86 334 -85 c 0
 329 -83 305 -80 280 -77 c 1
 300 -17 l 1
 168 -3 103 90 103 219 c 0
 103 429 265 599 445 599 c 0
 478 599 547 593 587 528 c 1xee
 608 588 l 1
 684 569 l 1xde
 668 534 638 471 630 353 c 1
 551 358 l 1
 553 379 555 399 555 419 c 0
 555 500 476 513 440 513 c 0
 308 513 194 380 194 218 c 0
 194 168 206 70 345 70 c 0
 437 70 487 104 550 148 c 1
 597 75 l 1
 556 45 478 -13 373 -16 c 1
 373 -18 l 1
 390 -21 433 -31 433 -90 c 0
 433 -137 395 -182 321 -182 c 0
 266 -182 219 -169 193 -162 c 1xee
EndSplineSet
EndChar

StartChar: fiveeighths
Encoding: 413 8541 306
Width: 600
Flags: W
HStem: -88 56<451 488 451 496.5> 83 56<489 508.5> 246 56<152 195.5 152 204> 249 56<507 542> 447 56<209.5 222.5> 575 56<179 348 179 179> 604 20G<719 719>
VStem: 265 61<368 410.5> 349 62<0.5 24.5> 392 62<172 202.5 172 209> 547 62<17 49> 578 62<198 219>
LayerCount: 2
Fore
SplineSet
349 3 m 0xede0
 349 46 373 84 418 113 c 1
 399 136 392 152 392 175 c 0
 392 243 462 305 539 305 c 0
 597 305 640 268 640 219 c 0xdd50
 640 177 621 146 578 113 c 1
 599 96 609 74 609 49 c 0
 609 -24 538 -88 455 -88 c 0
 393 -88 349 -50 349 3 c 0xede0
454 185 m 0xdd50
 454 159 475 139 503 139 c 0
 541 139 578 172 578 206 c 0
 578 232 557 249 527 249 c 0
 487 249 454 220 454 185 c 0xdd50
411 14 m 0xeda0
 411 -13 435 -32 467 -32 c 0
 509 -32 547 -1 547 35 c 0
 547 63 525 83 492 83 c 0
 448 83 411 50 411 14 c 0xeda0
135 631 m 1
 360 631 l 1
 348 575 l 1
 179 575 l 1
 162 494 l 1
 184 501 200 503 219 503 c 0
 285 503 326 465 326 405 c 0
 326 318 250 246 158 246 c 0
 137 246 115 249 95 255 c 0
 82 259 70 264 36 278 c 1
 68 332 l 1
 110 311 137 302 167 302 c 0
 224 302 265 342 265 394 c 0
 265 427 240 447 205 447 c 0xed60
 177 447 156 440 121 417 c 1
 93 434 l 1
 135 631 l 1
678 657 m 1
 719 624 l 1xeb60
 45 -94 l 1
 7 -58 l 1
 678 657 l 1
EndSplineSet
EndChar

StartChar: SF570000
Encoding: 414 9604 307
Width: 600
Flags: MW
HStem: -288 540<0 600 0 600>
VStem: 0 600<-288 252 -288 252>
LayerCount: 2
Fore
SplineSet
0 -288 m 1
 0 252 l 1
 600 252 l 1
 600 -288 l 1
 0 -288 l 1
EndSplineSet
EndChar

StartChar: minus
Encoding: 415 8722 308
Width: 600
Flags: MW
HStem: 269 87<119 611 119 611>
VStem: 119 492<269 356 269 356>
LayerCount: 2
Fore
SplineSet
611 356 m 1
 611 269 l 1
 119 269 l 1
 119 356 l 1
 611 356 l 1
EndSplineSet
EndChar

StartChar: SF590000
Encoding: 416 9616 309
Width: 600
Flags: MW
HStem: -288 1080<300 600 300 600>
VStem: 300 300<-288 792 -288 792>
LayerCount: 2
Fore
SplineSet
300 -288 m 1
 300 792 l 1
 600 792 l 1
 600 -288 l 1
 300 -288 l 1
EndSplineSet
EndChar

StartChar: ff
Encoding: 417 64256 310
Width: 600
Flags: W
HStem: 0 82<20 121 208 345 432 556 2 121> 359 84<96 179 78 197 284 403 96 266 508 632> 559 84<346.5 396.5> 604 20G 612 20G<726 726>
VStem: 2 724<0 632>
LayerCount: 2
Fore
SplineSet
726 632 m 1xec
 687 546 l 1
 658 555 614 560 601 560 c 0
 533 560 524 516 515 474 c 2
 508 443 l 1
 650 443 l 1
 632 359 l 1
 490 359 l 1
 432 82 l 1
 574 82 l 1
 556 0 l 1
 2 0 l 1
 20 82 l 1
 121 82 l 1
 179 359 l 1
 78 359 l 1
 96 443 l 1
 197 443 l 1
 208 481 l 1
 211 494 l 2
 228 569 268 643 405 643 c 0xe4
 431 643 475 641 524 624 c 1xd4
 542 632 562 637 582 640 c 0
 601 643 620 643 635 643 c 0xe4
 685 643 703 638 726 632 c 1xec
421 443 m 1
 429 481 l 2
 433 498 438 519 450 550 c 1
 433 553 409 559 384 559 c 0
 309 559 304 530 291 474 c 2
 284 443 l 1
 421 443 l 1
266 359 m 1
 208 82 l 1
 345 82 l 1
 403 359 l 1
 266 359 l 1
EndSplineSet
Ligature2: "'liga' Standard Ligatures in Latin lookup 0 subtable" f f
EndChar

StartChar: ninesuperior
Encoding: 418 8313 311
Width: 600
Flags: MW
HStem: 247 58<184 246 184 246> 390 58<334.5 349.5> 581 58<358.5 393>
VStem: 244 61<483 520.5 483 527.5> 432 61<516 534.5>
LayerCount: 2
Fore
SplineSet
184 247 m 1
 200 306 l 1
 218 305 l 1
 246 305 l 2
 306 305 340 316 371 352 c 0
 388 371 399 388 407 408 c 1
 405 410 l 1
 383 396 361 390 338 390 c 0
 281 390 244 429 244 488 c 0
 244 567 314 639 392 639 c 0
 452 639 493 593 493 525 c 0
 493 448 456 359 402 306 c 0
 360 264 306 244 233 246 c 2
 201 247 l 1
 184 247 l 1
429 497 m 1
 432 516 l 1
 432 553 408 581 378 581 c 0
 339 581 305 543 305 498 c 0
 305 468 322 448 347 448 c 0
 368 448 393 458 409 473 c 0
 415 478 419 483 429 497 c 1
EndSplineSet
EndChar

StartChar: Ncedilla
Encoding: 419 325 312
Width: 600
Flags: W
HStem: -170 70<306.5 322.5 306.5 358.5> -18 25<367 367> -12 19 -12 158<455 473 455 527 421 473> 0 82<30 95 183 261 12 95> 501 82<130 183 112 313 473 548 636 636 636 696>
VStem: 12 702<0 583> 342 85<-95 -89.5>
LayerCount: 2
Fore
SplineSet
130 583 m 1x8e
 313 583 l 1
 455 146 l 1
 473 146 l 1x96
 548 501 l 1
 455 501 l 1
 473 583 l 1
 714 583 l 1
 696 501 l 1
 636 501 l 1
 527 -12 l 1
 421 -12 l 1xa6
 275 432 l 1
 257 432 l 1
 183 82 l 1
 279 82 l 1
 261 0 l 1
 12 0 l 1
 30 82 l 1
 95 82 l 1
 183 501 l 1
 112 501 l 1
 130 583 l 1x8e
375 7 m 1xc5
 367 -18 l 1
 400 -27 427 -46 427 -83 c 0
 427 -112 403 -170 314 -170 c 0
 261 -170 211 -157 187 -150 c 1
 213 -82 l 1
 255 -92 294 -100 319 -100 c 0
 326 -100 342 -98 342 -92 c 0
 342 -87 320 -83 319 -83 c 0
 316 -82 289 -79 274 -77 c 1
 302 7 l 1
 375 7 l 1xc5
EndSplineSet
EndChar

StartChar: seveneighths
Encoding: 420 8542 313
Width: 600
Flags: W
HStem: -88 56<451 488 451 496.5> 83 56<489 508.5> 249 56<507 542> 578 56<155 288 155 155> 604 20G<686 686>
VStem: 349 62<0.5 24.5> 392 62<172 202.5 172 209> 547 62<17 49> 578 62<198 219>
LayerCount: 2
Fore
SplineSet
349 3 m 0xf7
 349 46 373 84 418 113 c 1
 399 136 392 152 392 175 c 0
 392 243 462 305 539 305 c 0
 597 305 640 268 640 219 c 0xf280
 640 177 621 146 578 113 c 1
 599 96 609 74 609 49 c 0
 609 -24 538 -88 455 -88 c 0
 393 -88 349 -50 349 3 c 0xf7
454 185 m 0xf280
 454 159 475 139 503 139 c 0
 541 139 578 172 578 206 c 0
 578 232 557 249 527 249 c 0
 487 249 454 220 454 185 c 0xf280
411 14 m 0xf5
 411 -13 435 -32 467 -32 c 0
 509 -32 547 -1 547 35 c 0
 547 63 525 83 492 83 c 0
 448 83 411 50 411 14 c 0xf5
109 634 m 1
 367 634 l 1
 356 587 l 1
 170 259 l 1
 102 259 l 1
 288 578 l 1
 155 578 l 1
 144 525 l 1
 86 525 l 1
 109 634 l 1
645 657 m 1
 686 624 l 1xeb
 12 -94 l 1
 -27 -58 l 1
 645 657 l 1
EndSplineSet
EndChar

StartChar: equivalence
Encoding: 421 8801 314
Width: 600
Flags: MW
HStem: 94 88<117 612 117 612> 269 88<117 612 117 612> 443 88<117 612 117 612>
VStem: 117 495<94 182 94 182 269 357 94 357 443 531 94 531>
LayerCount: 2
Fore
SplineSet
117 531 m 1
 612 531 l 1
 612 443 l 1
 117 443 l 1
 117 531 l 1
117 357 m 1
 612 357 l 1
 612 269 l 1
 117 269 l 1
 117 357 l 1
117 182 m 1
 612 182 l 1
 612 94 l 1
 117 94 l 1
 117 182 l 1
EndSplineSet
EndChar

StartChar: iogonek
Encoding: 422 303 315
Width: 600
Flags: MW
HStem: -144 66<267.5 341> 0 82<103 273 103 282 85 273 420 420 420 510> 371 82<209 334 191 440> 540 132<352 486 380 459>
VStem: 211 96<-69.5 -61.5>
LayerCount: 2
Fore
SplineSet
417 -47 m 1
 383 -116 l 1
 363 -127 331 -144 285 -144 c 0
 250 -144 211 -127 211 -86 c 0
 211 -37 267 -8 282 -2 c 1
 282 0 l 1
 85 0 l 1
 103 82 l 1
 273 82 l 1
 334 371 l 1
 191 371 l 1
 209 453 l 1
 440 453 l 1
 361 82 l 1
 528 82 l 1
 510 0 l 1
 420 0 l 1
 385 -7 307 -33 307 -63 c 0
 307 -76 323 -78 330 -78 c 0
 352 -78 358 -75 417 -47 c 1
352 540 m 1
 380 672 l 1
 486 672 l 1
 459 540 l 1
 352 540 l 1
EndSplineSet
EndChar

StartChar: SF210000
Encoding: 423 9558 316
Width: 600
Flags: MW
HStem: 216 72<0 192 0 408 264 336 264 264>
VStem: 192 72<-288 216 -288 216> 336 72<-288 216 216 216>
LayerCount: 2
Fore
SplineSet
264 216 m 1
 264 -288 l 1
 192 -288 l 1
 192 216 l 1
 0 216 l 1
 0 288 l 1
 408 288 l 1
 408 -288 l 1
 336 -288 l 1
 336 216 l 1
 264 216 l 1
EndSplineSet
EndChar

StartChar: ohm
Encoding: 424 8486 317
Width: 600
Flags: W
HStem: 0 76<22 196 93 196 93 272 405 507> 518 81<259.5 341>
VStem: 19 84<276.5 391 250.5 409.5> 22 71<76 116 76 116 76 116> 196 76<76 96 96 96> 329 76<76 96 76 146 76 146> 497 84<316 390.5> 507 71<76 116 0 116>
LayerCount: 2
Fore
SplineSet
22 0 m 1xfe
 22 116 l 1
 93 116 l 1
 93 76 l 1xde
 196 76 l 1
 196 96 l 1
 73 126 19 225 19 328 c 0
 19 491 151 599 300 599 c 0
 452 599 581 488 581 329 c 0xee
 581 303 580 143 405 96 c 1
 405 76 l 1
 507 76 l 1
 507 116 l 1
 578 116 l 1
 578 0 l 1xed
 329 0 l 1
 329 146 l 1
 372 154 497 179 497 324 c 0
 497 457 382 518 300 518 c 0
 219 518 103 458 103 324 c 0xee
 103 177 231 153 272 146 c 1
 272 0 l 1
 22 0 l 1xfe
EndSplineSet
EndChar

StartChar: Hbar
Encoding: 425 294 318
Width: 600
Flags: MW
HStem: 0 82<40 113 201 256 22 113 352 425 513 568> 259 84<257 462 239 480> 382 84<120 176 103 193 120 264 282 487 593 648> 501 82<146 201 128 380 290 290 290 362 458 513 146 440 601 601 601 674>
VStem: 22 670<0 583>
LayerCount: 2
Fore
SplineSet
282 466 m 1
 505 466 l 1
 513 501 l 1
 440 501 l 1
 458 583 l 1
 692 583 l 1
 674 501 l 1
 601 501 l 1
 593 466 l 1
 666 466 l 1
 648 382 l 1
 576 382 l 1
 513 82 l 1
 586 82 l 1
 568 0 l 1
 334 0 l 1
 352 82 l 1
 425 82 l 1
 462 259 l 1
 239 259 l 1
 201 82 l 1
 274 82 l 1
 256 0 l 1
 22 0 l 1
 40 82 l 1
 113 82 l 1
 176 382 l 1
 103 382 l 1
 120 466 l 1
 193 466 l 1
 201 501 l 1
 128 501 l 1
 146 583 l 1
 380 583 l 1
 362 501 l 1
 290 501 l 1
 282 466 l 1
487 382 m 1
 264 382 l 1
 257 343 l 1
 480 343 l 1
 487 382 l 1
EndSplineSet
EndChar

StartChar: SF030000
Encoding: 426 9488 319
Width: 600
Flags: MW
HStem: 216 72<0 336 0 264>
VStem: 264 72<-288 216 216 216>
LayerCount: 2
Fore
SplineSet
0 216 m 1
 0 288 l 1
 336 288 l 1
 336 -288 l 1
 264 -288 l 1
 264 216 l 1
 0 216 l 1
EndSplineSet
EndChar

StartChar: eogonek
Encoding: 427 281 320
Width: 600
Flags: W
HStem: -144 66<263 336.5> -9 21G 196 82<216 511 216 582 190 511> 383 86<337 450.5>
VStem: 99 91<196 196 196 251> 206 96<-69.5 -65> 511 91<278 278>
LayerCount: 2
Fore
SplineSet
413 -47 m 1
 378 -116 l 1
 352 -130 324 -144 281 -144 c 0
 245 -144 206 -126 206 -86 c 0xfe
 206 -44 247 -18 261 -9 c 1
 114 17 99 130 99 178 c 0
 99 324 225 469 398 469 c 0
 538 469 602 381 602 290 c 0
 602 259 596 241 582 196 c 1
 190 196 l 1xfa
 191 157 193 74 319 74 c 0
 393 74 463 103 545 139 c 1
 570 58 l 1
 511 29 499 26 390 -6 c 0
 386 -7 302 -32 302 -63 c 0
 302 -76 318 -78 326 -78 c 0xfe
 347 -78 354 -75 413 -47 c 1
216 278 m 1
 511 278 l 1
 510 301 509 383 392 383 c 0
 282 383 232 304 216 278 c 1
EndSplineSet
EndChar

StartChar: micro
Encoding: 428 181 321
Width: 600
Flags: W
HStem: -15 82<285.5 337.5> 0 82<510 573> 371 82<120 184 103 284 426 489>
VStem: 72 518<-153 82>
LayerCount: 2
Fore
SplineSet
120 453 m 1x70
 284 453 l 1
 231 207 l 2
 230 201 222 163 222 143 c 0
 222 102 262 67 309 67 c 0xb0
 380 67 435 119 454 207 c 2
 489 371 l 1
 409 371 l 1
 426 453 l 1
 590 453 l 1
 510 82 l 1
 590 82 l 1
 573 0 l 1
 409 0 l 1x70
 421 46 l 1
 419 48 l 1
 408 30 374 -15 301 -15 c 0
 225 -15 209 25 200 48 c 1
 198 48 l 1xb0
 155 -153 l 1
 72 -153 l 1
 184 371 l 1
 103 371 l 1
 120 453 l 1x70
EndSplineSet
EndChar

StartChar: epsilon
Encoding: 429 949 322
Width: 600
Flags: W
HStem: -15 82<224.5 294 224.5 294> 198 76<335.5 352.5> 242 21G 395 78<312 379.5 297.5 401> 450 20G<581 581> 456 20G<508 508>
VStem: 76 88<110 131.5> 149 88<317 350.5 317 372.5> 470 70<286 296>
LayerCount: 2
Fore
SplineSet
508 476 m 1xb580
 581 470 l 1xa980
 553 395 546 368 540 296 c 1
 470 286 l 1
 463 348 457 395 345 395 c 0
 279 395 237 366 237 335 c 0xd180
 237 299 292 274 379 274 c 0
 386 274 397 275 416 275 c 1
 399 195 l 1
 387 196 365 198 340 198 c 0
 211 198 164 148 164 119 c 0
 164 101 183 67 266 67 c 0
 322 67 358 79 445 112 c 1
 452 33 l 1
 451 33 448 32 447 31 c 0
 405 14 337 -15 251 -15 c 0
 150 -15 76 37 76 104 c 0xd280
 76 159 131 219 209 242 c 1
 174 263 149 293 149 328 c 0
 149 417 253 473 342 473 c 0
 417 473 464 436 490 415 c 1xb180
 508 476 l 1xb580
EndSplineSet
EndChar

StartChar: Pts
Encoding: 430 8359 323
Width: 600
Flags: W
HStem: -14 55<472 491.5 472 515.5> -14 67<277 302.5> -13 79<426 426> -6 21G<372 372> 0 74<16 61 135 170 1 61> 142 65<208 230 195 241 307 356 208 293> 149 71 171 54<489 501> 300 71<199 230 184 246> 509 74<125 156 111 333 230 230 230 313>
VStem: 211 68<62 64> 399 65<139.5 156 139.5 165.5> 436 79<411.5 480.5> 525 65<57 72>
LayerCount: 2
Fore
SplineSet
125 583 m 1x0ce8
 333 583 l 2
 394 583 515 583 515 461 c 0
 515 300 346 300 230 300 c 2
 184 300 l 1
 135 74 l 1
 184 74 l 1
 170 0 l 1
 1 0 l 1
 16 74 l 1
 61 74 l 1
 156 509 l 1
 111 509 l 1
 125 583 l 1x0ce8
255 265 m 1
 320 265 l 1
 307 207 l 1
 370 207 l 1
 356 142 l 1
 293 142 l 1
 284 102 l 2
 280 83 279 76 279 70 c 0
 279 54 297 53 298 53 c 0x44f0
 307 53 310 55 343 66 c 1x24e8
 351 0 l 1
 316 -11 301 -14 285 -14 c 0
 269 -14 211 -6 211 55 c 0x84e8
 211 73 216 91 219 102 c 2
 230 142 l 1
 195 142 l 1
 208 207 l 1
 241 207 l 1
 255 265 l 1
545 213 m 1
 549 224 l 1
 598 216 l 1
 596 208 587 176 584 149 c 1
 539 149 l 1x0ae8
 538 171 503 171 499 171 c 0
 479 171 464 164 464 148 c 0
 464 131 478 130 504 129 c 0
 547 128 590 115 590 69 c 0
 590 21 545 -14 486 -14 c 0x81f4
 453 -14 445 -9 430 0 c 1x0cf0
 426 -13 l 1x84f0
 372 -6 l 1
 374 1 377 10 379 23 c 0
 380 25 383 41 383 44 c 0x14f0
 386 59 387 60 387 66 c 1
 436 66 l 1x24f0
 438 60 440 54 446 49 c 0
 452 44 463 41 481 41 c 0
 502 41 525 49 525 65 c 0
 525 79 520 79 476 83 c 0x84f4
 427 87 399 104 399 143 c 0
 399 188 440 225 496 225 c 0
 518 225 533 218 545 213 c 1
313 509 m 2
 230 509 l 1
 199 371 l 1
 246 371 l 2
 334 371 436 371 436 452 c 0
 436 509 357 509 313 509 c 2
EndSplineSet
EndChar

StartChar: SF100000
Encoding: 431 9472 324
Width: 600
Flags: MW
HStem: 216 72<0 600 0 600>
VStem: 0 600<216 288 216 288>
LayerCount: 2
Fore
SplineSet
0 216 m 1
 0 288 l 1
 600 288 l 1
 600 216 l 1
 0 216 l 1
EndSplineSet
EndChar

StartChar: SF050000
Encoding: 432 9532 325
Width: 600
Flags: MW
HStem: 216 72<0 264 0 264 336 600>
VStem: 264 72<-288 216 -288 216 288 792>
LayerCount: 2
Fore
SplineSet
336 288 m 1
 600 288 l 1
 600 216 l 1
 336 216 l 1
 336 -288 l 1
 264 -288 l 1
 264 216 l 1
 0 216 l 1
 0 288 l 1
 264 288 l 1
 264 792 l 1
 336 792 l 1
 336 288 l 1
EndSplineSet
EndChar

StartChar: infinity
Encoding: 433 8734 326
Width: 600
Flags: MW
HStem: 183 90<223.5 240.5 223.5 241.5 482.5 515> 354 88<478.5 505.5>
VStem: 106 86<295 332 295 356> 537 86<307 327.5>
LayerCount: 2
Fore
SplineSet
363 377 m 1
 385 400 426 442 494 442 c 0
 564 442 623 394 623 313 c 0
 623 247 580 183 497 183 c 0
 432 183 389 224 365 247 c 1
 309 184 249 183 234 183 c 0
 171 183 106 226 106 311 c 0
 106 401 178 441 233 441 c 0
 284 441 331 417 363 377 c 1
423 314 m 1
 439 298 l 2
 446 292 466 273 499 273 c 0
 531 273 537 301 537 313 c 0
 537 342 515 354 496 354 c 0
 461 354 436 328 423 314 c 1
306 313 m 1
 277 343 255 353 232 353 c 0
 227 353 192 352 192 312 c 0
 192 278 217 273 230 273 c 0
 251 273 274 280 306 313 c 1
EndSplineSet
EndChar

StartChar: lessequal
Encoding: 434 8804 327
Width: 600
Flags: W
HStem: 18 88<105 594 105 594> 130 21G<581 581>
VStem: 581 13
LayerCount: 2
Fore
SplineSet
581 610 m 1
 617 532 l 1
 269 372 l 1
 616 209 l 1
 581 130 l 1xe0
 69 373 l 1
 581 610 l 1
594 106 m 1xa0
 594 18 l 1
 105 18 l 1
 105 106 l 1
 594 106 l 1xa0
EndSplineSet
EndChar

StartChar: liter
Encoding: 435 -1 328
Width: 600
Flags: MW
HStem: -12 55<268.5 282.5 268.5 290> 148 21G<151 160> 572 49<392.5 405.5>
VStem: 186 76<51 69.5 51 79> 418 45<525 549>
LayerCount: 2
Fore
SplineSet
296 243 m 1
 291 221 262 85 262 54 c 0
 262 48 265 43 272 43 c 0
 293 43 309 73 312 78 c 0
 325 102 329 109 343 109 c 0
 360 109 362 94 362 90 c 0
 362 70 323 -12 257 -12 c 0
 226 -12 186 8 186 63 c 0
 186 95 191 122 199 173 c 1
 169 150 165 148 155 148 c 0
 147 148 136 157 136 167 c 0
 136 177 140 180 171 206 c 0
 176 210 193 225 212 243 c 1
 262 475 317 621 404 621 c 0
 449 621 463 580 463 544 c 0
 463 506 451 460 432 419 c 0
 404 362 400 358 296 243 c 1
313 323 m 1
 330 344 l 2
 367 384 418 473 418 541 c 0
 418 557 412 572 399 572 c 0
 386 572 378 558 375 555 c 0
 355 524 337 447 311 325 c 1
 313 323 l 1
EndSplineSet
EndChar

StartChar: logicalnot
Encoding: 436 172 329
Width: 600
Flags: MW
HStem: 374 88<142 508 142 596>
VStem: 508 88<163 374 374 374>
LayerCount: 2
Fore
SplineSet
142 462 m 1
 596 462 l 1
 596 163 l 1
 508 163 l 1
 508 374 l 1
 142 374 l 1
 142 462 l 1
EndSplineSet
EndChar

StartChar: SF140000
Encoding: 437 9617 330
Width: 600
Flags: MW
HStem: -167 100<0 100 0 100 200 300 400 500> 33 100<0 100 0 100 200 300 400 500> 233 100<0 100 0 100 200 300 400 500> 433 100<0 100 0 100 200 300 400 500> 633 100<0 100 0 100 200 300 400 500>
VStem: 0 100<-167 -67 -167 -67 33 133 233 333 433 533 633 733> 200 100<-167 -67 -167 -67 33 133 233 333 433 533 633 733> 400 100<-167 -67 -167 -67 33 133 233 333 433 533 633 733>
LayerCount: 2
Fore
SplineSet
500 533 m 1
 500 433 l 1
 400 433 l 1
 400 533 l 1
 500 533 l 1
300 533 m 1
 300 433 l 1
 200 433 l 1
 200 533 l 1
 300 533 l 1
500 333 m 1
 500 233 l 1
 400 233 l 1
 400 333 l 1
 500 333 l 1
300 333 m 1
 300 233 l 1
 200 233 l 1
 200 333 l 1
 300 333 l 1
500 133 m 1
 500 33 l 1
 400 33 l 1
 400 133 l 1
 500 133 l 1
300 133 m 1
 300 33 l 1
 200 33 l 1
 200 133 l 1
 300 133 l 1
500 -67 m 1
 500 -167 l 1
 400 -167 l 1
 400 -67 l 1
 500 -67 l 1
300 -67 m 1
 300 -167 l 1
 200 -167 l 1
 200 -67 l 1
 300 -67 l 1
100 533 m 1
 100 433 l 1
 0 433 l 1
 0 533 l 1
 100 533 l 1
100 333 m 1
 100 233 l 1
 0 233 l 1
 0 333 l 1
 100 333 l 1
100 133 m 1
 100 33 l 1
 0 33 l 1
 0 133 l 1
 100 133 l 1
100 -67 m 1
 100 -167 l 1
 0 -167 l 1
 0 -67 l 1
 100 -67 l 1
100 733 m 1
 100 633 l 1
 0 633 l 1
 0 733 l 1
 100 733 l 1
300 733 m 1
 300 633 l 1
 200 633 l 1
 200 733 l 1
 300 733 l 1
500 733 m 1
 500 633 l 1
 400 633 l 1
 400 733 l 1
 500 733 l 1
EndSplineSet
EndChar

StartChar: nsuperior
Encoding: 438 8319 331
Width: 600
Flags: W
HStem: 260 74<168 223 300 333 153 223 385 439 515 552> 516 74<223 263 207 354> 525 74<438 448.5>
VStem: 473 77<499 557>
LayerCount: 2
Fore
SplineSet
223 590 m 1xd0
 354 590 l 1xd0
 350 567 l 1
 384 588 418 599 458 599 c 0
 479 599 550 594 550 520 c 0
 550 502 547 483 545 473 c 2
 515 334 l 1
 568 334 l 1
 552 260 l 1
 370 260 l 1
 385 334 l 1
 439 334 l 1
 469 473 l 2
 471 480 473 495 473 503 c 0
 473 518 457 525 440 525 c 0
 409 525 373 510 333 482 c 1xb0
 300 334 l 1
 350 334 l 1
 333 260 l 1
 153 260 l 1
 168 334 l 1
 223 334 l 1
 263 516 l 1
 207 516 l 1
 223 590 l 1xd0
EndSplineSet
EndChar

StartChar: intersection
Encoding: 439 8745 332
Width: 600
Flags: MW
HStem: 0 21G<134 221 134 134 507 507 507 595> 513 86<342 384.5>
VStem: 133 88<261 264> 507 88<0 261 0 264 0 312>
LayerCount: 2
Fore
SplineSet
221 0 m 1
 134 0 l 1
 133 261 l 2
 133 384 133 439 169 494 c 0
 215 564 291 599 364 599 c 0
 455 599 525 548 560 493 c 0
 594 439 595 374 595 261 c 2
 595 0 l 1
 507 0 l 1
 507 264 l 2
 507 360 508 413 484 450 c 0
 456 494 405 513 364 513 c 0
 320 513 273 491 245 449 c 0
 221 413 221 352 221 264 c 2
 221 0 l 1
EndSplineSet
EndChar

StartChar: SF160000
Encoding: 440 9619 333
Width: 600
Flags: MW
HStem: -267 100<0 100 200 300 400 500 0 100> -67 100<0 100 0 100 200 300 400 500> 133 100<0 100 0 100 200 300 400 500> 333 100<0 100 0 100 200 300 400 500> 533 100<0 100 0 100 200 300 400 500>
VStem: 100 100<-167 -67 -167 -67 33 133 233 333 433 533 633 733> 300 100<-167 -67 -167 -67 33 133 233 333 433 533 633 733> 500 100<-167 -67 -67 -67 33 133 133 133 233 333 333 333 433 533 533 533 633 733>
LayerCount: 2
Fore
SplineSet
600 -267 m 1
 0 -267 l 1
 0 -167 l 1
 100 -167 l 1
 100 -67 l 1
 0 -67 l 1
 0 33 l 1
 100 33 l 1
 100 133 l 1
 0 133 l 1
 0 233 l 1
 100 233 l 1
 100 333 l 1
 0 333 l 1
 0 433 l 1
 100 433 l 1
 100 533 l 1
 0 533 l 1
 0 633 l 1
 100 633 l 1
 100 733 l 1
 200 733 l 1
 200 633 l 1
 300 633 l 1
 300 733 l 1
 400 733 l 1
 400 633 l 1
 500 633 l 1
 500 733 l 1
 600 733 l 1
 600 -267 l 1
500 233 m 1
 500 333 l 1
 400 333 l 1
 400 233 l 1
 500 233 l 1
300 233 m 1
 300 333 l 1
 200 333 l 1
 200 233 l 1
 300 233 l 1
500 33 m 1
 500 133 l 1
 400 133 l 1
 400 33 l 1
 500 33 l 1
300 33 m 1
 300 133 l 1
 200 133 l 1
 200 33 l 1
 300 33 l 1
500 433 m 1
 500 533 l 1
 400 533 l 1
 400 433 l 1
 500 433 l 1
300 433 m 1
 300 533 l 1
 200 533 l 1
 200 433 l 1
 300 433 l 1
500 -167 m 1
 500 -67 l 1
 400 -67 l 1
 400 -167 l 1
 500 -167 l 1
300 -167 m 1
 300 -67 l 1
 200 -67 l 1
 200 -167 l 1
 300 -167 l 1
EndSplineSet
EndChar

StartChar: SF260000
Encoding: 441 9565 334
Width: 600
Flags: MW
HStem: 144 72<0 336 0 408 0 336> 288 72<0 192 0 264 0 192>
VStem: 192 72<360 792> 336 72<216 792 144 792>
LayerCount: 2
Fore
SplineSet
264 288 m 1
 0 288 l 1
 0 360 l 1
 192 360 l 1
 192 792 l 1
 264 792 l 1
 264 288 l 1
336 216 m 1
 336 792 l 1
 408 792 l 1
 408 144 l 1
 0 144 l 1
 0 216 l 1
 336 216 l 1
EndSplineSet
EndChar

StartChar: notequal
Encoding: 442 8800 335
Width: 600
Flags: MW
HStem: 221 82<143 262 143 303 411 585 143 369> 334 82<143 318 143 360 468 585 143 426>
VStem: 143 442<221 303 221 303 334 416 221 416>
LayerCount: 2
Fore
SplineSet
426 334 m 1
 411 303 l 1
 585 303 l 1
 585 221 l 1
 369 221 l 1
 291 64 l 1
 206 109 l 1
 262 221 l 1
 143 221 l 1
 143 303 l 1
 303 303 l 1
 318 334 l 1
 143 334 l 1
 143 416 l 1
 360 416 l 1
 436 567 l 1
 522 523 l 1
 468 416 l 1
 585 416 l 1
 585 334 l 1
 426 334 l 1
EndSplineSet
EndChar

StartChar: filledbox
Encoding: 443 9632 336
Width: 600
Flags: MW
HStem: 141 198<201 399 201 399>
VStem: 201 198<141 339 141 339>
LayerCount: 2
Fore
SplineSet
201 141 m 1
 201 339 l 1
 399 339 l 1
 399 141 l 1
 201 141 l 1
EndSplineSet
EndChar

StartChar: lcedilla
Encoding: 444 316 337
Width: 600
Flags: W
HStem: -170 70<265.5 281 265.5 317.5> -18 21G<326 326> 0 82<100 258 82 269 355 506 100 332> 535.5 95.5
VStem: 82 442<0 82> 300 85<-95 -89.5>
LayerCount: 2
Fore
SplineSet
332 0 m 1xb8
 326 -18 l 1xd4
 359 -27 385 -46 385 -83 c 0
 385 -112 362 -170 273 -170 c 0
 220 -170 169 -157 146 -150 c 1
 171 -82 l 1
 214 -92 253 -100 278 -100 c 0
 284 -100 300 -98 300 -92 c 0
 300 -87 279 -83 277 -83 c 0
 275 -82 248 -79 233 -77 c 1
 258 0 l 1xb4
 82 0 l 1
 100 82 l 1
 269 82 l 1
 366 541 l 1
 208 530 l 1
 217 615 l 1
 471 631 l 1
 355 82 l 1
 524 82 l 1
 506 0 l 1
 332 0 l 1xb8
EndSplineSet
EndChar

StartChar: parenrightsuperior
Encoding: 445 8318 338
Width: 600
Flags: MW
HStem: 213 462<194 382 194 382>
VStem: 342 82<454 535.5>
LayerCount: 2
Fore
SplineSet
280 213 m 1
 194 213 l 1
 197 215 205 226 207 229 c 0
 275 312 342 398 342 510 c 0
 342 561 333 596 306 675 c 1
 382 675 l 1
 393 652 424 590 424 504 c 0
 424 402 366 305 280 213 c 1
EndSplineSet
EndChar

StartChar: musicalnote
Encoding: 446 9834 339
Width: 600
Flags: W
HStem: 14 153<205.5 218> 130 21G
VStem: 271 50<162 383 510 563> 392 54<258 278.5>
LayerCount: 2
Fore
SplineSet
271 162 m 1xf0
 271 563 l 1
 321 563 l 1
 321 510 l 2
 324 506 329 499 331 498 c 0
 336 491 366 455 372 448 c 0
 390 427 446 360 446 266 c 0
 446 250 446 189 397 130 c 1
 360 130 l 1x70
 376 166 392 200 392 255 c 0
 392 302 370 362 321 383 c 1
 321 151 l 2
 321 47 242 14 194 14 c 0
 131 14 131 63 131 68 c 0
 131 118 176 167 235 167 c 0
 248 167 258 165 271 162 c 1xf0
EndSplineSet
EndChar

StartChar: parenleftsuperior
Encoding: 447 8317 340
Width: 600
Flags: MW
HStem: 213 462<393 580 393 580>
VStem: 350 82<358 436 358 437>
LayerCount: 2
Fore
SplineSet
494 675 m 1
 580 675 l 1
 504 581 432 493 432 379 c 0
 432 337 439 299 456 251 c 0
 464 228 464 225 465 223 c 0
 466 220 468 214 469 213 c 1
 393 213 l 1
 393 214 391 217 390 218 c 0
 364 270 350 327 350 385 c 0
 350 489 411 586 494 675 c 1
EndSplineSet
EndChar

StartChar: longdash
Encoding: 448 -1 341
Width: 600
Flags: MW
HStem: 253 92<113 616 113 616>
VStem: 113 503<253 345 253 345>
LayerCount: 2
Fore
SplineSet
113 345 m 1
 616 345 l 1
 616 253 l 1
 113 253 l 1
 113 345 l 1
EndSplineSet
EndChar

StartChar: male
Encoding: 449 9794 342
Width: 600
Flags: MW
HStem: 119 50<208 260 208 276> 357 50<202 255.5 191.5 260>
VStem: 90 50<237 283.5 237 299> 328 50<237 289>
LayerCount: 2
Fore
SplineSet
305 387 m 1
 409 491 l 1
 360 508 354 510 334 524 c 0
 328 529 321 534 321 544 c 0
 321 550 325 561 338 561 c 0
 343 561 347 560 355 558 c 0
 369 555 386 552 414 552 c 0
 457 552 467 555 480 559 c 0
 490 563 496 563 499 563 c 0
 509 563 513 556 513 549 c 0
 513 544 512 540 510 530 c 0
 503 507 502 480 502 462 c 0
 502 434 506 415 509 401 c 0
 511 391 511 389 511 385 c 0
 511 369 497 367 495 367 c 0
 472 367 451 429 442 458 c 1
 343 359 l 1
 353 348 378 319 378 267 c 0
 378 191 319 119 233 119 c 0
 155 119 90 182 90 262 c 0
 90 336 147 407 236 407 c 0
 275 407 293 396 305 387 c 1
234 357 m 0
 170 357 140 304 140 263 c 0
 140 211 182 169 234 169 c 0
 286 169 328 211 328 263 c 0
 328 315 286 357 234 357 c 0
EndSplineSet
EndChar

